<?xml version="1.0" encoding="utf-8"?>
<!-- Generator: Adobe Illustrator 15.1.0, SVG Export Plug-In . SVG Version: 6.00 Build 0)  -->
<!DOCTYPE svg PUBLIC "-//W3C//DTD SVG 1.1//EN" "http://www.w3.org/Graphics/SVG/1.1/DTD/svg11.dtd">
<svg version="1.1" id="Layer_1" xmlns="http://www.w3.org/2000/svg" xmlns:xlink="http://www.w3.org/1999/xlink" x="0px" y="0px"
	 width="290px" height="240px" viewBox="0 0 290 240" enable-background="new 0 0 290 240" xml:space="preserve">
<g>
	<g>
		<g>
			<path fill="#FFFFFF" d="M40.065,78.883c-4.207,2.575-7.291,5.95-9.261,10.134c-1.973,4.184-2.53,9.042-1.668,14.574
				c0.433,2.703,1.168,4.719,2.234,6.055c0.167,0.246,0.275,0.468,0.307,0.669c-5.463,0.856-9.143-0.364-11.021-3.65
				c-0.695-1.192-1.192-2.719-1.479-4.584c-0.541-3.435,0.004-6.902,1.667-10.424c1.65-3.521,3.98-6.785,6.993-9.778
				c6.912-6.686,14.612-10.694,23.113-12.028l4.1-0.64l-3.959,75.094c-0.497,8.61-2.453,15.368-5.867,20.273
				c-3.407,4.91-9.124,7.991-17.116,9.244c-4.94,0.767-8.91,0.029-11.927-2.23c-2.983-2.267-4.785-5.392-5.41-9.375
				c-0.621-3.979-0.035-7.511,1.765-10.599c1.812-3.078,4.409-4.886,7.784-5.413c3.38-0.529,5.723-0.609,7.012-0.225
				c2.744,0.73,4.333,2.523,4.786,5.391c0.195,1.239,0.203,2.632,0.05,4.198c-2.15-1.242-3.653-1.85-4.521-1.833
				c-0.859,0.019-1.551,0.064-2.044,0.145c-2.371,0.368-4.029,1.431-4.99,3.186c-0.947,1.761-1.297,3.45-1.043,5.083
				c0.425,2.731,1.439,4.57,3.042,5.515c1.6,0.939,3.132,1.302,4.597,1.069c2.769-0.436,4.741-1.588,5.92-3.463
				c1.166-1.869,1.958-5.449,2.365-10.736L40.065,78.883z"/>
			<path fill="#FFFFFF" d="M114.223,98.766c-3.459,4.974-9.061,8.765-16.817,11.345c0.669,9.453-0.851,17.336-4.543,23.655
				c-3.685,6.311-8.715,9.967-15.072,10.963c-7.874,1.233-13.382-0.875-16.569-6.318c-1.113-1.903-1.868-4.094-2.259-6.562
				c-0.375-2.469-0.554-5.001-0.546-7.622c0.009-2.612,0.266-5.337,0.735-8.18c1.088-6.416,3.261-11.827,6.527-16.234
				c3.892-5.251,9.065-8.382,15.524-9.393c8.775-1.376,14.008,3.38,15.714,14.276l0.022,0.104c0.341,0.018,0.915-0.034,1.708-0.162
				c1.835-0.292,4.104-1.241,6.804-2.866c2.7-1.612,5.172-3.503,7.434-5.671L114.223,98.766z M88.962,111.738
				c-1.91-0.184-3.064-1.555-3.476-4.118c-0.404-2.565,0.392-4.498,2.378-5.8c-0.477-2.144-1.057-3.627-1.746-4.439
				c-0.688-0.813-1.833-1.094-3.436-0.839c-3.128,0.489-5.59,4.409-7.368,11.774c-1.789,7.37-2.263,13.739-1.415,19.094
				c0.514,3.31,1.144,5.347,1.883,6.139c0.73,0.789,1.453,1.247,2.155,1.377c0.701,0.131,1.625,0.099,2.761-0.075
				c2.324-0.368,4.321-2.779,5.984-7.236C88.341,123.158,89.097,117.857,88.962,111.738z"/>
			<path fill="#FFFFFF" d="M119.604,123.629c0.474,3.005,1.719,4.349,3.747,4.024c3.604-0.567,5.871-4.012,6.788-10.333
				l1.802-33.928l14.853-2.326l-3.197,61.344c-0.274,6.73-2.165,11.881-5.681,15.439c-2.557,2.582-5.705,4.172-9.438,4.753
				c-3.736,0.588-6.971,0.035-9.737-1.649c-2.723-1.72-4.314-3.991-4.751-6.79c-0.429-2.797-0.325-5.09,0.335-6.866
				c0.656-1.773,1.861-3.495,3.622-5.17c1.711-1.703,5.457-3.93,11.247-6.68l0.338-4.665c-2.851,4.476-6.702,7.093-11.566,7.858
				c-3.078,0.483-5.825-0.08-8.25-1.677c-2.408-1.605-3.951-4.557-4.622-8.854c-0.301-1.931-0.381-4.211-0.25-6.83l1.808-33.923
				l14.734-2.315l-1.887,35.939C119.433,121.883,119.473,122.769,119.604,123.629z M128.999,138.811
				c-3.453,1.867-5.806,3.485-7.023,4.837c-2.207,2.491-3.111,5.024-2.708,7.595c0.125,0.756,0.648,1.459,1.581,2.076
				c0.933,0.626,1.938,0.853,3.022,0.681c1.089-0.168,2.122-0.925,3.107-2.279c0.979-1.35,1.554-3.572,1.715-6.675L128.999,138.811z
				"/>
			<path fill="#FFFFFF" d="M176.39,118.715c-3.083,7.47-7.61,11.679-13.617,12.621c-2.633,0.412-4.828,0.062-6.608-1.053
				c-1.781-1.119-2.92-3.241-3.405-6.374c-0.67-4.212-0.235-8.466,1.291-12.741c1.168-3.263,3.065-5.76,5.695-7.484
				c1.35-0.913,2.809-1.487,4.378-1.733c2.558-0.399,4.364-0.199,5.436,0.626c1.068,0.821,1.738,2.033,1.985,3.633
				c0.497,3.154-0.347,6.033-2.549,8.639c-2.19,2.604-4.973,4.282-8.345,5.033c0.07,1.053,0.147,1.796,0.21,2.228
				c0.288,1.893,0.827,3.086,1.584,3.59c0.768,0.495,1.744,0.655,2.955,0.461c2.128-0.329,3.841-1.086,5.132-2.256
				c1.313-1.171,2.625-2.808,3.958-4.898L176.39,118.715z M167.219,106.508c-0.214-1.339-0.772-1.933-1.694-1.789
				c-1.345,0.243-2.466,1.644-3.353,4.198c-0.888,2.542-1.399,5.292-1.503,8.246c2.101-0.481,3.816-1.761,5.138-3.854
				C167.129,111.223,167.6,108.954,167.219,106.508z"/>
			<path fill="#FFFFFF" d="M195.961,118.221c0.248,1.583,1.043,2.273,2.403,2.056c1.237-0.191,2.13-0.736,2.675-1.635
				c0.54-0.898,1.001-2.232,1.384-4.014l2.331-0.361c-1.169,6.551-3.546,10.376-7.113,11.498c-0.568,0.162-1.273,0.306-2.118,0.44
				c-0.849,0.126-1.706,0.08-2.605-0.147c-2.453-0.61-3.903-2.328-4.347-5.156c-0.231-1.515-0.202-3.998,0.108-7.442
				c0.311-3.434,0.371-5.792,0.166-7.051c-0.288-1.895-1.104-2.734-2.436-2.523c-1.331,0.201-2.362,1.45-3.073,3.717
				c-0.216,0.64-0.368,1.332-0.458,2.067l-0.968,18.334l-7.97,1.253l1.534-28.591l7.966-1.249l-0.152,2.964
				c1.48-2.34,3.473-3.698,5.974-4.098c1.771-0.273,3.316-0.014,4.627,0.774c1.339,0.789,2.146,2.137,2.444,4.045
				c0.296,1.915,0.327,4.114,0.104,6.628l-0.494,5.562C195.839,116.504,195.844,117.481,195.961,118.221z"/>
			<path fill="#FFFFFF" d="M209.646,128.2c-0.143,3.66-1.148,6.44-3.009,8.336c-1.373,1.391-3.052,2.248-5.041,2.561
				c-1.995,0.313-3.66,0.114-5.023-0.586c-1.345-0.7-2.178-1.953-2.443-3.752c-0.481-2.991,1.123-5.646,4.785-7.946
				c0.998-0.645,2-1.214,2.996-1.72l1.545-28.812l7.967-1.244l-1.457,26.526c1.622-0.844,2.873-1.92,3.783-3.223
				c0.905-1.302,1.561-3.231,1.978-5.791l2.32-0.363c-0.699,4.963-2.59,8.461-5.666,10.494c-0.858,0.579-1.694,1.043-2.522,1.393
				L209.646,128.2z M201.747,127.969c-3.419,1.824-4.983,3.68-4.69,5.553c0.118,0.742,0.544,1.236,1.316,1.486
				c0.239,0.067,0.595,0.067,1.049,0c0.449-0.073,0.904-0.551,1.378-1.456c0.469-0.883,0.748-2.2,0.847-3.936L201.747,127.969z
				 M211.7,87.411c0.189,1.224-0.088,2.322-0.824,3.299c-0.742,0.971-1.717,1.552-2.925,1.743c-1.208,0.19-2.3-0.073-3.274-0.786
				c-0.98-0.722-1.569-1.679-1.756-2.882c-0.195-1.207,0.059-2.314,0.767-3.312c0.696-1.007,1.653-1.607,2.878-1.802
				c1.228-0.195,2.337,0.083,3.34,0.809C210.91,85.208,211.507,86.183,211.7,87.411z"/>
			<path fill="#FFFFFF" d="M245.078,96.574c-1.871,2.692-4.895,4.732-9.082,6.126c0.349,5.109-0.466,9.376-2.458,12.787
				c-1.993,3.414-4.715,5.394-8.151,5.927c-4.252,0.662-7.234-0.471-8.95-3.41c-0.61-1.029-1.014-2.21-1.225-3.554
				c-0.203-1.33-0.302-2.701-0.301-4.107c0.019-1.42,0.146-2.896,0.406-4.425c0.585-3.472,1.752-6.394,3.524-8.782
				c2.101-2.835,4.891-4.524,8.402-5.074c4.738-0.744,7.558,1.829,8.488,7.72v0.054c0.187,0.006,0.497-0.023,0.938-0.087
				c0.98-0.158,2.208-0.671,3.671-1.552c1.447-0.873,2.793-1.887,4.016-3.067L245.078,96.574z M231.418,103.58
				c-1.027-0.094-1.654-0.839-1.863-2.219c-0.22-1.389,0.208-2.438,1.276-3.133c-0.258-1.16-0.57-1.961-0.945-2.408
				c-0.375-0.435-0.989-0.589-1.86-0.454c-1.686,0.271-3.021,2.388-3.978,6.372c-0.962,3.978-1.217,7.415-0.763,10.318
				c0.281,1.787,0.618,2.892,1.014,3.319c0.403,0.422,0.8,0.672,1.171,0.745c0.388,0.063,0.88,0.05,1.486-0.043
				c1.254-0.195,2.342-1.505,3.229-3.909C231.089,109.759,231.496,106.901,231.418,103.58z"/>
			<path fill="#FFFFFF" d="M247.985,110.011c0.253,1.625,0.928,2.347,2.027,2.174c1.954-0.304,3.17-2.158,3.668-5.584l0.975-18.334
				l8.021-1.264l-1.725,33.157c-0.147,3.644-1.172,6.426-3.065,8.349c-1.387,1.395-3.083,2.253-5.109,2.566
				c-2.01,0.312-3.764,0.018-5.257-0.896c-1.479-0.929-2.335-2.145-2.566-3.661c-0.246-1.514-0.177-2.753,0.184-3.715
				c0.352-0.955,1.009-1.886,1.947-2.789c0.924-0.923,2.954-2.129,6.077-3.619l0.203-2.518c-1.552,2.418-3.632,3.834-6.27,4.25
				c-1.648,0.259-3.144-0.048-4.452-0.906c-1.298-0.869-2.136-2.464-2.504-4.79c-0.153-1.044-0.192-2.27-0.129-3.69l0.976-18.334
				l7.969-1.248l-1.021,19.422C247.894,109.067,247.919,109.539,247.985,110.011z M253.059,118.216
				c-1.867,1.007-3.125,1.883-3.795,2.614c-1.185,1.353-1.671,2.723-1.456,4.104c0.059,0.415,0.342,0.789,0.849,1.126
				c0.506,0.334,1.06,0.461,1.636,0.363c0.584-0.091,1.148-0.496,1.675-1.227c0.537-0.736,0.849-1.934,0.932-3.612L253.059,118.216z
				"/>
		</g>
		<g>
			<path fill="#009D48" d="M214.952,157.254c0,1.553-0.815,2.333-2.426,2.333c-1.75,0-2.628-0.779-2.628-2.333
				c0-1.557,0.878-2.335,2.628-2.335C214.137,154.919,214.952,155.697,214.952,157.254z"/>
			<path fill="#009D48" d="M260.639,147.343c0,0.256-0.072,0.454-0.199,0.585c-1.62,2.262-3.437,4.368-5.455,6.305
				c-2.773,2.604-5.109,3.901-6.989,3.901c-3.042,0-4.563-3.372-4.563-10.118c0-1.031,0.028-2.199,0.083-3.493
				c-2.316,2.069-4.945,5.796-7.859,11.173c-0.976,1.816-2.037,2.723-3.215,2.723c-0.383,0-0.669-0.131-0.865-0.389
				c-0.196-0.719-0.299-1.62-0.299-2.725c0-1.879,0.422-5.311,1.268-10.299c0.453-2.525,0.676-4.146,0.676-4.859
				c0-0.523-0.09-0.776-0.29-0.776c-1.098,0.972-2.887,3.077-5.342,6.317c-2.656,3.494-5.508,7.616-8.552,12.341
				c-0.386,0.581-0.709,0.87-0.97,0.87c-0.524,0-0.779-0.58-0.779-1.751c0-0.313,0.025-0.577,0.096-0.772
				c1.497-3.495,3.014-8.427,4.574-14.772c0.124-0.911,0.381-2.205,0.765-3.884c0.134-0.459,0.575-0.915,1.313-1.36
				c0.745-0.457,1.376-0.685,1.902-0.685c0.454,0,0.675,0.2,0.675,0.578c0,0.653-1.515,5.579-4.569,14.777
				c2.338-3.104,4.728-6.316,7.195-9.62c0.772-1.035,1.944-2.596,3.49-4.67c0.98-1.162,1.99-1.742,3.026-1.742
				c1.035,0,1.552,0.58,1.552,1.742c0,0.849-0.235,2.512-0.683,5.008c-0.462,2.495-0.969,6.138-1.561,10.935
				c1.815-2.589,4.633-6.381,8.451-11.372c1.044-1.229,2.078-1.849,3.124-1.849c0.97,0,1.455,0.62,1.455,1.849
				c0,1.038-0.162,2.576-0.485,4.619c-0.319,2.037-0.487,3.579-0.487,4.61c0,3.377,0.874,5.063,2.629,5.063
				c2.46,0,5.604-2.721,9.425-8.167c0.393-0.65,0.709-0.976,0.975-0.976C260.475,146.462,260.639,146.751,260.639,147.343z"/>
			<path fill="#009D48" d="M279.977,147.531c0,0.129-0.069,0.328-0.2,0.585c-1.619,2.53-4.041,4.858-7.287,7.001
				c-3.434,2.264-6.571,3.398-9.435,3.398c-4.074,0-6.114-2.559-6.114-7.681c0-3.365,1.454-7.057,4.371-11.075
				c3.108-4.275,6.316-6.417,9.623-6.417c0.648,0,1.219,0.294,1.696,0.874c0.491,0.583,0.736,1.201,0.736,1.849
				c0,2.011-1.524,4.443-4.568,7.289c-2.727,2.522-5.217,4.21-7.487,5.054c-0.449,1.615-0.678,2.979-0.678,4.076
				c0,2.664,1.202,3.982,3.601,3.982c2.265,0,4.822-0.927,7.672-2.81c2.462-1.616,4.57-3.466,6.319-5.54
				c0.45-0.646,0.906-0.969,1.359-0.969C279.842,147.147,279.977,147.274,279.977,147.531z M270.447,137.231
				c0-0.78-0.387-1.167-1.169-1.167c-0.966,0-2.396,1.494-4.278,4.47c-1.619,2.523-2.613,4.507-3.011,5.927
				c1.691-0.702,3.44-1.973,5.251-3.783C269.379,140.598,270.447,138.784,270.447,137.231z"/>
		</g>
		<g>
			<g>
				<g>
					<path fill="#009D48" d="M263.733,55.25l-2.976-30.868c-0.436-4.481-4.242-7.88-8.756-7.789l-70.04,1.44
						c-3.385,0.064-6.119,2.772-6.236,6.156l-1.51,44.876c-0.077,2.614,1.028,5.116,3.002,6.821c1.965,1.708,4.62,2.422,7.184,1.947
						l28.33-5.205l11.909,14.755c0.313,0.385,0.801,0.607,1.312,0.586c0.498-0.033,0.958-0.297,1.232-0.719l12.832-19.631
						l16.689-3.064C261.11,63.746,264.157,59.707,263.733,55.25z M242.841,50.655c-4.263,11.318-17.182,15.472-25.986,11.839
						c-7.363-3.039-12.93-13.454-9.742-22.708C215.191,16.373,252.265,25.572,242.841,50.655z M254.615,25.735
						c-0.887,2.307-4.052,3.08-6.123,2.342c-1.752-0.617-3.075-2.709-2.334-4.56c1.075-2.688,4.34-3.109,6.668-2.061
						c0.666,0.188,1.188,0.796,1.559,1.397C254.947,23.768,254.985,24.733,254.615,25.735z"/>
					<path fill="#009D48" d="M236.285,35.368c-1.624-1.581-3.72-2.997-5.994-2.906c-8.174-0.982-18.144,3.776-19.515,13.585
						c-0.946,6.756,4.842,12.138,10.823,12.333c7.164,0.225,16.553-5.537,17.588-13.914
						C239.653,40.808,238.754,37.744,236.285,35.368z M217.332,45.334c-1.377,1.137-3.078,1.505-3.325,0.37
						c-0.373-1.647,1.568-4.251,3.506-5.7c0.506-0.454,1.074-0.657,1.564-0.759c0.728-0.135,1.154,0.117,1.296,0.714
						C220.729,41.348,218.981,43.986,217.332,45.334z"/>
				</g>
			</g>
		</g>
	</g>
	<g>
		<g>
			<path fill="#FFFFFF" d="M55.071,206.215c0,0.127-0.005,0.233-0.016,0.32c-0.01,0.086-0.028,0.155-0.051,0.207
				c-0.023,0.05-0.05,0.088-0.078,0.113c-0.03,0.025-0.064,0.039-0.102,0.039h-2.68v2.204h2.516c0.038,0,0.072,0.011,0.101,0.031
				c0.03,0.021,0.056,0.058,0.08,0.108c0.023,0.05,0.041,0.118,0.051,0.203c0.01,0.084,0.016,0.19,0.016,0.316
				c0,0.126-0.006,0.232-0.016,0.316c-0.01,0.085-0.027,0.154-0.051,0.209c-0.024,0.056-0.049,0.094-0.08,0.117
				c-0.029,0.023-0.063,0.035-0.101,0.035h-2.516v3.054c0,0.046-0.012,0.086-0.038,0.12c-0.026,0.034-0.071,0.062-0.136,0.086
				c-0.065,0.022-0.152,0.041-0.257,0.054c-0.105,0.012-0.24,0.019-0.406,0.019c-0.16,0-0.294-0.007-0.402-0.019
				c-0.107-0.013-0.193-0.031-0.256-0.054c-0.063-0.023-0.109-0.052-0.136-0.086c-0.028-0.034-0.042-0.074-0.042-0.12v-7.431
				c0-0.187,0.048-0.32,0.143-0.402c0.095-0.083,0.212-0.124,0.352-0.124h3.858c0.038,0,0.072,0.012,0.102,0.035
				c0.028,0.023,0.055,0.061,0.078,0.114c0.023,0.053,0.041,0.124,0.051,0.212C55.065,205.98,55.071,206.088,55.071,206.215z"/>
			<path fill="#FFFFFF" d="M63.706,209.535c0,0.68-0.085,1.288-0.253,1.824c-0.169,0.536-0.42,0.991-0.754,1.366
				c-0.334,0.373-0.747,0.658-1.239,0.855c-0.492,0.196-1.061,0.294-1.707,0.294c-0.638,0-1.195-0.083-1.67-0.25
				c-0.475-0.167-0.871-0.422-1.188-0.764c-0.317-0.342-0.554-0.777-0.712-1.305c-0.159-0.528-0.238-1.152-0.238-1.875
				c0-0.663,0.084-1.259,0.253-1.79c0.169-0.53,0.42-0.981,0.754-1.353c0.334-0.372,0.747-0.656,1.239-0.854
				c0.492-0.199,1.063-0.298,1.713-0.298c0.622,0,1.169,0.082,1.644,0.247c0.475,0.165,0.872,0.417,1.191,0.76
				c0.319,0.341,0.56,0.774,0.723,1.295C63.624,208.209,63.706,208.825,63.706,209.535z M61.957,209.624
				c0-0.431-0.034-0.823-0.101-1.176c-0.068-0.353-0.183-0.654-0.345-0.906c-0.164-0.251-0.379-0.445-0.65-0.583
				c-0.271-0.138-0.608-0.206-1.014-0.206c-0.41,0-0.752,0.077-1.026,0.231c-0.274,0.154-0.496,0.36-0.666,0.617
				c-0.169,0.257-0.288,0.559-0.358,0.903c-0.069,0.344-0.104,0.708-0.104,1.093c0,0.447,0.034,0.849,0.101,1.207
				c0.068,0.357,0.182,0.663,0.342,0.916c0.161,0.253,0.376,0.446,0.646,0.579c0.271,0.133,0.611,0.2,1.02,0.2
				s0.752-0.077,1.027-0.229c0.274-0.151,0.496-0.359,0.665-0.621c0.169-0.262,0.289-0.567,0.358-0.915
				C61.923,210.386,61.957,210.016,61.957,209.624z"/>
			<path fill="#FFFFFF" d="M70.274,206.215c0,0.123-0.005,0.227-0.015,0.314c-0.011,0.086-0.026,0.156-0.048,0.208
				c-0.021,0.053-0.047,0.092-0.079,0.117c-0.031,0.025-0.066,0.039-0.104,0.039h-2.053v6.607c0,0.042-0.014,0.081-0.042,0.113
				c-0.027,0.035-0.073,0.062-0.136,0.083c-0.063,0.021-0.148,0.037-0.256,0.05c-0.107,0.012-0.242,0.019-0.402,0.019
				c-0.161,0-0.295-0.007-0.403-0.019c-0.107-0.013-0.193-0.03-0.257-0.05c-0.063-0.021-0.109-0.049-0.136-0.083
				c-0.028-0.033-0.042-0.071-0.042-0.113v-6.607H64.25c-0.042,0-0.077-0.013-0.106-0.039c-0.03-0.025-0.055-0.064-0.077-0.117
				c-0.021-0.053-0.037-0.123-0.048-0.208c-0.01-0.087-0.015-0.191-0.015-0.314c0-0.126,0.005-0.235,0.015-0.323
				c0.011-0.089,0.026-0.16,0.048-0.212c0.021-0.053,0.046-0.091,0.077-0.114c0.029-0.023,0.064-0.035,0.106-0.035h5.779
				c0.038,0,0.073,0.012,0.104,0.035c0.032,0.023,0.059,0.061,0.079,0.114c0.022,0.053,0.037,0.124,0.048,0.212
				C70.27,205.98,70.274,206.088,70.274,206.215z"/>
			<path fill="#FFFFFF" d="M78.271,209.535c0,0.68-0.085,1.288-0.253,1.824c-0.169,0.536-0.42,0.991-0.754,1.366
				c-0.334,0.373-0.747,0.658-1.239,0.855c-0.492,0.196-1.061,0.294-1.708,0.294c-0.638,0-1.194-0.083-1.669-0.25
				c-0.475-0.167-0.872-0.422-1.188-0.764c-0.317-0.342-0.554-0.777-0.712-1.305c-0.159-0.528-0.238-1.152-0.238-1.875
				c0-0.663,0.085-1.259,0.253-1.79c0.169-0.53,0.42-0.981,0.754-1.353c0.334-0.372,0.747-0.656,1.239-0.854
				c0.492-0.199,1.063-0.298,1.713-0.298c0.621,0,1.17,0.082,1.645,0.247c0.475,0.165,0.872,0.417,1.19,0.76
				c0.319,0.341,0.56,0.774,0.722,1.295C78.188,208.209,78.271,208.825,78.271,209.535z M76.521,209.624
				c0-0.431-0.034-0.823-0.101-1.176c-0.068-0.353-0.183-0.654-0.345-0.906c-0.163-0.251-0.379-0.445-0.649-0.583
				c-0.271-0.138-0.608-0.206-1.014-0.206c-0.41,0-0.752,0.077-1.026,0.231c-0.275,0.154-0.496,0.36-0.666,0.617
				s-0.289,0.559-0.358,0.903c-0.069,0.344-0.104,0.708-0.104,1.093c0,0.447,0.034,0.849,0.101,1.207
				c0.068,0.357,0.182,0.663,0.343,0.916c0.161,0.253,0.375,0.446,0.646,0.579c0.271,0.133,0.61,0.2,1.021,0.2
				c0.409,0,0.751-0.077,1.026-0.229c0.274-0.151,0.496-0.359,0.665-0.621c0.169-0.262,0.288-0.567,0.358-0.915
				C76.487,210.386,76.521,210.016,76.521,209.624z"/>
			<path fill="#FFFFFF" d="M85.606,211.271c0,0.292-0.04,0.555-0.12,0.792c-0.081,0.236-0.192,0.446-0.333,0.627
				c-0.142,0.181-0.311,0.338-0.507,0.469c-0.197,0.131-0.413,0.238-0.649,0.323c-0.236,0.085-0.489,0.148-0.757,0.187
				c-0.268,0.041-0.566,0.061-0.896,0.061h-2.18c-0.139,0-0.256-0.042-0.352-0.124c-0.095-0.083-0.142-0.217-0.142-0.403v-7.146
				c0-0.187,0.047-0.32,0.142-0.402c0.095-0.083,0.212-0.124,0.352-0.124h2.059c0.503,0,0.929,0.042,1.277,0.126
				c0.348,0.084,0.642,0.212,0.881,0.383c0.239,0.171,0.421,0.387,0.548,0.649c0.126,0.262,0.19,0.57,0.19,0.925
				c0,0.198-0.025,0.386-0.076,0.561c-0.051,0.175-0.125,0.334-0.223,0.478c-0.097,0.144-0.216,0.271-0.357,0.38
				c-0.142,0.11-0.303,0.199-0.484,0.267c0.232,0.042,0.446,0.116,0.643,0.221s0.367,0.242,0.513,0.409
				c0.146,0.168,0.261,0.363,0.346,0.586C85.563,210.74,85.606,210.992,85.606,211.271z M83.452,207.818
				c0-0.165-0.025-0.313-0.075-0.443c-0.051-0.131-0.127-0.24-0.229-0.327c-0.101-0.086-0.229-0.153-0.383-0.2
				c-0.154-0.046-0.36-0.07-0.618-0.07h-0.843v2.129h0.931c0.242,0,0.433-0.028,0.577-0.086c0.143-0.057,0.262-0.134,0.357-0.234
				c0.095-0.099,0.166-0.215,0.212-0.349C83.429,208.106,83.452,207.966,83.452,207.818z M83.877,211.328
				c0-0.19-0.032-0.36-0.095-0.51c-0.063-0.15-0.156-0.276-0.279-0.377c-0.122-0.101-0.278-0.179-0.469-0.233
				c-0.19-0.055-0.437-0.083-0.741-0.083h-0.988v2.331h1.204c0.232,0,0.427-0.023,0.585-0.073c0.159-0.048,0.296-0.12,0.412-0.215
				c0.116-0.095,0.207-0.213,0.273-0.355C83.844,211.671,83.877,211.509,83.877,211.328z"/>
			<path fill="#FFFFFF" d="M94.317,209.535c0,0.68-0.084,1.288-0.253,1.824c-0.169,0.536-0.42,0.991-0.754,1.366
				c-0.334,0.373-0.747,0.658-1.238,0.855c-0.492,0.196-1.062,0.294-1.708,0.294c-0.638,0-1.194-0.083-1.669-0.25
				c-0.475-0.167-0.871-0.422-1.188-0.764c-0.317-0.342-0.554-0.777-0.712-1.305c-0.159-0.528-0.238-1.152-0.238-1.875
				c0-0.663,0.085-1.259,0.253-1.79c0.169-0.53,0.42-0.981,0.754-1.353c0.334-0.372,0.747-0.656,1.239-0.854
				c0.492-0.199,1.063-0.298,1.713-0.298c0.621,0,1.169,0.082,1.644,0.247c0.476,0.165,0.873,0.417,1.191,0.76
				c0.32,0.341,0.56,0.774,0.723,1.295C94.236,208.209,94.317,208.825,94.317,209.535z M92.569,209.624
				c0-0.431-0.034-0.823-0.101-1.176c-0.068-0.353-0.183-0.654-0.346-0.906c-0.163-0.251-0.379-0.445-0.649-0.583
				c-0.27-0.138-0.608-0.206-1.014-0.206c-0.41,0-0.752,0.077-1.026,0.231c-0.274,0.154-0.496,0.36-0.666,0.617
				c-0.169,0.257-0.288,0.559-0.358,0.903c-0.069,0.344-0.104,0.708-0.104,1.093c0,0.447,0.034,0.849,0.102,1.207
				c0.068,0.357,0.181,0.663,0.342,0.916c0.161,0.253,0.376,0.446,0.647,0.579c0.27,0.133,0.61,0.2,1.02,0.2
				c0.41,0,0.752-0.077,1.027-0.229c0.273-0.151,0.496-0.359,0.665-0.621c0.168-0.262,0.288-0.567,0.357-0.915
				C92.534,210.386,92.569,210.016,92.569,209.624z"/>
			<path fill="#FFFFFF" d="M101.115,213.101c0.076,0.148,0.125,0.267,0.149,0.355c0.023,0.088,0.01,0.156-0.042,0.202
				c-0.05,0.047-0.142,0.076-0.275,0.089c-0.132,0.012-0.318,0.019-0.554,0.019c-0.199,0-0.354-0.004-0.469-0.013
				c-0.114-0.008-0.204-0.022-0.27-0.042c-0.066-0.018-0.113-0.045-0.143-0.079c-0.029-0.034-0.055-0.076-0.076-0.126l-1.54-2.959
				l-1.533,2.959c-0.025,0.05-0.053,0.092-0.083,0.126c-0.029,0.034-0.077,0.061-0.142,0.079c-0.066,0.019-0.157,0.033-0.273,0.042
				c-0.116,0.009-0.269,0.013-0.459,0.013c-0.22,0-0.39-0.007-0.51-0.019c-0.121-0.013-0.202-0.042-0.245-0.089
				c-0.041-0.046-0.05-0.114-0.025-0.202c0.025-0.088,0.079-0.207,0.159-0.355l1.964-3.58l-1.825-3.363
				c-0.075-0.153-0.127-0.273-0.155-0.365c-0.027-0.09-0.017-0.158,0.032-0.202c0.049-0.044,0.139-0.071,0.27-0.083
				c0.131-0.01,0.317-0.016,0.558-0.016c0.198,0,0.356,0.004,0.472,0.013c0.116,0.009,0.208,0.021,0.275,0.041
				c0.068,0.019,0.116,0.046,0.143,0.079c0.028,0.034,0.054,0.077,0.079,0.127l1.438,2.711l1.4-2.711
				c0.025-0.05,0.052-0.093,0.079-0.127c0.028-0.033,0.072-0.06,0.133-0.079c0.062-0.02,0.146-0.032,0.254-0.041
				c0.107-0.008,0.256-0.013,0.446-0.013c0.211,0,0.378,0.005,0.501,0.016c0.122,0.011,0.207,0.039,0.253,0.085
				c0.047,0.047,0.058,0.115,0.035,0.203c-0.024,0.088-0.071,0.208-0.143,0.361l-1.825,3.345L101.115,213.101z"/>
			<path fill="#FFFFFF" d="M120.089,211.271c0,0.292-0.04,0.555-0.121,0.792c-0.08,0.236-0.191,0.446-0.333,0.627
				c-0.141,0.181-0.311,0.338-0.506,0.469c-0.197,0.131-0.413,0.238-0.65,0.323c-0.236,0.085-0.489,0.148-0.757,0.187
				c-0.269,0.041-0.567,0.061-0.896,0.061h-2.18c-0.139,0-0.256-0.042-0.352-0.124c-0.095-0.083-0.142-0.217-0.142-0.403v-7.146
				c0-0.187,0.047-0.32,0.142-0.402c0.095-0.083,0.212-0.124,0.352-0.124h2.06c0.502,0,0.928,0.042,1.276,0.126
				c0.348,0.084,0.642,0.212,0.88,0.383c0.239,0.171,0.421,0.387,0.548,0.649c0.126,0.262,0.19,0.57,0.19,0.925
				c0,0.198-0.025,0.386-0.076,0.561c-0.051,0.175-0.125,0.334-0.223,0.478c-0.097,0.144-0.216,0.271-0.357,0.38
				c-0.142,0.11-0.303,0.199-0.484,0.267c0.232,0.042,0.446,0.116,0.643,0.221c0.197,0.105,0.367,0.242,0.513,0.409
				c0.146,0.168,0.261,0.363,0.346,0.586C120.047,210.74,120.089,210.992,120.089,211.271z M117.935,207.818
				c0-0.165-0.025-0.313-0.075-0.443c-0.051-0.131-0.127-0.24-0.229-0.327c-0.101-0.086-0.229-0.153-0.382-0.2
				c-0.155-0.046-0.361-0.07-0.619-0.07h-0.842v2.129h0.931c0.241,0,0.433-0.028,0.577-0.086c0.144-0.057,0.262-0.134,0.357-0.234
				c0.095-0.099,0.166-0.215,0.212-0.349C117.911,208.106,117.935,207.966,117.935,207.818z M118.359,211.328
				c0-0.19-0.032-0.36-0.095-0.51c-0.063-0.15-0.156-0.276-0.278-0.377c-0.123-0.101-0.279-0.179-0.469-0.233
				c-0.19-0.055-0.438-0.083-0.741-0.083h-0.988v2.331h1.204c0.232,0,0.427-0.023,0.585-0.073c0.158-0.048,0.296-0.12,0.412-0.215
				c0.116-0.095,0.207-0.213,0.273-0.355C118.327,211.671,118.359,211.509,118.359,211.328z"/>
			<path fill="#FFFFFF" d="M127.508,213.513c0,0.046-0.009,0.085-0.025,0.117c-0.018,0.031-0.057,0.058-0.121,0.079
				c-0.064,0.021-0.157,0.036-0.279,0.044c-0.122,0.009-0.289,0.013-0.5,0.013c-0.179,0-0.32-0.004-0.425-0.013
				c-0.106-0.008-0.189-0.024-0.25-0.047c-0.061-0.022-0.104-0.052-0.129-0.089c-0.026-0.036-0.047-0.079-0.063-0.129l-0.735-1.832
				c-0.089-0.207-0.176-0.39-0.26-0.55c-0.085-0.161-0.179-0.295-0.282-0.403c-0.104-0.107-0.223-0.189-0.358-0.244
				c-0.135-0.055-0.291-0.083-0.469-0.083h-0.519v3.124c0,0.042-0.014,0.081-0.042,0.113c-0.028,0.035-0.073,0.062-0.136,0.083
				c-0.063,0.021-0.148,0.037-0.253,0.05c-0.106,0.012-0.241,0.019-0.406,0.019c-0.16,0-0.295-0.007-0.401-0.019
				c-0.108-0.013-0.194-0.03-0.257-0.05c-0.064-0.021-0.108-0.049-0.134-0.083c-0.025-0.033-0.038-0.071-0.038-0.113v-7.444
				c0-0.187,0.047-0.32,0.143-0.402c0.096-0.083,0.213-0.124,0.352-0.124h2.123c0.215,0,0.392,0.004,0.531,0.013
				c0.14,0.008,0.267,0.019,0.381,0.031c0.329,0.046,0.626,0.127,0.889,0.24c0.265,0.115,0.488,0.264,0.672,0.447
				c0.184,0.184,0.324,0.401,0.421,0.653c0.098,0.251,0.146,0.54,0.146,0.864c0,0.275-0.034,0.525-0.104,0.751
				s-0.173,0.427-0.308,0.605c-0.135,0.178-0.301,0.332-0.5,0.463c-0.199,0.131-0.425,0.236-0.678,0.317
				c0.123,0.058,0.238,0.13,0.345,0.215c0.108,0.084,0.209,0.187,0.304,0.308c0.095,0.12,0.185,0.258,0.27,0.412
				c0.083,0.154,0.167,0.328,0.247,0.522l0.69,1.615c0.063,0.16,0.105,0.278,0.127,0.352
				C127.498,213.413,127.508,213.471,127.508,213.513z M125.36,207.951c0-0.271-0.061-0.499-0.184-0.685
				c-0.123-0.186-0.323-0.316-0.602-0.393c-0.084-0.02-0.18-0.038-0.288-0.05c-0.108-0.013-0.257-0.019-0.446-0.019h-0.748v2.325
				h0.849c0.237,0,0.443-0.028,0.621-0.085c0.178-0.057,0.326-0.137,0.444-0.241s0.206-0.227,0.266-0.371
				C125.331,208.289,125.36,208.128,125.36,207.951z"/>
			<path fill="#FFFFFF" d="M135.445,213.107c0.051,0.152,0.082,0.273,0.095,0.361c0.013,0.089-0.004,0.156-0.05,0.2
				c-0.046,0.044-0.129,0.072-0.248,0.083c-0.118,0.01-0.281,0.016-0.488,0.016c-0.215,0-0.383-0.004-0.503-0.01
				s-0.212-0.019-0.276-0.038c-0.063-0.02-0.107-0.045-0.132-0.08c-0.026-0.033-0.047-0.077-0.063-0.132l-0.551-1.647h-3.08
				l-0.519,1.603c-0.017,0.059-0.039,0.108-0.066,0.149c-0.028,0.04-0.072,0.072-0.133,0.095c-0.062,0.023-0.148,0.039-0.26,0.047
				c-0.112,0.009-0.258,0.013-0.44,0.013c-0.194,0-0.347-0.007-0.456-0.019c-0.11-0.013-0.186-0.043-0.229-0.092
				c-0.042-0.049-0.057-0.117-0.044-0.207c0.012-0.088,0.044-0.207,0.095-0.354l2.528-7.272c0.025-0.072,0.055-0.131,0.088-0.175
				c0.034-0.044,0.088-0.078,0.162-0.101c0.074-0.023,0.177-0.038,0.307-0.044c0.131-0.006,0.304-0.009,0.521-0.009
				c0.249,0,0.447,0.003,0.595,0.009c0.147,0.006,0.263,0.021,0.344,0.044c0.083,0.023,0.142,0.058,0.178,0.104
				c0.036,0.046,0.066,0.11,0.092,0.19L135.445,213.107z M131.683,207.095h-0.008l-1.158,3.484h2.325L131.683,207.095z"/>
			<path fill="#FFFFFF" d="M143.352,213.146c0,0.097-0.018,0.184-0.05,0.26c-0.034,0.076-0.079,0.139-0.137,0.19
				c-0.057,0.051-0.125,0.088-0.202,0.111c-0.079,0.023-0.158,0.036-0.238,0.036h-0.709c-0.148,0-0.275-0.015-0.383-0.044
				c-0.108-0.03-0.207-0.084-0.298-0.162c-0.091-0.078-0.178-0.184-0.263-0.317c-0.084-0.133-0.18-0.305-0.285-0.516l-2.041-3.833
				c-0.118-0.228-0.238-0.474-0.36-0.738c-0.123-0.264-0.232-0.521-0.33-0.77h-0.013c0.017,0.305,0.03,0.608,0.038,0.909
				c0.009,0.302,0.013,0.613,0.013,0.935v4.289c0,0.042-0.011,0.081-0.035,0.114c-0.022,0.034-0.063,0.062-0.12,0.086
				c-0.058,0.022-0.134,0.041-0.231,0.054c-0.098,0.012-0.222,0.019-0.375,0.019c-0.147,0-0.27-0.007-0.367-0.019
				c-0.097-0.013-0.173-0.031-0.228-0.054c-0.055-0.023-0.093-0.052-0.114-0.086c-0.021-0.034-0.031-0.072-0.031-0.114v-7.368
				c0-0.198,0.058-0.347,0.174-0.446c0.116-0.1,0.259-0.149,0.428-0.149h0.894c0.16,0,0.295,0.014,0.405,0.041
				c0.11,0.028,0.208,0.073,0.294,0.137c0.088,0.063,0.168,0.151,0.245,0.263c0.076,0.111,0.154,0.25,0.233,0.415l1.597,2.996
				c0.093,0.182,0.184,0.36,0.275,0.536c0.092,0.175,0.179,0.351,0.263,0.525c0.084,0.175,0.167,0.348,0.248,0.517
				c0.08,0.168,0.158,0.338,0.234,0.507h0.006c-0.012-0.296-0.021-0.604-0.028-0.926c-0.006-0.32-0.01-0.626-0.01-0.918v-3.846
				c0-0.042,0.013-0.081,0.038-0.114c0.026-0.034,0.069-0.063,0.127-0.089c0.059-0.025,0.137-0.043,0.234-0.054
				c0.098-0.011,0.222-0.016,0.374-0.016c0.144,0,0.264,0.005,0.362,0.016c0.097,0.01,0.171,0.028,0.225,0.054
				c0.052,0.025,0.09,0.055,0.111,0.089c0.021,0.034,0.031,0.072,0.031,0.114V213.146z"/>
			<path fill="#FFFFFF" d="M151.949,209.509c0,0.752-0.098,1.395-0.294,1.929c-0.197,0.534-0.479,0.971-0.846,1.308
				c-0.368,0.339-0.814,0.587-1.34,0.745c-0.525,0.159-1.152,0.238-1.878,0.238h-1.958c-0.139,0-0.256-0.042-0.352-0.124
				c-0.095-0.083-0.143-0.217-0.143-0.403v-7.146c0-0.187,0.048-0.32,0.143-0.402c0.095-0.083,0.212-0.124,0.352-0.124h2.104
				c0.731,0,1.35,0.085,1.859,0.256c0.509,0.171,0.938,0.425,1.286,0.761c0.348,0.335,0.614,0.75,0.795,1.245
				C151.858,208.287,151.949,208.858,151.949,209.509z M150.226,209.566c0-0.389-0.045-0.75-0.136-1.083
				c-0.091-0.333-0.237-0.623-0.438-0.868c-0.2-0.245-0.458-0.436-0.773-0.573c-0.314-0.137-0.727-0.206-1.238-0.206h-0.843v5.575
				h0.869c0.456,0,0.839-0.059,1.153-0.178c0.312-0.118,0.572-0.296,0.782-0.535c0.209-0.239,0.365-0.536,0.468-0.89
				C150.173,210.453,150.226,210.039,150.226,209.566z"/>
			<path fill="#FFFFFF" d="M159.254,211.271c0,0.292-0.041,0.555-0.121,0.792c-0.08,0.236-0.191,0.446-0.333,0.627
				c-0.142,0.181-0.311,0.338-0.506,0.469c-0.197,0.131-0.413,0.238-0.65,0.323c-0.236,0.085-0.488,0.148-0.757,0.187
				c-0.268,0.041-0.566,0.061-0.896,0.061h-2.179c-0.139,0-0.257-0.042-0.352-0.124c-0.095-0.083-0.143-0.217-0.143-0.403v-7.146
				c0-0.187,0.047-0.32,0.143-0.402c0.095-0.083,0.212-0.124,0.352-0.124h2.059c0.503,0,0.929,0.042,1.277,0.126
				c0.349,0.084,0.642,0.212,0.88,0.383c0.24,0.171,0.422,0.387,0.548,0.649s0.19,0.57,0.19,0.925c0,0.198-0.026,0.386-0.076,0.561
				c-0.051,0.175-0.125,0.334-0.223,0.478c-0.096,0.144-0.216,0.271-0.357,0.38c-0.142,0.11-0.303,0.199-0.485,0.267
				c0.232,0.042,0.447,0.116,0.643,0.221c0.196,0.105,0.367,0.242,0.512,0.409c0.146,0.168,0.262,0.363,0.346,0.586
				C159.211,210.74,159.254,210.992,159.254,211.271z M157.099,207.818c0-0.165-0.025-0.313-0.075-0.443
				c-0.051-0.131-0.127-0.24-0.229-0.327c-0.101-0.086-0.229-0.153-0.383-0.2c-0.154-0.046-0.36-0.07-0.618-0.07h-0.843v2.129h0.932
				c0.241,0,0.434-0.028,0.577-0.086c0.144-0.057,0.262-0.134,0.357-0.234c0.095-0.099,0.166-0.215,0.212-0.349
				C157.076,208.106,157.099,207.966,157.099,207.818z M157.524,211.328c0-0.19-0.032-0.36-0.095-0.51
				c-0.064-0.15-0.157-0.276-0.279-0.377c-0.122-0.101-0.279-0.179-0.469-0.233c-0.19-0.055-0.438-0.083-0.741-0.083h-0.989v2.331
				h1.205c0.232,0,0.428-0.023,0.585-0.073c0.159-0.048,0.296-0.12,0.412-0.215c0.116-0.095,0.207-0.213,0.273-0.355
				C157.491,211.671,157.524,211.509,157.524,211.328z"/>
			<path fill="#FFFFFF" d="M167.964,209.535c0,0.68-0.084,1.288-0.253,1.824c-0.169,0.536-0.42,0.991-0.754,1.366
				c-0.334,0.373-0.747,0.658-1.238,0.855c-0.492,0.196-1.062,0.294-1.708,0.294c-0.638,0-1.194-0.083-1.669-0.25
				c-0.475-0.167-0.872-0.422-1.188-0.764c-0.316-0.342-0.554-0.777-0.712-1.305c-0.159-0.528-0.238-1.152-0.238-1.875
				c0-0.663,0.085-1.259,0.253-1.79c0.169-0.53,0.42-0.981,0.754-1.353c0.334-0.372,0.747-0.656,1.238-0.854
				c0.492-0.199,1.063-0.298,1.713-0.298c0.622,0,1.17,0.082,1.645,0.247c0.476,0.165,0.872,0.417,1.191,0.76
				c0.319,0.341,0.56,0.774,0.722,1.295C167.883,208.209,167.964,208.825,167.964,209.535z M166.216,209.624
				c0-0.431-0.034-0.823-0.102-1.176c-0.067-0.353-0.183-0.654-0.345-0.906c-0.163-0.251-0.379-0.445-0.649-0.583
				c-0.271-0.138-0.608-0.206-1.014-0.206c-0.409,0-0.752,0.077-1.026,0.231c-0.274,0.154-0.496,0.36-0.665,0.617
				c-0.169,0.257-0.289,0.559-0.358,0.903c-0.069,0.344-0.104,0.708-0.104,1.093c0,0.447,0.034,0.849,0.101,1.207
				c0.068,0.357,0.181,0.663,0.342,0.916c0.16,0.253,0.376,0.446,0.646,0.579c0.27,0.133,0.61,0.2,1.02,0.2s0.751-0.077,1.027-0.229
				c0.273-0.151,0.495-0.359,0.665-0.621c0.169-0.262,0.288-0.567,0.358-0.915C166.181,210.386,166.216,210.016,166.216,209.624z"/>
			<path fill="#FFFFFF" d="M174.762,213.101c0.075,0.148,0.125,0.267,0.149,0.355c0.023,0.088,0.01,0.156-0.042,0.202
				c-0.051,0.047-0.142,0.076-0.276,0.089c-0.133,0.012-0.317,0.019-0.554,0.019c-0.199,0-0.354-0.004-0.469-0.013
				c-0.114-0.008-0.204-0.022-0.269-0.042c-0.066-0.018-0.113-0.045-0.143-0.079c-0.029-0.034-0.055-0.076-0.076-0.126l-1.54-2.959
				l-1.533,2.959c-0.025,0.05-0.053,0.092-0.083,0.126c-0.029,0.034-0.077,0.061-0.142,0.079c-0.066,0.019-0.157,0.033-0.273,0.042
				c-0.116,0.009-0.269,0.013-0.459,0.013c-0.219,0-0.389-0.007-0.51-0.019c-0.121-0.013-0.201-0.042-0.244-0.089
				c-0.042-0.046-0.05-0.114-0.025-0.202c0.025-0.088,0.079-0.207,0.159-0.355l1.964-3.58l-1.825-3.363
				c-0.076-0.153-0.128-0.273-0.155-0.365c-0.027-0.09-0.017-0.158,0.032-0.202c0.049-0.044,0.139-0.071,0.27-0.083
				c0.13-0.01,0.317-0.016,0.557-0.016c0.198,0,0.356,0.004,0.472,0.013c0.116,0.009,0.208,0.021,0.275,0.041
				c0.068,0.019,0.116,0.046,0.143,0.079c0.027,0.034,0.054,0.077,0.079,0.127l1.438,2.711l1.4-2.711
				c0.025-0.05,0.051-0.093,0.079-0.127c0.027-0.033,0.071-0.06,0.132-0.079c0.062-0.02,0.146-0.032,0.254-0.041
				c0.107-0.008,0.257-0.013,0.447-0.013c0.211,0,0.378,0.005,0.5,0.016c0.122,0.011,0.207,0.039,0.253,0.085
				c0.046,0.047,0.058,0.115,0.035,0.203c-0.024,0.088-0.071,0.208-0.143,0.361l-1.824,3.345L174.762,213.101z"/>
			<path fill="#FFFFFF" d="M189.473,213.5c0,0.042-0.014,0.081-0.042,0.113c-0.027,0.035-0.073,0.062-0.136,0.083
				c-0.063,0.021-0.148,0.037-0.253,0.05c-0.106,0.012-0.242,0.019-0.406,0.019c-0.16,0-0.294-0.007-0.402-0.019
				c-0.108-0.013-0.193-0.03-0.257-0.05c-0.063-0.021-0.108-0.049-0.136-0.083c-0.028-0.033-0.041-0.071-0.041-0.113v-7.742
				c0-0.042,0.013-0.08,0.041-0.115c0.027-0.033,0.073-0.061,0.139-0.082c0.065-0.021,0.151-0.039,0.256-0.051
				c0.106-0.013,0.239-0.019,0.399-0.019c0.165,0,0.3,0.006,0.406,0.019c0.105,0.013,0.19,0.03,0.253,0.051
				c0.063,0.021,0.109,0.049,0.136,0.082c0.027,0.035,0.042,0.072,0.042,0.115V213.5z"/>
			<path fill="#FFFFFF" d="M198.019,213.146c0,0.097-0.017,0.184-0.051,0.26c-0.033,0.076-0.079,0.139-0.136,0.19
				s-0.125,0.088-0.203,0.111c-0.078,0.023-0.158,0.036-0.237,0.036h-0.709c-0.149,0-0.276-0.015-0.384-0.044
				c-0.108-0.03-0.207-0.084-0.298-0.162s-0.178-0.184-0.263-0.317c-0.085-0.133-0.18-0.305-0.286-0.516l-2.039-3.833
				c-0.119-0.228-0.239-0.474-0.362-0.738c-0.123-0.264-0.232-0.521-0.33-0.77h-0.012c0.017,0.305,0.03,0.608,0.037,0.909
				c0.009,0.302,0.014,0.613,0.014,0.935v4.289c0,0.042-0.012,0.081-0.036,0.114c-0.023,0.034-0.062,0.062-0.12,0.086
				c-0.057,0.022-0.134,0.041-0.231,0.054c-0.098,0.012-0.222,0.019-0.374,0.019c-0.148,0-0.27-0.007-0.367-0.019
				c-0.097-0.013-0.173-0.031-0.229-0.054c-0.055-0.023-0.093-0.052-0.114-0.086c-0.021-0.034-0.032-0.072-0.032-0.114v-7.368
				c0-0.198,0.059-0.347,0.174-0.446c0.116-0.1,0.259-0.149,0.428-0.149h0.894c0.159,0,0.294,0.014,0.404,0.041
				c0.11,0.028,0.208,0.073,0.294,0.137c0.087,0.063,0.168,0.151,0.245,0.263c0.075,0.111,0.153,0.25,0.233,0.415l1.597,2.996
				c0.093,0.182,0.184,0.36,0.275,0.536c0.091,0.175,0.179,0.351,0.263,0.525c0.084,0.175,0.167,0.348,0.248,0.517
				c0.079,0.168,0.158,0.338,0.234,0.507h0.006c-0.012-0.296-0.022-0.604-0.029-0.926c-0.006-0.32-0.009-0.626-0.009-0.918v-3.846
				c0-0.042,0.012-0.081,0.038-0.114c0.025-0.034,0.068-0.063,0.127-0.089c0.058-0.025,0.137-0.043,0.233-0.054
				c0.098-0.011,0.223-0.016,0.375-0.016c0.143,0,0.264,0.005,0.361,0.016c0.097,0.01,0.171,0.028,0.225,0.054
				c0.053,0.025,0.09,0.055,0.111,0.089c0.021,0.034,0.032,0.072,0.032,0.114V213.146z"/>
			<path fill="#FFFFFF" d="M204.664,211.271c0,0.43-0.08,0.809-0.24,1.134c-0.161,0.326-0.378,0.597-0.652,0.814
				c-0.275,0.218-0.596,0.381-0.963,0.491c-0.367,0.11-0.76,0.165-1.179,0.165c-0.282,0-0.545-0.023-0.788-0.069
				c-0.244-0.047-0.458-0.103-0.644-0.168c-0.187-0.065-0.341-0.134-0.466-0.206c-0.125-0.072-0.214-0.135-0.269-0.19
				c-0.055-0.055-0.095-0.134-0.117-0.238c-0.023-0.103-0.035-0.253-0.035-0.446c0-0.13,0.004-0.241,0.013-0.33
				c0.009-0.089,0.022-0.161,0.042-0.215c0.019-0.055,0.044-0.094,0.076-0.118c0.032-0.023,0.069-0.034,0.111-0.034
				c0.059,0,0.142,0.034,0.25,0.104s0.246,0.147,0.415,0.232c0.168,0.084,0.371,0.161,0.605,0.231
				c0.234,0.069,0.505,0.104,0.813,0.104c0.203,0,0.385-0.024,0.545-0.073c0.16-0.049,0.296-0.117,0.409-0.207
				c0.112-0.088,0.197-0.198,0.256-0.33c0.059-0.13,0.089-0.277,0.089-0.437c0-0.186-0.05-0.346-0.152-0.479
				c-0.101-0.133-0.233-0.251-0.396-0.355c-0.162-0.104-0.347-0.2-0.554-0.291c-0.208-0.091-0.42-0.187-0.64-0.289
				c-0.22-0.101-0.433-0.216-0.64-0.345c-0.207-0.129-0.392-0.283-0.554-0.463c-0.163-0.18-0.294-0.392-0.396-0.637
				c-0.102-0.245-0.153-0.539-0.153-0.88c0-0.393,0.073-0.738,0.219-1.036c0.146-0.298,0.342-0.545,0.59-0.741
				c0.247-0.196,0.538-0.343,0.874-0.44s0.691-0.146,1.067-0.146c0.194,0,0.389,0.015,0.583,0.044
				c0.194,0.029,0.376,0.069,0.545,0.12c0.169,0.051,0.319,0.108,0.45,0.171c0.13,0.063,0.217,0.117,0.26,0.159
				c0.041,0.042,0.07,0.079,0.084,0.107c0.015,0.03,0.027,0.069,0.039,0.118c0.01,0.049,0.018,0.109,0.022,0.184
				s0.006,0.165,0.006,0.275c0,0.123-0.002,0.227-0.009,0.31c-0.006,0.085-0.017,0.155-0.032,0.21
				c-0.015,0.055-0.036,0.095-0.063,0.12c-0.028,0.026-0.064,0.038-0.111,0.038s-0.121-0.03-0.221-0.089
				c-0.102-0.059-0.227-0.124-0.375-0.193c-0.148-0.07-0.318-0.133-0.513-0.19c-0.195-0.057-0.409-0.086-0.64-0.086
				c-0.181,0-0.34,0.022-0.476,0.067c-0.135,0.044-0.248,0.105-0.339,0.184c-0.091,0.078-0.158,0.172-0.203,0.282
				c-0.044,0.11-0.067,0.226-0.067,0.349c0,0.181,0.05,0.339,0.149,0.472c0.099,0.133,0.232,0.251,0.399,0.354
				c0.167,0.103,0.355,0.2,0.567,0.292c0.211,0.091,0.426,0.187,0.646,0.288c0.219,0.102,0.435,0.216,0.646,0.345
				s0.399,0.283,0.564,0.462c0.164,0.18,0.297,0.391,0.399,0.633C204.613,210.655,204.664,210.94,204.664,211.271z"/>
			<path fill="#FFFFFF" d="M211.266,206.215c0,0.123-0.005,0.227-0.017,0.314c-0.01,0.086-0.025,0.156-0.047,0.208
				c-0.021,0.053-0.048,0.092-0.079,0.117c-0.031,0.025-0.066,0.039-0.104,0.039h-2.053v6.607c0,0.042-0.013,0.081-0.041,0.113
				c-0.027,0.035-0.073,0.062-0.136,0.083c-0.063,0.021-0.149,0.037-0.257,0.05c-0.108,0.012-0.242,0.019-0.402,0.019
				c-0.161,0-0.295-0.007-0.402-0.019c-0.108-0.013-0.194-0.03-0.257-0.05c-0.063-0.021-0.109-0.049-0.136-0.083
				c-0.028-0.033-0.042-0.071-0.042-0.113v-6.607h-2.053c-0.042,0-0.078-0.013-0.107-0.039c-0.029-0.025-0.055-0.064-0.076-0.117
				c-0.021-0.053-0.037-0.123-0.047-0.208c-0.01-0.087-0.016-0.191-0.016-0.314c0-0.126,0.006-0.235,0.016-0.323
				c0.01-0.089,0.026-0.16,0.047-0.212c0.021-0.053,0.047-0.091,0.076-0.114c0.03-0.023,0.065-0.035,0.107-0.035h5.778
				c0.038,0,0.073,0.012,0.104,0.035c0.031,0.023,0.059,0.061,0.079,0.114c0.022,0.053,0.037,0.124,0.047,0.212
				C211.261,205.98,211.266,206.088,211.266,206.215z"/>
			<path fill="#FFFFFF" d="M217.931,213.107c0.05,0.152,0.082,0.273,0.095,0.361c0.013,0.089-0.004,0.156-0.051,0.2
				c-0.045,0.044-0.128,0.072-0.247,0.083c-0.118,0.01-0.281,0.016-0.487,0.016c-0.215,0-0.383-0.004-0.504-0.01
				c-0.12-0.006-0.212-0.019-0.276-0.038c-0.063-0.02-0.108-0.045-0.133-0.08c-0.025-0.033-0.046-0.077-0.063-0.132l-0.551-1.647
				h-3.079l-0.52,1.603c-0.017,0.059-0.039,0.108-0.067,0.149c-0.027,0.04-0.072,0.072-0.132,0.095
				c-0.062,0.023-0.148,0.039-0.26,0.047c-0.112,0.009-0.258,0.013-0.44,0.013c-0.194,0-0.347-0.007-0.456-0.019
				c-0.11-0.013-0.186-0.043-0.228-0.092c-0.042-0.049-0.058-0.117-0.044-0.207c0.012-0.088,0.044-0.207,0.095-0.354l2.527-7.272
				c0.025-0.072,0.055-0.131,0.088-0.175c0.034-0.044,0.088-0.078,0.162-0.101c0.074-0.023,0.177-0.038,0.307-0.044
				c0.131-0.006,0.304-0.009,0.52-0.009c0.249,0,0.447,0.003,0.596,0.009c0.147,0.006,0.263,0.021,0.345,0.044
				c0.083,0.023,0.141,0.058,0.178,0.104c0.036,0.046,0.066,0.11,0.092,0.19L217.931,213.107z M214.168,207.095h-0.007l-1.159,3.484
				h2.325L214.168,207.095z"/>
			<path fill="#FFFFFF" d="M225.013,211.271c0,0.292-0.041,0.555-0.121,0.792s-0.191,0.446-0.333,0.627
				c-0.141,0.181-0.311,0.338-0.507,0.469c-0.196,0.131-0.413,0.238-0.65,0.323c-0.236,0.085-0.488,0.148-0.756,0.187
				c-0.269,0.041-0.567,0.061-0.897,0.061h-2.179c-0.139,0-0.257-0.042-0.352-0.124c-0.095-0.083-0.143-0.217-0.143-0.403v-7.146
				c0-0.187,0.047-0.32,0.143-0.402c0.095-0.083,0.212-0.124,0.352-0.124h2.059c0.502,0,0.928,0.042,1.276,0.126
				c0.348,0.084,0.643,0.212,0.881,0.383c0.239,0.171,0.422,0.387,0.548,0.649c0.126,0.262,0.19,0.57,0.19,0.925
				c0,0.198-0.025,0.386-0.076,0.561c-0.05,0.175-0.124,0.334-0.223,0.478c-0.096,0.144-0.216,0.271-0.357,0.38
				c-0.142,0.11-0.303,0.199-0.484,0.267c0.232,0.042,0.447,0.116,0.643,0.221c0.196,0.105,0.367,0.242,0.513,0.409
				c0.146,0.168,0.261,0.363,0.346,0.586C224.971,210.74,225.013,210.992,225.013,211.271z M222.858,207.818
				c0-0.165-0.025-0.313-0.075-0.443c-0.05-0.131-0.126-0.24-0.229-0.327c-0.101-0.086-0.229-0.153-0.382-0.2
				c-0.155-0.046-0.361-0.07-0.618-0.07h-0.843v2.129h0.932c0.241,0,0.433-0.028,0.577-0.086c0.144-0.057,0.262-0.134,0.357-0.234
				c0.095-0.099,0.166-0.215,0.212-0.349C222.835,208.106,222.858,207.966,222.858,207.818z M223.283,211.328
				c0-0.19-0.032-0.36-0.095-0.51c-0.063-0.15-0.156-0.276-0.279-0.377c-0.122-0.101-0.278-0.179-0.468-0.233
				c-0.191-0.055-0.438-0.083-0.742-0.083h-0.989v2.331h1.204c0.232,0,0.428-0.023,0.585-0.073c0.159-0.048,0.296-0.12,0.412-0.215
				c0.116-0.095,0.207-0.213,0.273-0.355C223.25,211.671,223.283,211.509,223.283,211.328z"/>
			<path fill="#FFFFFF" d="M233.724,209.535c0,0.68-0.084,1.288-0.253,1.824c-0.169,0.536-0.42,0.991-0.754,1.366
				c-0.334,0.373-0.747,0.658-1.239,0.855c-0.492,0.196-1.061,0.294-1.708,0.294c-0.638,0-1.194-0.083-1.669-0.25
				c-0.475-0.167-0.872-0.422-1.188-0.764c-0.317-0.342-0.554-0.777-0.712-1.305c-0.158-0.528-0.238-1.152-0.238-1.875
				c0-0.663,0.085-1.259,0.253-1.79c0.169-0.53,0.42-0.981,0.754-1.353c0.334-0.372,0.747-0.656,1.239-0.854
				c0.492-0.199,1.063-0.298,1.713-0.298c0.621,0,1.169,0.082,1.645,0.247c0.475,0.165,0.872,0.417,1.19,0.76
				c0.319,0.341,0.56,0.774,0.722,1.295C233.642,208.209,233.724,208.825,233.724,209.535z M231.975,209.624
				c0-0.431-0.033-0.823-0.101-1.176s-0.183-0.654-0.345-0.906c-0.163-0.251-0.379-0.445-0.649-0.583
				c-0.271-0.138-0.608-0.206-1.014-0.206c-0.41,0-0.752,0.077-1.026,0.231c-0.274,0.154-0.496,0.36-0.666,0.617
				c-0.169,0.257-0.289,0.559-0.358,0.903c-0.069,0.344-0.104,0.708-0.104,1.093c0,0.447,0.033,0.849,0.101,1.207
				c0.068,0.357,0.182,0.663,0.343,0.916c0.16,0.253,0.375,0.446,0.646,0.579c0.27,0.133,0.61,0.2,1.02,0.2s0.751-0.077,1.027-0.229
				c0.274-0.151,0.495-0.359,0.665-0.621c0.169-0.262,0.289-0.567,0.358-0.915C231.941,210.386,231.975,210.016,231.975,209.624z"/>
			<path fill="#FFFFFF" d="M240.522,213.101c0.076,0.148,0.125,0.267,0.148,0.355s0.01,0.156-0.042,0.202
				c-0.051,0.047-0.142,0.076-0.275,0.089c-0.133,0.012-0.318,0.019-0.554,0.019c-0.199,0-0.354-0.004-0.469-0.013
				c-0.114-0.008-0.204-0.022-0.269-0.042c-0.065-0.018-0.113-0.045-0.143-0.079c-0.029-0.034-0.055-0.076-0.076-0.126l-1.54-2.959
				l-1.533,2.959c-0.026,0.05-0.053,0.092-0.083,0.126c-0.029,0.034-0.077,0.061-0.142,0.079c-0.066,0.019-0.157,0.033-0.273,0.042
				c-0.116,0.009-0.269,0.013-0.459,0.013c-0.22,0-0.39-0.007-0.51-0.019c-0.12-0.013-0.201-0.042-0.244-0.089
				c-0.042-0.046-0.05-0.114-0.025-0.202c0.025-0.088,0.078-0.207,0.158-0.355l1.964-3.58l-1.825-3.363
				c-0.076-0.153-0.128-0.273-0.155-0.365c-0.027-0.09-0.016-0.158,0.031-0.202c0.049-0.044,0.139-0.071,0.271-0.083
				c0.13-0.01,0.316-0.016,0.557-0.016c0.199,0,0.356,0.004,0.472,0.013c0.116,0.009,0.208,0.021,0.275,0.041
				c0.068,0.019,0.116,0.046,0.143,0.079c0.027,0.034,0.054,0.077,0.08,0.127l1.438,2.711l1.4-2.711
				c0.025-0.05,0.051-0.093,0.08-0.127c0.027-0.033,0.071-0.06,0.132-0.079c0.062-0.02,0.146-0.032,0.254-0.041
				c0.108-0.008,0.256-0.013,0.447-0.013c0.211,0,0.378,0.005,0.5,0.016c0.123,0.011,0.207,0.039,0.253,0.085
				c0.046,0.047,0.058,0.115,0.036,0.203c-0.024,0.088-0.071,0.208-0.143,0.361l-1.824,3.345L240.522,213.101z"/>
		</g>
		<path fill="#009D48" d="M109.408,209.533c0,1.136-0.6,1.705-1.78,1.705c-1.271,0-1.902-0.568-1.902-1.705
			c0-1.133,0.631-1.698,1.902-1.698C108.808,207.835,109.408,208.4,109.408,209.533z"/>
		<path fill="#009D48" d="M182.637,209.533c0,1.136-0.586,1.705-1.765,1.705c-1.281,0-1.91-0.568-1.91-1.705
			c0-1.133,0.628-1.698,1.91-1.698C182.051,207.835,182.637,208.4,182.637,209.533z"/>
	</g>
</g>
</svg>
