<?xml version="1.0" encoding="utf-8"?>
<!-- Generator: Adobe Illustrator 15.1.0, SVG Export Plug-In . SVG Version: 6.00 Build 0)  -->
<!DOCTYPE svg PUBLIC "-//W3C//DTD SVG 1.1//EN" "http://www.w3.org/Graphics/SVG/1.1/DTD/svg11.dtd">
<svg version="1.1" id="Layer_1" xmlns="http://www.w3.org/2000/svg" xmlns:xlink="http://www.w3.org/1999/xlink" x="0px" y="0px"
	 width="88.06px" height="50px" viewBox="0 0 88.06 50" enable-background="new 0 0 88.06 50" xml:space="preserve">
<g>
	<g>
		<g>
			<path fill="#FFFFFF" d="M12.465,19.68c-1.267,0.776-2.195,1.792-2.79,3.053s-0.762,2.724-0.502,4.39
				c0.13,0.814,0.352,1.422,0.673,1.824c0.051,0.074,0.083,0.141,0.093,0.202c-1.646,0.258-2.754-0.11-3.321-1.099
				c-0.209-0.36-0.358-0.82-0.445-1.381c-0.163-1.035,0.001-2.079,0.502-3.14c0.497-1.061,1.199-2.043,2.106-2.945
				c2.082-2.014,4.401-3.221,6.962-3.623l1.235-0.193l-1.192,22.619c-0.15,2.594-0.739,4.629-1.767,6.106
				c-1.027,1.479-2.749,2.408-5.156,2.785c-1.488,0.231-2.684,0.009-3.593-0.672c-0.898-0.683-1.441-1.624-1.629-2.823
				c-0.187-1.199-0.011-2.262,0.532-3.193c0.545-0.927,1.328-1.472,2.344-1.63c1.019-0.16,1.724-0.184,2.112-0.067
				c0.826,0.219,1.306,0.759,1.442,1.624c0.059,0.373,0.061,0.792,0.015,1.264c-0.648-0.374-1.101-0.558-1.362-0.552
				c-0.259,0.005-0.467,0.019-0.616,0.043c-0.714,0.11-1.213,0.431-1.502,0.959c-0.286,0.531-0.391,1.039-0.315,1.531
				c0.128,0.823,0.434,1.376,0.917,1.661c0.481,0.283,0.943,0.392,1.385,0.322c0.833-0.131,1.428-0.478,1.783-1.043
				c0.351-0.563,0.589-1.641,0.712-3.234L12.465,19.68z"/>
			<path fill="#FFFFFF" d="M34.804,25.669c-1.042,1.498-2.729,2.64-5.066,3.417c0.202,2.847-0.255,5.222-1.368,7.125
				c-1.11,1.901-2.625,3.002-4.54,3.302c-2.372,0.372-4.031-0.264-4.991-1.902c-0.336-0.574-0.563-1.233-0.681-1.977
				c-0.113-0.744-0.167-1.507-0.164-2.296c0.002-0.787,0.08-1.608,0.221-2.464c0.327-1.932,0.982-3.562,1.966-4.89
				c1.172-1.581,2.73-2.525,4.676-2.83c2.644-0.415,4.22,1.018,4.734,4.301l0.007,0.031c0.103,0.006,0.276-0.01,0.515-0.048
				c0.553-0.087,1.236-0.374,2.049-0.863c0.813-0.485,1.558-1.055,2.239-1.708L34.804,25.669z M27.194,29.577
				c-0.575-0.055-0.923-0.468-1.047-1.24c-0.122-0.772,0.118-1.355,0.716-1.747c-0.144-0.646-0.318-1.093-0.526-1.337
				c-0.207-0.245-0.552-0.33-1.035-0.253c-0.943,0.147-1.684,1.328-2.22,3.547c-0.538,2.22-0.681,4.138-0.426,5.751
				c0.155,0.997,0.345,1.611,0.567,1.85c0.22,0.237,0.438,0.375,0.65,0.415c0.21,0.04,0.489,0.03,0.831-0.022
				c0.7-0.111,1.302-0.837,1.803-2.18C27.007,33.017,27.235,31.42,27.194,29.577z"/>
			<path fill="#FFFFFF" d="M36.424,33.159c0.143,0.905,0.518,1.31,1.129,1.212c1.086-0.17,1.769-1.208,2.044-3.112l0.542-10.22
				l4.475-0.701l-0.964,18.478c-0.083,2.027-0.652,3.579-1.711,4.65c-0.77,0.777-1.718,1.257-2.842,1.432
				c-1.125,0.177-2.1,0.011-2.933-0.497c-0.82-0.518-1.299-1.202-1.431-2.045c-0.129-0.842-0.098-1.533,0.101-2.068
				c0.198-0.534,0.56-1.052,1.091-1.557c0.516-0.513,1.644-1.185,3.388-2.013l0.101-1.404c-0.858,1.348-2.019,2.136-3.483,2.366
				c-0.928,0.146-1.755-0.023-2.486-0.505c-0.725-0.483-1.189-1.372-1.392-2.667c-0.091-0.582-0.114-1.269-0.075-2.057l0.545-10.218
				l4.438-0.698l-0.569,10.826C36.372,32.633,36.385,32.899,36.424,33.159z M39.254,37.731c-1.04,0.563-1.749,1.05-2.115,1.458
				c-0.666,0.75-0.938,1.513-0.816,2.287c0.038,0.228,0.196,0.44,0.477,0.625c0.281,0.189,0.583,0.257,0.91,0.205
				c0.328-0.05,0.639-0.279,0.936-0.686c0.295-0.406,0.468-1.076,0.517-2.011L39.254,37.731z"/>
			<path fill="#FFFFFF" d="M53.529,31.679c-0.929,2.25-2.292,3.518-4.102,3.802c-0.792,0.124-1.454,0.018-1.99-0.317
				c-0.537-0.337-0.879-0.976-1.026-1.92c-0.202-1.269-0.071-2.55,0.389-3.838c0.353-0.982,0.923-1.734,1.716-2.254
				c0.407-0.275,0.846-0.448,1.319-0.522c0.771-0.121,1.314-0.06,1.638,0.188c0.321,0.248,0.523,0.613,0.598,1.094
				c0.149,0.95-0.104,1.817-0.768,2.603c-0.66,0.785-1.498,1.29-2.514,1.516c0.021,0.317,0.044,0.541,0.063,0.671
				c0.087,0.57,0.249,0.93,0.477,1.082c0.231,0.149,0.525,0.197,0.89,0.139c0.641-0.1,1.157-0.328,1.546-0.68
				c0.395-0.353,0.791-0.845,1.192-1.476L53.529,31.679z M50.767,28.001c-0.064-0.403-0.232-0.582-0.51-0.538
				c-0.405,0.073-0.743,0.495-1.01,1.264c-0.268,0.765-0.421,1.594-0.453,2.484c0.633-0.145,1.149-0.53,1.547-1.161
				C50.739,29.421,50.881,28.738,50.767,28.001z"/>
			<path fill="#FFFFFF" d="M59.424,31.53c0.075,0.477,0.314,0.685,0.724,0.619c0.373-0.058,0.641-0.222,0.806-0.493
				c0.163-0.27,0.302-0.672,0.417-1.209l0.702-0.108c-0.352,1.973-1.068,3.125-2.143,3.463c-0.17,0.049-0.383,0.092-0.637,0.132
				c-0.256,0.038-0.514,0.024-0.785-0.044c-0.739-0.184-1.176-0.701-1.31-1.553c-0.07-0.456-0.061-1.204,0.032-2.242
				c0.094-1.033,0.111-1.744,0.05-2.123c-0.086-0.571-0.333-0.824-0.733-0.76c-0.4,0.061-0.711,0.437-0.926,1.119
				c-0.065,0.193-0.11,0.402-0.137,0.623l-0.292,5.522l-2.401,0.377l0.462-8.612l2.4-0.375l-0.046,0.892
				c0.446-0.705,1.046-1.114,1.8-1.234c0.533-0.082,0.999-0.004,1.394,0.233c0.403,0.238,0.646,0.644,0.736,1.219
				c0.09,0.577,0.099,1.239,0.031,1.996l-0.148,1.675C59.387,31.013,59.389,31.307,59.424,31.53z"/>
			<path fill="#FFFFFF" d="M63.546,34.536c-0.043,1.102-0.346,1.94-0.906,2.511c-0.414,0.418-0.919,0.677-1.518,0.771
				c-0.601,0.095-1.103,0.035-1.513-0.176c-0.406-0.211-0.656-0.588-0.736-1.13c-0.145-0.901,0.338-1.701,1.441-2.393
				c0.3-0.195,0.603-0.367,0.903-0.519l0.465-8.679l2.399-0.375l-0.438,7.99c0.488-0.253,0.865-0.578,1.139-0.97
				c0.272-0.392,0.47-0.974,0.596-1.745l0.699-0.109c-0.21,1.495-0.78,2.548-1.706,3.161c-0.259,0.175-0.511,0.314-0.76,0.42
				L63.546,34.536z M61.167,34.466c-1.03,0.549-1.501,1.108-1.413,1.673c0.036,0.223,0.164,0.372,0.396,0.448
				c0.072,0.02,0.179,0.02,0.316,0c0.135-0.022,0.271-0.167,0.415-0.438c0.142-0.266,0.226-0.663,0.256-1.186L61.167,34.466z
				 M64.165,22.249c0.058,0.368-0.026,0.699-0.248,0.994c-0.224,0.293-0.518,0.468-0.881,0.525
				c-0.364,0.057-0.693-0.022-0.986-0.237c-0.295-0.217-0.473-0.505-0.529-0.868c-0.059-0.363,0.018-0.696,0.231-0.998
				c0.21-0.303,0.498-0.484,0.867-0.542c0.37-0.059,0.704,0.025,1.006,0.243C63.928,21.585,64.107,21.879,64.165,22.249z"/>
			<path fill="#FFFFFF" d="M74.219,25.009c-0.564,0.811-1.475,1.426-2.735,1.845c0.105,1.539-0.141,2.824-0.741,3.852
				c-0.601,1.028-1.42,1.624-2.456,1.785c-1.281,0.2-2.179-0.142-2.696-1.027c-0.184-0.31-0.305-0.666-0.369-1.071
				c-0.062-0.401-0.091-0.813-0.09-1.237c0.005-0.428,0.044-0.873,0.122-1.333c0.176-1.046,0.527-1.926,1.061-2.646
				c0.632-0.854,1.473-1.363,2.531-1.528c1.427-0.224,2.277,0.551,2.558,2.326v0.016c0.056,0.002,0.149-0.007,0.282-0.026
				c0.296-0.048,0.665-0.203,1.106-0.468c0.436-0.263,0.841-0.568,1.209-0.924L74.219,25.009z M70.104,27.12
				c-0.31-0.029-0.498-0.253-0.561-0.668c-0.066-0.418,0.063-0.734,0.384-0.944c-0.077-0.349-0.171-0.591-0.284-0.726
				c-0.113-0.131-0.298-0.178-0.56-0.137c-0.508,0.082-0.91,0.719-1.198,1.919c-0.29,1.198-0.367,2.234-0.229,3.108
				c0.084,0.538,0.186,0.871,0.305,0.999c0.122,0.127,0.242,0.203,0.353,0.225c0.117,0.019,0.265,0.015,0.448-0.013
				c0.377-0.059,0.705-0.454,0.972-1.178C70.005,28.981,70.128,28.12,70.104,27.12z"/>
			<path fill="#FFFFFF" d="M75.095,29.056c0.076,0.49,0.279,0.707,0.61,0.655c0.589-0.092,0.956-0.649,1.105-1.682l0.293-5.522
				l2.417-0.381L79,32.113c-0.044,1.098-0.353,1.936-0.923,2.515c-0.417,0.42-0.929,0.679-1.539,0.773
				c-0.605,0.094-1.133,0.005-1.583-0.27c-0.445-0.28-0.703-0.646-0.773-1.103c-0.074-0.456-0.053-0.83,0.056-1.119
				c0.106-0.288,0.304-0.568,0.586-0.84c0.278-0.279,0.89-0.641,1.83-1.09l0.062-0.759c-0.467,0.729-1.094,1.155-1.889,1.281
				c-0.497,0.078-0.947-0.015-1.341-0.273c-0.391-0.262-0.644-0.743-0.754-1.443c-0.046-0.314-0.058-0.684-0.039-1.111l0.294-5.523
				l2.4-0.375l-0.308,5.85C75.068,28.772,75.075,28.914,75.095,29.056z M76.623,31.528c-0.562,0.303-0.941,0.567-1.143,0.788
				c-0.357,0.407-0.504,0.819-0.438,1.235c0.018,0.125,0.103,0.238,0.255,0.34C75.45,33.992,75.616,34.03,75.79,34
				c0.176-0.028,0.346-0.149,0.504-0.37c0.162-0.222,0.256-0.583,0.281-1.088L76.623,31.528z"/>
		</g>
		<g>
			<path fill="#009D48" d="M65.145,43.287c0,0.468-0.246,0.703-0.73,0.703c-0.527,0-0.792-0.235-0.792-0.703
				c0-0.469,0.265-0.703,0.792-0.703C64.898,42.584,65.145,42.818,65.145,43.287z"/>
			<path fill="#009D48" d="M78.906,40.301c0,0.078-0.021,0.137-0.06,0.177c-0.488,0.682-1.036,1.316-1.644,1.899
				c-0.835,0.784-1.539,1.174-2.105,1.174c-0.917,0-1.375-1.016-1.375-3.047c0-0.311,0.008-0.662,0.025-1.052
				c-0.698,0.624-1.49,1.747-2.367,3.366c-0.294,0.546-0.613,0.82-0.968,0.82c-0.116,0-0.202-0.04-0.261-0.117
				c-0.059-0.217-0.09-0.488-0.09-0.821c0-0.565,0.127-1.6,0.382-3.102c0.137-0.76,0.204-1.249,0.204-1.463
				c0-0.158-0.027-0.234-0.086-0.234c-0.332,0.293-0.871,0.927-1.61,1.903c-0.8,1.052-1.659,2.294-2.576,3.718
				c-0.116,0.175-0.213,0.262-0.292,0.262c-0.158,0-0.235-0.175-0.235-0.527c0-0.094,0.008-0.174,0.029-0.232
				c0.451-1.053,0.908-2.539,1.377-4.45c0.037-0.274,0.115-0.665,0.23-1.17c0.04-0.138,0.173-0.275,0.396-0.409
				c0.225-0.138,0.415-0.206,0.573-0.206c0.137,0,0.204,0.06,0.204,0.173c0,0.197-0.456,1.681-1.376,4.451
				c0.704-0.935,1.423-1.902,2.167-2.898c0.232-0.312,0.586-0.782,1.052-1.406c0.295-0.351,0.599-0.525,0.911-0.525
				s0.468,0.174,0.468,0.525c0,0.256-0.071,0.756-0.206,1.508c-0.14,0.751-0.292,1.849-0.47,3.294
				c0.547-0.78,1.396-1.922,2.545-3.425c0.314-0.371,0.625-0.557,0.941-0.557c0.292,0,0.438,0.187,0.438,0.557
				c0,0.312-0.049,0.776-0.146,1.391c-0.096,0.614-0.147,1.078-0.147,1.388c0,1.018,0.264,1.525,0.793,1.525
				c0.741,0,1.688-0.819,2.839-2.459c0.118-0.196,0.213-0.294,0.293-0.294C78.857,40.037,78.906,40.124,78.906,40.301z"/>
			<path fill="#009D48" d="M84.731,40.358c0,0.04-0.021,0.099-0.06,0.177c-0.488,0.762-1.217,1.463-2.195,2.109
				c-1.035,0.682-1.979,1.023-2.843,1.023c-1.227,0-1.841-0.771-1.841-2.314c0-1.013,0.438-2.125,1.316-3.336
				c0.937-1.288,1.903-1.932,2.899-1.932c0.195,0,0.367,0.088,0.511,0.262c0.147,0.176,0.221,0.362,0.221,0.557
				c0,0.606-0.459,1.338-1.376,2.195c-0.821,0.76-1.572,1.269-2.255,1.523c-0.135,0.486-0.204,0.897-0.204,1.228
				c0,0.802,0.362,1.199,1.084,1.199c0.683,0,1.453-0.279,2.312-0.847c0.742-0.487,1.376-1.043,1.904-1.668
				c0.136-0.195,0.272-0.292,0.409-0.292C84.69,40.243,84.731,40.281,84.731,40.358z M81.861,37.256
				c0-0.235-0.117-0.352-0.352-0.352c-0.291,0-0.722,0.45-1.289,1.347c-0.488,0.76-0.787,1.358-0.907,1.786
				c0.509-0.212,1.036-0.595,1.582-1.14C81.539,38.27,81.861,37.723,81.861,37.256z"/>
		</g>
		<g>
			<g>
				<g>
					<path fill="#009D48" d="M79.838,12.562l-0.896-9.298c-0.13-1.35-1.278-2.374-2.638-2.347L55.208,1.352
						c-1.02,0.019-1.843,0.834-1.878,1.854l-0.455,13.518c-0.024,0.788,0.31,1.541,0.904,2.055c0.592,0.514,1.393,0.729,2.165,0.586
						l8.533-1.568l3.587,4.445c0.095,0.116,0.241,0.183,0.395,0.177c0.15-0.01,0.289-0.09,0.371-0.217l3.866-5.913l5.027-0.923
						C79.048,15.121,79.966,13.904,79.838,12.562z M73.545,11.178c-1.285,3.409-5.175,4.66-7.827,3.566
						c-2.218-0.915-3.895-4.053-2.935-6.839C65.217,0.852,76.384,3.623,73.545,11.178z M77.092,3.671
						c-0.268,0.695-1.221,0.928-1.845,0.706c-0.528-0.186-0.926-0.815-0.703-1.373c0.324-0.81,1.308-0.937,2.008-0.621
						c0.201,0.057,0.358,0.24,0.47,0.421C77.192,3.079,77.203,3.37,77.092,3.671z"/>
					<path fill="#009D48" d="M71.57,6.573c-0.489-0.476-1.12-0.902-1.806-0.875C67.303,5.402,64.3,6.834,63.887,9.79
						c-0.285,2.035,1.459,3.656,3.26,3.715c2.158,0.067,4.986-1.668,5.298-4.191C72.585,8.211,72.314,7.289,71.57,6.573z
						 M65.862,9.575c-0.415,0.343-0.928,0.453-1.001,0.112c-0.113-0.496,0.472-1.281,1.056-1.717
						c0.152-0.137,0.323-0.198,0.471-0.229c0.219-0.041,0.347,0.035,0.39,0.215C66.884,8.374,66.358,9.169,65.862,9.575z"/>
				</g>
			</g>
		</g>
	</g>
</g>
</svg>
