<?xml version="1.0" encoding="utf-8"?>
<!-- Generator: Adobe Illustrator 15.1.0, SVG Export Plug-In . SVG Version: 6.00 Build 0)  -->
<!DOCTYPE svg PUBLIC "-//W3C//DTD SVG 1.1//EN" "http://www.w3.org/Graphics/SVG/1.1/DTD/svg11.dtd">
<svg version="1.1" id="Layer_1" xmlns="http://www.w3.org/2000/svg" xmlns:xlink="http://www.w3.org/1999/xlink" x="0px" y="0px"
	 width="1000px" height="575px" viewBox="0 0 1000 575" enable-background="new 0 0 1000 575" xml:space="preserve">
<g>
	<g>
		<g>
			<g>
				<g>
					<g>
						<g>
							<rect x="-0.029" y="-0.015" fill="#060808" width="998.837" height="575.026"/>
							<g>
								<g>
									<g opacity="0.09">
										<polygon fill="#FFFFFF" points="506.415,291.447 998.779,178.231 998.779,190.487 										"/>
										<polygon fill="#FFFFFF" points="506.386,291.547 998.779,203.875 998.779,215.824 										"/>
										<polygon fill="#FFFFFF" points="506.494,291.611 998.779,228.415 998.779,240.178 										"/>
										<polygon fill="#FFFFFF" points="506.438,291.71 998.779,253.072 998.779,264.662 										"/>
										<polygon fill="#FFFFFF" points="506.55,291.83 998.779,276.686 998.779,288.232 										"/>
										<polygon fill="#FFFFFF" points="998.779,312.536 506.47,291.93 998.779,300.988 										"/>
										<polygon fill="#FFFFFF" points="998.779,335.367 506.55,292.021 998.779,323.721 										"/>
										<polygon fill="#FFFFFF" points="998.779,360.064 506.47,292.109 998.779,348.294 										"/>
										<polygon fill="#FFFFFF" points="998.779,384.706 506.55,292.23 998.779,372.684 										"/>
										<polygon fill="#FFFFFF" points="998.779,410.494 506.47,292.305 998.779,398.145 										"/>
										<polygon fill="#FFFFFF" points="998.779,440.312 507.863,291.8 998.779,427.513 										"/>
										<polygon fill="#FFFFFF" points="998.779,468.067 507.779,291.877 998.779,454.719 										"/>
										<polygon fill="#FFFFFF" points="998.779,496.56 507.811,291.999 998.779,482.577 										"/>
										<polygon fill="#FFFFFF" points="998.779,527.266 507.7,292.043 998.779,512.455 										"/>
										<polygon fill="#FFFFFF" points="998.779,558.91 507.73,292.186 998.779,543.126 										"/>
										<polygon fill="#FFFFFF" points="967.906,575 507.615,292.212 995.355,575 										"/>
										<polygon fill="#FFFFFF" points="919.558,575 507.615,292.352 943.321,575 										"/>
										<polygon fill="#FFFFFF" points="874.492,575 507.479,292.396 895.168,575 										"/>
										<polygon fill="#FFFFFF" points="835.608,575 507.479,292.52 853.908,575 										"/>
										<polygon fill="#FFFFFF" points="800.169,575 507.342,292.536 816.528,575 										"/>
										<polygon fill="#FFFFFF" points="765.724,575 508.85,292.777 780.347,575 										"/>
										<polygon fill="#FFFFFF" points="736.813,575 508.712,292.801 750.24,575 										"/>
										<polygon fill="#FFFFFF" points="710.65,575 508.685,292.922 723.087,575 										"/>
										<polygon fill="#FFFFFF" points="685.763,575 508.547,292.922 697.361,575 										"/>
										<polygon fill="#FFFFFF" points="663.041,575 508.492,293.042 674.006,575 										"/>
										<polygon fill="#FFFFFF" points="640.839,575 508.382,293.011 651.254,575 										"/>
										<polygon fill="#FFFFFF" points="620.989,575 508.271,293.134 630.964,575 										"/>
										<polygon fill="#FFFFFF" points="600.529,575 508.162,293.111 610.157,575 										"/>
										<polygon fill="#FFFFFF" points="581.146,575 508.081,293.197 590.474,575 										"/>
										<polygon fill="#FFFFFF" points="561.813,575 507.948,293.158 570.914,575 										"/>
										<polygon fill="#FFFFFF" points="541.062,575 509.065,294.057 549.952,575 										"/>
										<polygon fill="#FFFFFF" points="522.409,575 508.955,294.007 531.243,575 										"/>
										<polygon fill="#FFFFFF" points="504.228,575 508.85,294.104 513.026,575 										"/>
										<polygon fill="#FFFFFF" points="485.63,575 508.735,294.057 494.47,575 										"/>
										<polygon fill="#FFFFFF" points="467.505,575 508.603,294.104 476.388,575 										"/>
										<polygon fill="#FFFFFF" points="448.498,575 508.518,294.033 457.547,575 										"/>
										<polygon fill="#FFFFFF" points="430.398,575 508.382,294.104 439.645,575 										"/>
										<polygon fill="#FFFFFF" points="410.488,575 508.305,294.033 420.011,575 										"/>
										<polygon fill="#FFFFFF" points="390.288,575 508.133,294.057 400.16,575 										"/>
										<polygon fill="#FFFFFF" points="368.845,575 508.081,293.98 379.153,575 										"/>
										<polygon fill="#FFFFFF" points="343.743,575 510.434,292.748 354.738,575 										"/>
										<polygon fill="#FFFFFF" points="319.519,575 510.38,292.68 331.195,575 										"/>
										<polygon fill="#FFFFFF" points="294.167,575 510.239,292.706 306.665,575 										"/>
										<polygon fill="#FFFFFF" points="266.3,575 510.184,292.585 279.812,575 										"/>
										<polygon fill="#FFFFFF" points="236.962,575 510.014,292.585 251.671,575 										"/>
										<polygon fill="#FFFFFF" points="203.684,575 509.994,292.495 219.901,575 										"/>
										<polygon fill="#FFFFFF" points="169.262,575 509.857,292.471 187.228,575 										"/>
										<polygon fill="#FFFFFF" points="127.861,575 509.837,292.371 148.171,575 										"/>
										<polygon fill="#FFFFFF" points="81.619,575 509.668,292.326 104.835,575 										"/>
										<polygon fill="#FFFFFF" points="26.88,575 509.668,292.23 53.975,575 										"/>
										<polygon fill="#FFFFFF" points="0.026,567.521 0.026,551.241 509.205,293.463 										"/>
										<polygon fill="#FFFFFF" points="0.026,533.851 0.026,518.588 509.205,293.37 										"/>
										<polygon fill="#FFFFFF" points="0.026,502.85 0.026,488.398 509.065,293.32 										"/>
										<polygon fill="#FFFFFF" points="0.026,472.825 0.026,459.058 509.065,293.197 										"/>
										<polygon fill="#FFFFFF" points="0.026,445.07 0.026,431.837 508.955,293.134 										"/>
										<polygon fill="#FFFFFF" points="0.026,417.478 0.026,404.706 508.983,293.042 										"/>
										<polygon fill="#FFFFFF" points="0.026,392.518 0.026,380.068 508.873,292.943 										"/>
										<polygon fill="#FFFFFF" points="0.026,366.445 0.026,354.23 508.929,292.85 										"/>
										<polygon fill="#FFFFFF" points="0.026,341.355 0.026,329.33 508.825,292.748 										"/>
										<polygon fill="#FFFFFF" points="0.026,316.078 0.026,304.133 508.873,292.659 										"/>
										<polygon fill="#FFFFFF" points="507.7,293.484 0.001,288.703 0.026,276.802 										"/>
										<polygon fill="#FFFFFF" points="507.779,293.387 0.001,263.598 0.026,251.632 										"/>
										<polygon fill="#FFFFFF" points="507.671,293.301 0.026,238.825 0.026,226.709 										"/>
										<polygon fill="#FFFFFF" points="507.779,293.197 0.001,213.178 0.026,200.83 										"/>
										<polygon fill="#FFFFFF" points="507.7,293.087 0.001,187.832 0.026,175.176 										"/>
										<polygon fill="#FFFFFF" points="507.811,293.011 0.026,160.979 0.026,147.886 										"/>
										<polygon fill="#FFFFFF" points="507.756,292.895 0.001,135.046 0.026,121.458 										"/>
										<polygon fill="#FFFFFF" points="507.863,292.823 0.001,106.123 0.026,91.907 										"/>
										<polygon fill="#FFFFFF" points="507.832,292.706 0.001,76.425 0.026,61.429 										"/>
										<polygon fill="#FFFFFF" points="507.919,292.659 0.026,44.392 0.026,28.439 										"/>
										<polygon fill="#FFFFFF" points="506.415,292.801 0.001,5.799 0.026,0 19.111,0 										"/>
										<polygon fill="#FFFFFF" points="506.524,292.748 48.948,0 73.967,0 										"/>
										<polygon fill="#FFFFFF" points="506.524,292.634 98.684,0 120.476,0 										"/>
										<polygon fill="#FFFFFF" points="506.664,292.585 143.009,0 162.204,0 										"/>
										<polygon fill="#FFFFFF" points="506.664,292.471 181.071,0 198.3,0 										"/>
										<polygon fill="#FFFFFF" points="506.799,292.449 216.346,0 231.908,0 										"/>
										<polygon fill="#FFFFFF" points="506.848,292.326 246.319,0 260.615,0 										"/>
										<polygon fill="#FFFFFF" points="506.964,292.305 275.796,0 288.998,0 										"/>
										<polygon fill="#FFFFFF" points="507.012,292.186 302.538,0 314.843,0 										"/>
										<polygon fill="#FFFFFF" points="507.156,292.212 328.018,0 339.586,0 										"/>
										<polygon fill="#FFFFFF" points="506.524,294.407 351.483,0 362.473,0 										"/>
										<polygon fill="#FFFFFF" points="506.635,294.292 373.935,0 384.43,0 										"/>
										<polygon fill="#FFFFFF" points="506.739,294.316 395.834,0 405.951,0 										"/>
										<polygon fill="#FFFFFF" points="505.52,293.559 418.476,0 428.205,0 										"/>
										<polygon fill="#FFFFFF" points="505.62,293.581 438.849,0 448.363,0 										"/>
										<polygon fill="#FFFFFF" points="505.733,293.484 458.372,0 467.73,0 										"/>
										<polygon fill="#FFFFFF" points="505.813,293.532 478.006,0 487.219,0 										"/>
										<polygon fill="#FFFFFF" points="505.947,293.463 496.815,0 506.031,0 										"/>
										<polygon fill="#FFFFFF" points="506.055,293.505 516.2,0 525.391,0 										"/>
										<polygon fill="#FFFFFF" points="506.195,293.438 534.36,0 543.634,0 										"/>
										<polygon fill="#FFFFFF" points="506.277,293.505 553.971,0 563.4,0 										"/>
										<polygon fill="#FFFFFF" points="506.415,293.463 573.515,0 583.115,0 										"/>
										<polygon fill="#FFFFFF" points="506.494,293.532 593.886,0 603.76,0 										"/>
										<polygon fill="#FFFFFF" points="505.947,292.305 617.08,0 627.303,0 										"/>
										<polygon fill="#FFFFFF" points="506.002,292.396 638.866,0 649.562,0 										"/>
										<polygon fill="#FFFFFF" points="506.159,292.352 661.211,0 672.444,0 										"/>
										<polygon fill="#FFFFFF" points="506.226,292.449 685.216,0 697.112,0 										"/>
										<polygon fill="#FFFFFF" points="506.386,292.449 709.913,0 722.597,0 										"/>
										<polygon fill="#FFFFFF" points="506.415,292.52 737.116,0 750.81,0 										"/>
										<polygon fill="#FFFFFF" points="506.577,292.536 764.57,0 779.357,0 										"/>
										<polygon fill="#FFFFFF" points="506.635,292.634 796.508,0 812.777,0 										"/>
										<polygon fill="#FFFFFF" points="506.771,292.659 830.96,0 849.036,0 										"/>
										<polygon fill="#FFFFFF" points="506.799,292.748 870.176,0 890.496,0 										"/>
										<polygon fill="#FFFFFF" points="506.328,292.371 911.245,0 934.321,0 										"/>
										<polygon fill="#FFFFFF" points="506.328,292.471 961.666,0 988.441,0 										"/>
										<polygon fill="#FFFFFF" points="506.494,292.536 998.779,10.03 998.779,26.357 										"/>
										<polygon fill="#FFFFFF" points="506.47,292.634 998.779,43.728 998.779,58.991 										"/>
										<polygon fill="#FFFFFF" points="506.635,292.706 998.779,74.676 998.779,89.045 										"/>
										<polygon fill="#FFFFFF" points="506.605,292.801 998.779,104.473 998.779,118.102 										"/>
										<polygon fill="#FFFFFF" points="506.577,292.706 998.779,128.957 998.779,142.069 										"/>
										<polygon fill="#FFFFFF" points="506.524,292.801 998.779,156.245 998.779,168.88 										"/>
									</g>
								</g>
							</g>
						</g>
					</g>
				</g>
			</g>
		</g>
	</g>
</g>
<g>
	<g>
		<g>
			<g>
				<path stroke="#000000" d="M318.928,220.278c-6.952,4.255-12.049,9.833-15.308,16.749c-3.258,6.914-4.183,14.938-2.757,24.083
					c0.717,4.465,1.932,7.801,3.696,10.004c0.271,0.408,0.451,0.771,0.503,1.108c-9.028,1.407-15.105-0.607-18.209-6.034
					c-1.149-1.966-1.972-4.489-2.445-7.568c-0.893-5.688,0.006-11.418,2.756-17.236c2.727-5.82,6.577-11.21,11.555-16.154
					c11.422-11.051,24.144-17.673,38.195-19.874l6.776-1.061l-6.546,124.09c-0.823,14.219-4.053,25.393-9.697,33.498
					c-5.627,8.12-15.07,13.211-28.28,15.28c-8.167,1.261-14.727,0.043-19.711-3.688c-4.93-3.742-7.905-8.906-8.938-15.492
					c-1.025-6.579-0.059-12.41,2.914-17.512c2.997-5.086,7.286-8.072,12.867-8.947c5.579-0.867,9.453-0.998,11.586-0.375
					c4.53,1.218,7.16,4.168,7.905,8.912c0.32,2.049,0.337,4.347,0.082,6.938c-3.555-2.048-6.036-3.048-7.474-3.028
					c-1.417,0.032-2.558,0.105-3.376,0.235c-3.919,0.612-6.653,2.366-8.246,5.265c-1.564,2.911-2.145,5.697-1.72,8.4
					c0.698,4.512,2.375,7.55,5.025,9.111c2.64,1.551,5.171,2.147,7.592,1.771c4.578-0.715,7.836-2.625,9.786-5.726
					c1.927-3.09,3.235-9.004,3.907-17.74L318.928,220.278z"/>
				<path stroke="#000000" d="M441.469,253.13c-5.717,8.217-14.974,14.486-27.792,18.749c1.106,15.622-1.406,28.653-7.502,39.096
					c-6.091,10.424-14.404,16.467-24.906,18.108c-13.009,2.041-22.118-1.438-27.38-10.44c-1.843-3.143-3.085-6.76-3.732-10.836
					c-0.622-4.08-0.914-8.266-0.901-12.6c0.013-4.312,0.438-8.817,1.212-13.521c1.797-10.599,5.388-19.542,10.783-26.824
					c6.434-8.676,14.984-13.849,25.657-15.524c14.5-2.27,23.15,5.591,25.968,23.592l0.038,0.171c0.563,0.03,1.512-0.052,2.822-0.257
					c3.03-0.492,6.779-2.055,11.24-4.743c4.462-2.66,8.548-5.791,12.286-9.368L441.469,253.13z M399.729,274.571
					c-3.159-0.308-5.067-2.57-5.748-6.807c-0.665-4.236,0.651-7.426,3.933-9.589c-0.793-3.535-1.75-5.987-2.886-7.33
					c-1.137-1.346-3.032-1.81-5.678-1.392c-5.169,0.813-9.237,7.286-12.177,19.461c-2.956,12.179-3.739,22.707-2.339,31.553
					c0.852,5.465,1.892,8.829,3.113,10.143c1.206,1.31,2.4,2.065,3.562,2.277c1.159,0.209,2.684,0.163,4.563-0.121
					c3.837-0.608,7.14-4.593,9.89-11.963C398.7,293.438,399.948,284.676,399.729,274.571z"/>
				<path stroke="#000000" d="M450.36,294.218c0.781,4.964,2.84,7.187,6.193,6.651c5.952-0.938,9.695-6.631,11.212-17.079
					l2.978-56.063l24.543-3.844l-5.277,101.369c-0.458,11.117-3.579,19.637-9.394,25.512c-4.22,4.266-9.429,6.902-15.598,7.86
					c-6.167,0.964-11.516,0.056-16.085-2.728c-4.503-2.851-7.132-6.592-7.854-11.225c-0.708-4.615-0.533-8.406,0.556-11.342
					c1.083-2.93,3.072-5.779,5.986-8.539c2.825-2.818,9.018-6.503,18.58-11.047l0.56-7.704c-4.71,7.399-11.072,11.714-19.112,12.985
					c-5.082,0.795-9.625-0.133-13.631-2.771c-3.979-2.653-6.529-7.532-7.641-14.64c-0.494-3.186-0.626-6.955-0.408-11.28
					l2.983-56.059l24.351-3.828l-3.118,59.394C450.076,291.338,450.144,292.797,450.36,294.218z M465.883,319.302
					c-5.707,3.091-9.593,5.765-11.604,7.995c-3.648,4.12-5.142,8.309-4.474,12.557c0.204,1.246,1.07,2.412,2.608,3.429
					c1.541,1.036,3.202,1.405,4.997,1.122c1.796-0.273,3.505-1.526,5.132-3.762c1.623-2.232,2.568-5.9,2.834-11.031L465.883,319.302
					z"/>
				<path stroke="#000000" d="M544.196,286.097c-5.095,12.346-12.578,19.301-22.502,20.856c-4.35,0.683-7.98,0.107-10.919-1.74
					c-2.942-1.85-4.827-5.355-5.63-10.531c-1.104-6.955-0.387-13.991,2.134-21.057c1.93-5.389,5.066-9.511,9.412-12.367
					c2.23-1.51,4.646-2.46,7.232-2.865c4.229-0.656,7.217-0.334,8.98,1.036c1.769,1.361,2.876,3.357,3.284,6.006
					c0.821,5.212-0.571,9.967-4.211,14.275c-3.624,4.302-8.22,7.081-13.79,8.321c0.116,1.736,0.242,2.963,0.349,3.674
					c0.476,3.129,1.364,5.105,2.618,5.938c1.267,0.816,2.877,1.084,4.881,0.764c3.518-0.547,6.348-1.799,8.482-3.73
					c2.171-1.93,4.336-4.635,6.54-8.099L544.196,286.097z M529.041,265.928c-0.354-2.222-1.28-3.198-2.799-2.96
					c-2.224,0.404-4.077,2.718-5.544,6.941c-1.463,4.199-2.306,8.74-2.48,13.625c3.473-0.795,6.307-2.905,8.491-6.37
					C528.894,273.715,529.668,269.96,529.041,265.928z"/>
				<path stroke="#000000" d="M576.535,285.281c0.408,2.62,1.725,3.754,3.972,3.398c2.042-0.318,3.521-1.221,4.419-2.705
					c0.896-1.477,1.653-3.691,2.287-6.625l3.853-0.599c-1.933,10.831-5.862,17.146-11.754,18.998
					c-0.938,0.263-2.104,0.505-3.499,0.731c-1.402,0.211-2.818,0.127-4.305-0.25c-4.054-1.006-6.448-3.85-7.184-8.518
					c-0.383-2.504-0.334-6.614,0.179-12.306c0.517-5.667,0.611-9.562,0.275-11.644c-0.478-3.134-1.828-4.519-4.03-4.165
					c-2.199,0.333-3.904,2.391-5.076,6.138c-0.358,1.053-0.608,2.196-0.757,3.413l-1.6,30.301l-13.173,2.069l2.536-47.25
					l13.169-2.059l-0.253,4.892c2.441-3.856,5.733-6.104,9.869-6.765c2.926-0.456,5.479-0.029,7.646,1.277
					c2.213,1.309,3.543,3.531,4.035,6.684c0.496,3.164,0.541,6.804,0.177,10.955l-0.816,9.188
					C576.331,282.448,576.341,284.056,576.535,285.281z"/>
				<path stroke="#000000" d="M599.148,301.777c-0.236,6.048-1.896,10.632-4.971,13.768c-2.271,2.303-5.045,3.717-8.33,4.23
					c-3.299,0.518-6.05,0.19-8.302-0.971c-2.222-1.15-3.598-3.217-4.038-6.199c-0.792-4.941,1.859-9.324,7.907-13.129
					c1.651-1.061,3.311-2,4.951-2.844l2.555-47.61l13.166-2.055l-2.407,43.828c2.68-1.387,4.746-3.171,6.251-5.319
					c1.493-2.156,2.579-5.342,3.268-9.568l3.831-0.609c-1.151,8.208-4.275,13.991-9.36,17.345c-1.416,0.957-2.8,1.721-4.166,2.301
					L599.148,301.777z M586.098,301.389c-5.651,3.019-8.232,6.084-7.751,9.178c0.196,1.224,0.898,2.039,2.174,2.455
					c0.396,0.115,0.981,0.115,1.732,0c0.741-0.114,1.495-0.904,2.281-2.399c0.771-1.47,1.232-3.64,1.397-6.507L586.098,301.389z
					 M602.541,234.364c0.31,2.028-0.146,3.838-1.357,5.454c-1.229,1.609-2.84,2.565-4.834,2.881
					c-1.994,0.315-3.805-0.116-5.41-1.297c-1.621-1.188-2.594-2.772-2.902-4.768c-0.322-1.989,0.102-3.817,1.268-5.468
					c1.148-1.665,2.73-2.656,4.76-2.979c2.028-0.32,3.86,0.136,5.519,1.335C601.238,230.728,602.227,232.345,602.541,234.364z"/>
				<path stroke="#000000" d="M657.698,249.513c-3.094,4.447-8.087,7.824-15.003,10.12c0.572,8.447-0.773,15.495-4.063,21.134
					c-3.295,5.638-7.797,8.906-13.474,9.79c-7.023,1.098-11.953-0.779-14.786-5.635c-1.009-1.696-1.675-3.654-2.025-5.872
					c-0.329-2.197-0.497-4.466-0.493-6.789c0.03-2.348,0.24-4.781,0.665-7.312c0.971-5.73,2.896-10.568,5.826-14.513
					c3.474-4.682,8.084-7.475,13.884-8.383c7.827-1.231,12.488,3.023,14.029,12.761v0.089c0.307,0.011,0.822-0.041,1.548-0.141
					c1.617-0.267,3.646-1.116,6.065-2.57c2.392-1.439,4.615-3.117,6.636-5.064L657.698,249.513z M635.127,261.095
					c-1.7-0.167-2.732-1.391-3.077-3.676c-0.365-2.292,0.345-4.026,2.108-5.171c-0.427-1.921-0.942-3.242-1.562-3.981
					c-0.622-0.719-1.633-0.975-3.076-0.75c-2.783,0.45-4.989,3.952-6.569,10.528c-1.592,6.571-2.011,12.257-1.263,17.054
					c0.465,2.953,1.021,4.779,1.68,5.482c0.662,0.702,1.318,1.106,1.935,1.225c0.642,0.108,1.453,0.089,2.454-0.067
					c2.074-0.322,3.869-2.488,5.336-6.462C634.589,271.302,635.255,266.574,635.127,261.095z"/>
				<path stroke="#000000" d="M662.506,271.719c0.412,2.683,1.53,3.869,3.347,3.582c3.226-0.495,5.24-3.56,6.061-9.217l1.612-30.3
					l13.255-2.086l-2.853,54.784c-0.246,6.016-1.94,10.621-5.064,13.795c-2.288,2.306-5.092,3.726-8.439,4.24
					c-3.322,0.518-6.224,0.033-8.689-1.476c-2.445-1.532-3.86-3.556-4.239-6.06c-0.405-2.494-0.29-4.539,0.309-6.131
					c0.58-1.58,1.666-3.117,3.213-4.611c1.525-1.521,4.883-3.517,10.04-5.976l0.335-4.158c-2.562,3.991-5.999,6.332-10.36,7.013
					c-2.72,0.432-5.191-0.074-7.354-1.494c-2.146-1.438-3.53-4.067-4.141-7.921c-0.252-1.721-0.315-3.743-0.211-6.086l1.614-30.296
					l13.166-2.07l-1.688,32.099C662.356,270.157,662.394,270.932,662.506,271.719z M670.884,285.274
					c-3.08,1.666-5.162,3.108-6.271,4.32c-1.959,2.234-2.758,4.496-2.403,6.773c0.099,0.691,0.566,1.307,1.404,1.869
					c0.836,0.551,1.75,0.754,2.702,0.602c0.969-0.146,1.899-0.827,2.765-2.031c0.893-1.215,1.405-3.193,1.543-5.97L670.884,285.274z
					"/>
			</g>
			<g>
				<path stroke="#000000" d="M607.916,349.779c0,2.574-1.346,3.854-4.009,3.854c-2.891,0-4.343-1.279-4.343-3.854
					c0-2.57,1.452-3.85,4.343-3.85C606.571,345.93,607.916,347.209,607.916,349.779z"/>
				<path stroke="#000000" d="M683.416,333.396c0,0.436-0.119,0.758-0.327,0.974c-2.687,3.743-5.684,7.226-9.018,10.424
					c-4.585,4.306-8.444,6.44-11.551,6.44c-5.027,0-7.537-5.575-7.537-16.715c0-1.703,0.043-3.637,0.131-5.769
					c-3.824,3.411-8.169,9.565-12.982,18.457c-1.611,3.001-3.367,4.5-5.317,4.5c-0.633,0-1.104-0.224-1.423-0.638
					c-0.327-1.191-0.498-2.68-0.498-4.504c0-3.109,0.696-8.782,2.097-17.021c0.747-4.181,1.12-6.848,1.12-8.03
					c0-0.865-0.148-1.281-0.483-1.281c-1.813,1.604-4.769,5.084-8.827,10.437c-4.39,5.772-9.102,12.583-14.13,20.399
					c-0.639,0.96-1.173,1.436-1.606,1.436c-0.865,0-1.284-0.969-1.284-2.902c0-0.506,0.041-0.949,0.159-1.268
					c2.475-5.779,4.979-13.93,7.558-24.416c0.203-1.503,0.63-3.645,1.264-6.406c0.221-0.769,0.947-1.519,2.171-2.257
					c1.229-0.757,2.272-1.127,3.146-1.127c0.746,0,1.114,0.326,1.114,0.956c0,1.071-2.503,9.216-7.552,24.413
					c3.867-5.13,7.812-10.44,11.891-15.899c1.271-1.703,3.216-4.287,5.77-7.711c1.616-1.926,3.286-2.878,5.002-2.878
					c1.711,0,2.562,0.952,2.562,2.878c0,1.396-0.389,4.15-1.127,8.275c-0.767,4.121-1.603,10.139-2.578,18.062
					c2.997-4.276,7.653-10.543,13.959-18.785c1.73-2.029,3.437-3.063,5.166-3.063c1.602,0,2.404,1.034,2.404,3.063
					c0,1.715-0.271,4.254-0.804,7.627c-0.525,3.367-0.805,5.92-0.805,7.619c0,5.582,1.443,8.371,4.339,8.371
					c4.07,0,9.263-4.502,15.581-13.498c0.652-1.07,1.175-1.608,1.609-1.608C683.141,331.952,683.416,332.434,683.416,333.396z"/>
				<path stroke="#000000" d="M715.369,333.715c0,0.21-0.114,0.541-0.335,0.969c-2.671,4.18-6.672,8.029-12.04,11.565
					c-5.671,3.745-10.858,5.614-15.588,5.614c-6.731,0-10.104-4.221-10.104-12.686c0-5.564,2.402-11.664,7.226-18.308
					c5.135-7.062,10.434-10.603,15.899-10.603c1.067,0,2.015,0.481,2.797,1.447c0.82,0.959,1.217,1.98,1.217,3.051
					c0,3.321-2.515,7.346-7.545,12.047c-4.505,4.17-8.626,6.959-12.368,8.347c-0.745,2.674-1.122,4.927-1.122,6.743
					c0,4.396,1.982,6.578,5.952,6.578c3.736,0,7.966-1.537,12.672-4.641c4.072-2.677,7.554-5.729,10.439-9.159
					c0.745-1.069,1.497-1.604,2.255-1.604C715.146,333.079,715.369,333.292,715.369,333.715z M699.622,316.702
					c0-1.291-0.642-1.935-1.933-1.935c-1.595,0-3.963,2.463-7.068,7.391c-2.681,4.162-4.319,7.447-4.974,9.794
					c2.79-1.17,5.685-3.265,8.674-6.252C697.854,322.258,699.622,319.261,699.622,316.702z"/>
			</g>
			<path stroke="#000000" d="M662.633,165.48c0,21.715-17.607,39.318-39.318,39.318c-21.717,0-39.316-17.603-39.316-39.318
				c0-21.708,17.601-39.311,39.316-39.311C645.025,126.169,662.633,143.772,662.633,165.48z"/>
			<path stroke="#000000" d="M677.922,131.348c0,5.584-6.236,10.108-13.927,10.108c-7.687,0-13.924-4.524-13.924-10.108
				c0-5.575,6.237-10.087,13.924-10.087C671.686,121.261,677.922,125.772,677.922,131.348z"/>
			<g>
				<g>
					<g>
						<path stroke="#000000" d="M688.527,181.231l-4.916-51.014c-0.722-7.401-7.015-13.018-14.473-12.869l-115.735,2.381
							c-5.592,0.108-10.109,4.581-10.309,10.172l-2.492,74.157c-0.126,4.315,1.703,8.456,4.962,11.271
							c3.247,2.819,7.635,4.002,11.871,3.215l46.813-8.602l19.677,24.39c0.52,0.631,1.325,0.991,2.17,0.964
							c0.818-0.058,1.583-0.496,2.036-1.193l21.203-32.44l27.577-5.061C684.191,195.268,689.229,188.595,688.527,181.231z
							 M654.002,173.629c-7.045,18.705-28.392,25.571-42.938,19.565c-12.17-5.023-21.368-22.232-16.095-37.526
							C608.315,116.984,669.574,132.186,654.002,173.629z M673.459,132.458c-1.466,3.805-6.694,5.089-10.117,3.864
							c-2.898-1.024-5.085-4.473-3.861-7.534c1.779-4.445,7.173-5.142,11.018-3.406c1.106,0.312,1.969,1.317,2.579,2.307
							C674.008,129.208,674.072,130.803,673.459,132.458z"/>
						<path stroke="#000000" d="M643.168,148.372c-2.686-2.613-6.146-4.958-9.904-4.809c-13.509-1.617-29.979,6.245-32.246,22.455
							c-1.565,11.166,8.001,20.054,17.887,20.377c11.836,0.374,27.354-9.148,29.06-22.993
							C648.734,157.356,647.247,152.297,643.168,148.372z M611.85,164.838c-2.273,1.881-5.085,2.49-5.493,0.609
							c-0.62-2.716,2.593-7.019,5.792-9.412c0.839-0.752,1.777-1.09,2.584-1.257c1.205-0.23,1.91,0.197,2.141,1.179
							C617.462,158.25,614.575,162.609,611.85,164.838z"/>
					</g>
				</g>
			</g>
		</g>
		<g>
			<g>
				<path stroke="#000000" d="M343.714,430.689c0,0.208-0.009,0.386-0.026,0.53c-0.017,0.142-0.044,0.256-0.083,0.338
					c-0.04,0.085-0.082,0.148-0.13,0.188c-0.05,0.04-0.106,0.062-0.168,0.062h-4.428v3.644h4.155c0.062,0,0.119,0.02,0.167,0.053
					c0.048,0.037,0.094,0.097,0.13,0.178c0.039,0.086,0.067,0.197,0.085,0.334c0.018,0.143,0.027,0.314,0.027,0.526
					c0,0.208-0.01,0.382-0.027,0.523c-0.018,0.137-0.046,0.253-0.085,0.345c-0.036,0.09-0.082,0.156-0.13,0.192
					c-0.048,0.037-0.105,0.061-0.167,0.061h-4.155v5.046c0,0.073-0.021,0.14-0.062,0.196c-0.042,0.054-0.117,0.103-0.225,0.14
					c-0.109,0.041-0.251,0.071-0.426,0.089c-0.174,0.023-0.396,0.034-0.669,0.034c-0.265,0-0.486-0.011-0.666-0.034
					c-0.178-0.018-0.318-0.048-0.423-0.089c-0.104-0.037-0.179-0.086-0.224-0.14c-0.046-0.058-0.069-0.123-0.069-0.196v-12.283
					c0-0.305,0.078-0.526,0.236-0.664c0.156-0.134,0.351-0.204,0.581-0.204h6.375c0.062,0,0.119,0.02,0.168,0.061
					c0.049,0.036,0.091,0.1,0.13,0.188c0.039,0.085,0.066,0.203,0.083,0.349C343.705,430.303,343.714,430.482,343.714,430.689z"/>
				<path stroke="#000000" d="M357.984,436.177c0,1.124-0.141,2.128-0.419,3.017c-0.28,0.886-0.696,1.635-1.246,2.255
					c-0.551,0.616-1.233,1.088-2.046,1.413c-0.812,0.322-1.754,0.485-2.82,0.485c-1.056,0-1.974-0.138-2.76-0.416
					c-0.785-0.273-1.439-0.691-1.963-1.261c-0.523-0.563-0.916-1.283-1.178-2.155c-0.263-0.872-0.393-1.907-0.393-3.098
					c0-1.098,0.14-2.081,0.417-2.961c0.28-0.875,0.696-1.616,1.246-2.232c0.551-0.615,1.234-1.087,2.046-1.411
					c0.814-0.328,1.759-0.494,2.832-0.494c1.026,0,1.932,0.137,2.718,0.406c0.784,0.274,1.44,0.694,1.968,1.26
					c0.525,0.562,0.923,1.277,1.192,2.14C357.849,433.988,357.984,435.004,357.984,436.177z M355.095,436.32
					c0-0.712-0.057-1.357-0.169-1.939c-0.111-0.582-0.301-1.084-0.57-1.498c-0.268-0.416-0.626-0.733-1.073-0.963
					c-0.444-0.227-1.004-0.34-1.675-0.34c-0.677,0-1.241,0.127-1.695,0.381c-0.455,0.257-0.819,0.595-1.101,1.021
					c-0.278,0.427-0.475,0.924-0.591,1.489c-0.115,0.572-0.173,1.174-0.173,1.808c0,0.737,0.056,1.405,0.169,1.996
					c0.11,0.591,0.298,1.094,0.562,1.511c0.266,0.418,0.621,0.738,1.069,0.96c0.447,0.219,1.009,0.331,1.686,0.331
					s1.24-0.126,1.695-0.379c0.454-0.253,0.82-0.594,1.1-1.027c0.278-0.431,0.477-0.935,0.592-1.511
					C355.037,437.582,355.095,436.971,355.095,436.32z"/>
				<path stroke="#000000" d="M368.838,430.689c0,0.204-0.007,0.375-0.025,0.519c-0.017,0.142-0.043,0.256-0.078,0.345
					c-0.036,0.087-0.079,0.154-0.132,0.194c-0.051,0.04-0.109,0.062-0.172,0.062h-3.392v10.917c0,0.07-0.023,0.135-0.067,0.189
					c-0.047,0.057-0.121,0.101-0.224,0.138c-0.106,0.033-0.247,0.063-0.427,0.081c-0.177,0.023-0.397,0.034-0.664,0.034
					c-0.265,0-0.486-0.011-0.666-0.034c-0.178-0.018-0.317-0.048-0.423-0.081c-0.104-0.037-0.18-0.081-0.226-0.138
					c-0.044-0.056-0.066-0.119-0.066-0.189V431.81h-3.393c-0.071,0-0.13-0.021-0.179-0.062c-0.048-0.04-0.091-0.107-0.126-0.194
					c-0.035-0.089-0.062-0.203-0.078-0.345c-0.019-0.144-0.025-0.313-0.025-0.519c0-0.207,0.007-0.388,0.025-0.534
					c0.017-0.146,0.043-0.264,0.078-0.349c0.035-0.09,0.078-0.152,0.126-0.188c0.049-0.041,0.107-0.061,0.179-0.061h9.546
					c0.062,0,0.121,0.02,0.172,0.061c0.054,0.036,0.097,0.1,0.132,0.188c0.035,0.085,0.062,0.203,0.078,0.349
					C368.831,430.303,368.838,430.482,368.838,430.689z"/>
				<path stroke="#000000" d="M382.05,436.177c0,1.124-0.142,2.128-0.419,3.017c-0.28,0.886-0.695,1.635-1.247,2.255
					c-0.55,0.616-1.233,1.088-2.045,1.413c-0.815,0.322-1.756,0.485-2.821,0.485c-1.056,0-1.975-0.138-2.76-0.416
					c-0.785-0.273-1.439-0.691-1.962-1.261c-0.523-0.563-0.917-1.283-1.179-2.155c-0.261-0.872-0.391-1.907-0.391-3.098
					c0-1.098,0.138-2.081,0.417-2.961c0.279-0.875,0.695-1.616,1.245-2.232c0.552-0.615,1.233-1.087,2.046-1.411
					c0.813-0.328,1.758-0.494,2.833-0.494c1.025,0,1.931,0.137,2.716,0.406c0.786,0.274,1.442,0.694,1.968,1.26
					c0.527,0.562,0.924,1.277,1.193,2.14C381.914,433.988,382.05,435.004,382.05,436.177z M379.16,436.32
					c0-0.712-0.056-1.357-0.169-1.939c-0.11-0.582-0.301-1.084-0.568-1.498c-0.27-0.416-0.627-0.733-1.074-0.963
					c-0.445-0.227-1.004-0.34-1.675-0.34c-0.678,0-1.24,0.127-1.695,0.381c-0.454,0.257-0.819,0.595-1.099,1.021
					c-0.278,0.427-0.477,0.924-0.593,1.489c-0.114,0.572-0.173,1.174-0.173,1.808c0,0.737,0.057,1.405,0.169,1.996
					s0.299,1.094,0.564,1.511c0.265,0.418,0.622,0.738,1.067,0.96c0.448,0.219,1.01,0.331,1.688,0.331
					c0.676,0,1.24-0.126,1.695-0.379c0.454-0.253,0.818-0.594,1.1-1.027c0.278-0.431,0.478-0.935,0.592-1.511
					C379.103,437.582,379.16,436.971,379.16,436.32z"/>
				<path stroke="#000000" d="M394.173,439.043c0,0.482-0.064,0.917-0.198,1.312c-0.131,0.39-0.315,0.733-0.549,1.034
					s-0.515,0.561-0.838,0.774c-0.325,0.215-0.684,0.394-1.073,0.534c-0.392,0.142-0.81,0.241-1.251,0.308
					c-0.443,0.067-0.938,0.103-1.48,0.103h-3.602c-0.231,0-0.425-0.067-0.581-0.204c-0.157-0.14-0.235-0.355-0.235-0.664v-11.812
					c0-0.305,0.078-0.526,0.235-0.664c0.156-0.134,0.35-0.204,0.581-0.204h3.4c0.831,0,1.534,0.07,2.111,0.21
					c0.574,0.14,1.062,0.351,1.454,0.633c0.396,0.285,0.697,0.642,0.904,1.075c0.21,0.431,0.315,0.942,0.315,1.528
					c0,0.326-0.043,0.634-0.127,0.925c-0.083,0.292-0.205,0.557-0.367,0.793c-0.159,0.236-0.355,0.444-0.589,0.626
					c-0.235,0.184-0.501,0.327-0.801,0.438c0.383,0.069,0.737,0.192,1.062,0.368c0.324,0.175,0.605,0.399,0.848,0.676
					c0.241,0.277,0.43,0.601,0.569,0.968C394.104,438.168,394.173,438.584,394.173,439.043z M390.613,433.338
					c0-0.27-0.04-0.516-0.124-0.733c-0.085-0.216-0.21-0.394-0.378-0.537c-0.167-0.143-0.378-0.254-0.632-0.33
					c-0.254-0.075-0.596-0.115-1.02-0.115h-1.394v3.516h1.54c0.396,0,0.714-0.044,0.951-0.14c0.237-0.093,0.436-0.224,0.592-0.386
					c0.158-0.164,0.275-0.356,0.352-0.576C390.576,433.814,390.613,433.584,390.613,433.338z M391.317,439.136
					c0-0.311-0.054-0.593-0.158-0.842c-0.105-0.245-0.257-0.452-0.459-0.623c-0.205-0.167-0.462-0.298-0.774-0.386
					c-0.313-0.09-0.724-0.138-1.227-0.138h-1.632v3.854h1.988c0.384,0,0.706-0.042,0.968-0.122c0.264-0.078,0.49-0.197,0.681-0.355
					c0.193-0.157,0.344-0.354,0.451-0.586C391.262,439.704,391.317,439.436,391.317,439.136z"/>
				<path stroke="#000000" d="M408.568,436.177c0,1.124-0.141,2.128-0.419,3.017c-0.279,0.886-0.695,1.635-1.246,2.255
					c-0.551,0.616-1.233,1.088-2.047,1.413c-0.812,0.322-1.754,0.485-2.82,0.485c-1.056,0-1.974-0.138-2.76-0.416
					c-0.785-0.273-1.438-0.691-1.963-1.261c-0.523-0.563-0.916-1.283-1.177-2.155c-0.262-0.872-0.393-1.907-0.393-3.098
					c0-1.098,0.14-2.081,0.418-2.961c0.279-0.875,0.695-1.616,1.247-2.232c0.55-0.615,1.233-1.087,2.045-1.411
					c0.814-0.328,1.759-0.494,2.832-0.494c1.027,0,1.932,0.137,2.719,0.406c0.784,0.274,1.44,0.694,1.968,1.26
					c0.525,0.562,0.923,1.277,1.191,2.14C408.433,433.988,408.568,435.004,408.568,436.177z M405.679,436.32
					c0-0.712-0.057-1.357-0.17-1.939c-0.111-0.582-0.3-1.084-0.569-1.498c-0.269-0.416-0.627-0.733-1.074-0.963
					c-0.444-0.227-1.003-0.34-1.675-0.34c-0.677,0-1.241,0.127-1.695,0.381c-0.455,0.257-0.818,0.595-1.1,1.021
					c-0.278,0.427-0.475,0.924-0.592,1.489c-0.115,0.572-0.172,1.174-0.172,1.808c0,0.737,0.055,1.405,0.169,1.996
					c0.109,0.591,0.297,1.094,0.562,1.511c0.267,0.418,0.621,0.738,1.068,0.96c0.448,0.219,1.01,0.331,1.687,0.331
					c0.678,0,1.241-0.126,1.695-0.379c0.456-0.253,0.82-0.594,1.101-1.027c0.278-0.431,0.477-0.935,0.592-1.511
					C405.62,437.582,405.679,436.971,405.679,436.32z"/>
				<path stroke="#000000" d="M419.8,442.07c0.125,0.24,0.208,0.438,0.245,0.586c0.04,0.146,0.017,0.256-0.066,0.335
					c-0.085,0.077-0.235,0.126-0.457,0.144c-0.219,0.023-0.524,0.034-0.916,0.034c-0.329,0-0.586-0.008-0.773-0.021
					c-0.188-0.016-0.337-0.038-0.444-0.066c-0.11-0.034-0.188-0.075-0.236-0.13c-0.05-0.057-0.091-0.125-0.126-0.212l-2.544-4.891
					l-2.532,4.891c-0.042,0.087-0.087,0.155-0.137,0.212c-0.048,0.055-0.126,0.096-0.235,0.13c-0.106,0.028-0.258,0.052-0.448,0.066
					c-0.193,0.015-0.445,0.021-0.761,0.021c-0.361,0-0.644-0.011-0.842-0.034c-0.199-0.018-0.334-0.065-0.403-0.144
					c-0.069-0.079-0.083-0.189-0.042-0.335c0.042-0.148,0.131-0.346,0.263-0.586l3.246-5.916l-3.017-5.559
					c-0.125-0.252-0.209-0.453-0.256-0.604c-0.044-0.149-0.028-0.261,0.051-0.335c0.082-0.074,0.23-0.119,0.446-0.139
					c0.217-0.015,0.523-0.024,0.922-0.024c0.328,0,0.587,0.008,0.779,0.021c0.191,0.016,0.344,0.036,0.456,0.066
					c0.111,0.034,0.188,0.078,0.234,0.134c0.045,0.057,0.089,0.123,0.132,0.209l2.377,4.479l2.312-4.479
					c0.043-0.086,0.086-0.152,0.132-0.209c0.045-0.056,0.116-0.1,0.219-0.134c0.102-0.03,0.241-0.052,0.42-0.066
					c0.177-0.015,0.422-0.021,0.737-0.021c0.35,0,0.623,0.011,0.827,0.024c0.202,0.02,0.341,0.067,0.417,0.143
					c0.079,0.078,0.097,0.188,0.059,0.337c-0.037,0.145-0.117,0.346-0.236,0.598l-3.014,5.526L419.8,442.07z"/>
				<path stroke="#000000" d="M451.152,439.043c0,0.482-0.063,0.917-0.198,1.312c-0.132,0.39-0.314,0.733-0.549,1.034
					c-0.233,0.301-0.514,0.561-0.838,0.774s-0.682,0.394-1.071,0.534c-0.392,0.142-0.809,0.241-1.252,0.308
					c-0.441,0.067-0.936,0.103-1.479,0.103h-3.603c-0.229,0-0.424-0.067-0.58-0.204c-0.157-0.14-0.234-0.355-0.234-0.664v-11.812
					c0-0.305,0.077-0.526,0.234-0.664c0.156-0.134,0.351-0.204,0.58-0.204h3.402c0.831,0,1.533,0.07,2.11,0.21
					c0.574,0.14,1.061,0.351,1.454,0.633c0.395,0.285,0.697,0.642,0.906,1.075c0.208,0.431,0.314,0.942,0.314,1.528
					c0,0.326-0.043,0.634-0.126,0.925c-0.084,0.292-0.207,0.557-0.368,0.793c-0.16,0.236-0.356,0.444-0.59,0.626
					c-0.235,0.184-0.5,0.327-0.801,0.438c0.384,0.069,0.738,0.192,1.062,0.368c0.324,0.175,0.606,0.399,0.847,0.676
					c0.242,0.277,0.432,0.601,0.57,0.968C451.084,438.168,451.152,438.584,451.152,439.043z M447.593,433.338
					c0-0.27-0.041-0.516-0.125-0.733c-0.084-0.216-0.208-0.394-0.377-0.537c-0.168-0.143-0.379-0.254-0.635-0.33
					c-0.254-0.075-0.595-0.115-1.02-0.115h-1.393v3.516h1.54c0.396,0,0.714-0.044,0.951-0.14c0.236-0.093,0.437-0.224,0.593-0.386
					c0.156-0.164,0.273-0.356,0.35-0.576C447.556,433.814,447.593,433.584,447.593,433.338z M448.296,439.136
					c0-0.311-0.055-0.593-0.158-0.842c-0.105-0.245-0.258-0.452-0.46-0.623c-0.203-0.167-0.461-0.298-0.774-0.386
					c-0.313-0.09-0.724-0.138-1.226-0.138h-1.633v3.854h1.987c0.385,0,0.707-0.042,0.97-0.122c0.263-0.078,0.488-0.197,0.68-0.355
					c0.193-0.157,0.343-0.354,0.451-0.586C448.24,439.704,448.296,439.436,448.296,439.136z"/>
				<path stroke="#000000" d="M463.412,442.748c0,0.08-0.013,0.142-0.041,0.195c-0.027,0.051-0.096,0.096-0.199,0.132
					c-0.104,0.033-0.259,0.057-0.46,0.07c-0.203,0.016-0.479,0.022-0.828,0.022c-0.293,0-0.527-0.008-0.7-0.022
					c-0.175-0.015-0.312-0.039-0.415-0.077c-0.103-0.037-0.172-0.085-0.214-0.145c-0.042-0.061-0.077-0.135-0.104-0.215
					l-1.216-3.028c-0.146-0.341-0.289-0.646-0.428-0.907c-0.142-0.269-0.295-0.489-0.466-0.669
					c-0.172-0.179-0.369-0.312-0.593-0.399c-0.224-0.094-0.481-0.138-0.774-0.138h-0.858v5.158c0,0.07-0.021,0.135-0.065,0.189
					c-0.047,0.057-0.122,0.101-0.228,0.138c-0.104,0.033-0.245,0.063-0.419,0.081c-0.175,0.023-0.396,0.034-0.67,0.034
					c-0.265,0-0.486-0.011-0.664-0.034c-0.178-0.018-0.319-0.048-0.425-0.081c-0.104-0.037-0.178-0.081-0.22-0.138
					c-0.042-0.056-0.062-0.119-0.062-0.189v-12.3c0-0.305,0.078-0.526,0.236-0.664c0.155-0.134,0.35-0.204,0.58-0.204h3.507
					c0.355,0,0.648,0.008,0.879,0.022s0.44,0.029,0.628,0.052c0.544,0.078,1.034,0.208,1.472,0.396
					c0.437,0.19,0.806,0.436,1.109,0.738c0.304,0.305,0.536,0.664,0.695,1.08c0.161,0.414,0.24,0.89,0.24,1.427
					c0,0.454-0.057,0.869-0.173,1.243c-0.114,0.372-0.284,0.705-0.509,0.998c-0.222,0.293-0.498,0.549-0.826,0.765
					c-0.329,0.215-0.702,0.392-1.121,0.523c0.202,0.098,0.395,0.214,0.571,0.355c0.178,0.142,0.345,0.308,0.502,0.508
					c0.158,0.2,0.305,0.427,0.446,0.68c0.139,0.255,0.273,0.545,0.408,0.864l1.141,2.671c0.106,0.263,0.174,0.46,0.209,0.578
					C463.396,442.582,463.412,442.679,463.412,442.748z M459.864,433.558c0-0.445-0.102-0.823-0.304-1.129
					c-0.203-0.308-0.534-0.525-0.995-0.647c-0.139-0.038-0.298-0.063-0.476-0.087c-0.179-0.021-0.423-0.032-0.739-0.032h-1.235
					v3.844h1.404c0.389,0,0.732-0.049,1.025-0.141c0.293-0.095,0.536-0.229,0.732-0.398c0.194-0.171,0.341-0.374,0.439-0.61
					C459.814,434.118,459.864,433.85,459.864,433.558z"/>
				<path stroke="#000000" d="M476.53,442.077c0.083,0.253,0.136,0.453,0.156,0.599c0.021,0.149-0.008,0.255-0.084,0.329
					c-0.076,0.075-0.213,0.118-0.408,0.138s-0.463,0.026-0.806,0.026c-0.356,0-0.633-0.004-0.831-0.016
					c-0.2-0.012-0.353-0.033-0.457-0.063c-0.104-0.032-0.179-0.073-0.219-0.133c-0.042-0.055-0.078-0.126-0.105-0.219l-0.91-2.724
					h-5.088l-0.857,2.65c-0.029,0.098-0.066,0.179-0.11,0.246c-0.044,0.066-0.119,0.119-0.221,0.156
					c-0.101,0.038-0.243,0.062-0.429,0.078c-0.185,0.015-0.427,0.021-0.727,0.021c-0.321,0-0.574-0.011-0.756-0.034
					c-0.181-0.018-0.306-0.069-0.376-0.146c-0.069-0.082-0.096-0.198-0.072-0.342c0.02-0.149,0.072-0.343,0.156-0.589l4.177-12.018
					c0.042-0.12,0.091-0.215,0.146-0.291c0.055-0.069,0.145-0.125,0.267-0.166c0.123-0.036,0.291-0.062,0.508-0.071
					c0.218-0.01,0.502-0.018,0.859-0.018c0.413,0,0.739,0.008,0.982,0.018c0.245,0.008,0.436,0.035,0.571,0.071
					c0.136,0.041,0.233,0.097,0.293,0.175c0.059,0.077,0.109,0.183,0.152,0.315L476.53,442.077z M470.31,432.145h-0.011
					l-1.915,5.758h3.843L470.31,432.145z"/>
				<path stroke="#000000" d="M489.595,442.141c0,0.164-0.027,0.306-0.083,0.432c-0.057,0.126-0.132,0.229-0.226,0.314
					c-0.095,0.082-0.206,0.146-0.334,0.183c-0.131,0.038-0.261,0.06-0.395,0.06h-1.172c-0.245,0-0.454-0.023-0.631-0.074
					c-0.179-0.049-0.345-0.138-0.493-0.268c-0.151-0.13-0.296-0.303-0.436-0.522c-0.138-0.219-0.297-0.505-0.471-0.854l-3.371-6.336
					c-0.196-0.374-0.395-0.782-0.597-1.215c-0.202-0.438-0.384-0.861-0.544-1.273h-0.021c0.027,0.501,0.049,1.001,0.062,1.503
					c0.015,0.496,0.021,1.012,0.021,1.542v7.09c0,0.066-0.019,0.13-0.058,0.188c-0.037,0.054-0.104,0.103-0.198,0.14
					c-0.095,0.041-0.22,0.071-0.382,0.089c-0.16,0.023-0.365,0.034-0.618,0.034c-0.245,0-0.447-0.011-0.606-0.034
					c-0.162-0.018-0.288-0.048-0.377-0.089c-0.091-0.037-0.153-0.086-0.188-0.14c-0.035-0.058-0.052-0.12-0.052-0.188v-12.175
					c0-0.331,0.095-0.574,0.287-0.737c0.19-0.168,0.427-0.249,0.707-0.249h1.477c0.265,0,0.488,0.022,0.669,0.07
					c0.183,0.044,0.344,0.118,0.489,0.222c0.143,0.104,0.275,0.255,0.401,0.437c0.126,0.184,0.255,0.414,0.389,0.686l2.638,4.952
					c0.153,0.302,0.306,0.593,0.454,0.887c0.15,0.289,0.294,0.579,0.436,0.867c0.14,0.29,0.275,0.576,0.408,0.854
					c0.132,0.278,0.263,0.557,0.388,0.838h0.01c-0.021-0.49-0.036-0.997-0.047-1.527c-0.012-0.529-0.016-1.038-0.016-1.521v-6.354
					c0-0.066,0.022-0.131,0.062-0.186c0.043-0.062,0.111-0.108,0.209-0.148c0.099-0.041,0.227-0.069,0.389-0.09
					c0.161-0.019,0.367-0.024,0.618-0.024c0.237,0,0.436,0.007,0.598,0.024c0.159,0.021,0.282,0.049,0.37,0.09
					c0.087,0.04,0.147,0.088,0.185,0.148c0.035,0.055,0.052,0.118,0.052,0.186v12.17H489.595z"/>
				<path stroke="#000000" d="M503.801,436.136c0,1.237-0.16,2.304-0.486,3.187c-0.324,0.883-0.79,1.603-1.396,2.164
					c-0.606,0.557-1.347,0.969-2.214,1.228c-0.87,0.263-1.904,0.395-3.105,0.395h-3.234c-0.229,0-0.424-0.067-0.581-0.204
					c-0.157-0.14-0.234-0.355-0.234-0.664v-11.812c0-0.305,0.078-0.526,0.234-0.664c0.157-0.134,0.352-0.204,0.581-0.204h3.478
					c1.206,0,2.23,0.142,3.07,0.428c0.843,0.281,1.55,0.7,2.125,1.254c0.576,0.556,1.015,1.242,1.314,2.058
					S503.801,435.06,503.801,436.136z M500.953,436.229c0-0.644-0.074-1.24-0.224-1.793c-0.151-0.549-0.392-1.026-0.724-1.432
					c-0.333-0.405-0.756-0.725-1.276-0.95c-0.521-0.227-1.204-0.338-2.047-0.338h-1.391v9.212h1.433
					c0.753,0,1.389-0.097,1.905-0.294c0.516-0.196,0.948-0.489,1.293-0.882c0.345-0.396,0.604-0.887,0.773-1.475
					C500.868,437.693,500.953,437.011,500.953,436.229z"/>
				<path stroke="#000000" d="M515.869,439.043c0,0.482-0.063,0.917-0.198,1.312c-0.13,0.39-0.314,0.733-0.55,1.034
					c-0.23,0.301-0.513,0.561-0.839,0.774c-0.325,0.215-0.682,0.394-1.071,0.534c-0.392,0.142-0.81,0.241-1.251,0.308
					c-0.444,0.067-0.937,0.103-1.48,0.103h-3.602c-0.229,0-0.425-0.067-0.58-0.204c-0.159-0.14-0.235-0.355-0.235-0.664v-11.812
					c0-0.305,0.076-0.526,0.235-0.664c0.155-0.134,0.351-0.204,0.58-0.204h3.4c0.832,0,1.534,0.07,2.112,0.21
					c0.574,0.14,1.061,0.351,1.454,0.633c0.394,0.285,0.695,0.642,0.903,1.075c0.211,0.431,0.315,0.942,0.315,1.528
					c0,0.326-0.044,0.634-0.126,0.925c-0.084,0.292-0.206,0.557-0.367,0.793c-0.16,0.236-0.355,0.444-0.59,0.626
					c-0.236,0.184-0.501,0.327-0.802,0.438c0.384,0.069,0.737,0.192,1.062,0.368c0.326,0.175,0.607,0.399,0.849,0.676
					c0.24,0.277,0.431,0.601,0.568,0.968C515.802,438.168,515.869,438.584,515.869,439.043z M512.31,433.338
					c0-0.27-0.039-0.516-0.123-0.733c-0.086-0.216-0.21-0.394-0.378-0.537c-0.167-0.143-0.38-0.254-0.633-0.33
					c-0.255-0.075-0.596-0.115-1.021-0.115h-1.394v3.516h1.542c0.396,0,0.712-0.044,0.95-0.14c0.236-0.093,0.438-0.224,0.593-0.386
					c0.156-0.164,0.272-0.356,0.349-0.576C512.274,433.814,512.31,433.584,512.31,433.338z M513.014,439.136
					c0-0.311-0.055-0.593-0.157-0.842c-0.104-0.245-0.259-0.452-0.461-0.623c-0.203-0.167-0.462-0.298-0.774-0.386
					c-0.312-0.09-0.724-0.138-1.227-0.138h-1.634v3.854h1.99c0.385,0,0.706-0.042,0.969-0.122c0.263-0.078,0.49-0.197,0.681-0.355
					c0.193-0.157,0.343-0.354,0.45-0.586C512.956,439.704,513.014,439.436,513.014,439.136z"/>
				<path stroke="#000000" d="M530.266,436.177c0,1.124-0.141,2.128-0.419,3.017c-0.28,0.886-0.696,1.635-1.247,2.255
					c-0.552,0.616-1.233,1.088-2.046,1.413c-0.813,0.322-1.755,0.485-2.821,0.485c-1.055,0-1.974-0.138-2.759-0.416
					c-0.786-0.273-1.44-0.691-1.964-1.261c-0.522-0.563-0.915-1.283-1.176-2.155c-0.265-0.872-0.394-1.907-0.394-3.098
					c0-1.098,0.14-2.081,0.418-2.961c0.28-0.875,0.695-1.616,1.245-2.232c0.55-0.615,1.233-1.087,2.047-1.411
					c0.813-0.328,1.758-0.494,2.832-0.494c1.024,0,1.93,0.137,2.716,0.406c0.786,0.274,1.441,0.694,1.97,1.26
					c0.526,0.562,0.924,1.277,1.192,2.14C530.129,433.988,530.266,435.004,530.266,436.177z M527.375,436.32
					c0-0.712-0.057-1.357-0.17-1.939c-0.11-0.582-0.301-1.084-0.567-1.498c-0.271-0.416-0.628-0.733-1.075-0.963
					c-0.444-0.227-1.003-0.34-1.675-0.34c-0.677,0-1.24,0.127-1.694,0.381c-0.455,0.257-0.82,0.595-1.101,1.021
					c-0.278,0.427-0.476,0.924-0.59,1.489c-0.116,0.572-0.175,1.174-0.175,1.808c0,0.737,0.057,1.405,0.17,1.996
					c0.109,0.591,0.298,1.094,0.563,1.511c0.264,0.418,0.62,0.738,1.068,0.96c0.444,0.219,1.008,0.331,1.686,0.331
					c0.676,0,1.24-0.126,1.695-0.379c0.453-0.253,0.817-0.594,1.1-1.027c0.278-0.431,0.479-0.935,0.592-1.511
					C527.318,437.582,527.375,436.971,527.375,436.32z"/>
				<path stroke="#000000" d="M541.497,442.07c0.124,0.24,0.208,0.438,0.244,0.586c0.039,0.146,0.018,0.256-0.066,0.335
					c-0.085,0.077-0.235,0.126-0.455,0.144c-0.22,0.023-0.524,0.034-0.917,0.034c-0.328,0-0.586-0.008-0.773-0.021
					c-0.188-0.016-0.337-0.038-0.442-0.066c-0.11-0.034-0.189-0.075-0.237-0.13c-0.051-0.057-0.092-0.125-0.125-0.212l-2.546-4.891
					l-2.531,4.891c-0.043,0.087-0.088,0.155-0.138,0.212c-0.047,0.055-0.125,0.096-0.235,0.13c-0.106,0.028-0.258,0.052-0.45,0.066
					c-0.19,0.015-0.443,0.021-0.759,0.021c-0.362,0-0.643-0.011-0.843-0.034c-0.198-0.018-0.333-0.065-0.401-0.144
					c-0.069-0.079-0.084-0.189-0.043-0.335c0.043-0.148,0.13-0.346,0.261-0.586l3.246-5.916l-3.017-5.559
					c-0.124-0.252-0.21-0.453-0.255-0.604c-0.045-0.149-0.027-0.261,0.051-0.335c0.083-0.074,0.229-0.119,0.446-0.139
					c0.216-0.015,0.521-0.024,0.923-0.024c0.327,0,0.586,0.008,0.777,0.021c0.192,0.015,0.345,0.036,0.457,0.066
					c0.111,0.034,0.188,0.078,0.234,0.134c0.045,0.057,0.09,0.123,0.128,0.209l2.379,4.479l2.314-4.479
					c0.042-0.086,0.085-0.152,0.131-0.209c0.045-0.056,0.117-0.1,0.22-0.134c0.102-0.03,0.239-0.052,0.418-0.066
					c0.18-0.014,0.423-0.021,0.738-0.021c0.349,0,0.624,0.011,0.828,0.024c0.201,0.02,0.34,0.067,0.417,0.143
					c0.078,0.078,0.097,0.188,0.057,0.337c-0.035,0.145-0.116,0.346-0.233,0.598l-3.016,5.526L541.497,442.07z"/>
				<path stroke="#000000" d="M565.807,442.727c0,0.07-0.021,0.135-0.068,0.189c-0.045,0.057-0.12,0.101-0.225,0.138
					c-0.105,0.033-0.246,0.063-0.42,0.081c-0.174,0.023-0.396,0.034-0.669,0.034c-0.266,0-0.489-0.011-0.666-0.034
					c-0.18-0.018-0.319-0.048-0.423-0.081c-0.107-0.037-0.181-0.081-0.226-0.138c-0.047-0.056-0.067-0.119-0.067-0.189v-12.79
					c0-0.07,0.021-0.134,0.067-0.188c0.045-0.055,0.121-0.099,0.23-0.137c0.107-0.033,0.248-0.062,0.422-0.082
					c0.176-0.022,0.396-0.033,0.661-0.033c0.272,0,0.495,0.011,0.669,0.033c0.174,0.02,0.313,0.049,0.42,0.082
					c0.104,0.038,0.18,0.082,0.225,0.137c0.047,0.056,0.068,0.118,0.068,0.188L565.807,442.727L565.807,442.727z"/>
				<path stroke="#000000" d="M579.93,442.141c0,0.164-0.028,0.306-0.084,0.432c-0.057,0.126-0.131,0.229-0.226,0.314
					c-0.095,0.082-0.206,0.146-0.335,0.183c-0.13,0.038-0.261,0.06-0.395,0.06h-1.172c-0.245,0-0.454-0.023-0.633-0.074
					c-0.179-0.049-0.342-0.138-0.494-0.268c-0.147-0.13-0.293-0.303-0.434-0.522c-0.139-0.219-0.298-0.505-0.471-0.854l-3.369-6.336
					c-0.198-0.374-0.396-0.782-0.598-1.215c-0.203-0.438-0.385-0.861-0.546-1.273h-0.021c0.029,0.501,0.05,1.001,0.062,1.503
					c0.017,0.496,0.021,1.012,0.021,1.542v7.09c0,0.066-0.02,0.13-0.058,0.188c-0.036,0.054-0.104,0.103-0.199,0.14
					c-0.094,0.041-0.221,0.071-0.381,0.089c-0.16,0.023-0.365,0.034-0.617,0.034c-0.246,0-0.449-0.011-0.606-0.034
					c-0.16-0.018-0.288-0.048-0.378-0.089c-0.091-0.037-0.151-0.086-0.188-0.14c-0.034-0.058-0.052-0.12-0.052-0.188v-12.175
					c0-0.331,0.094-0.574,0.287-0.737c0.19-0.168,0.427-0.249,0.707-0.249h1.476c0.266,0,0.489,0.022,0.67,0.07
					c0.182,0.044,0.343,0.118,0.487,0.222c0.144,0.104,0.274,0.255,0.401,0.437c0.126,0.184,0.255,0.414,0.389,0.686l2.639,4.952
					c0.153,0.302,0.306,0.593,0.454,0.887c0.148,0.289,0.296,0.579,0.438,0.867c0.139,0.29,0.273,0.576,0.406,0.854
					s0.262,0.557,0.388,0.838h0.012c-0.021-0.49-0.037-0.997-0.048-1.527c-0.012-0.529-0.018-1.038-0.018-1.521v-6.354
					c0-0.066,0.022-0.131,0.064-0.186c0.041-0.062,0.109-0.108,0.208-0.148c0.098-0.041,0.226-0.069,0.389-0.09
					c0.16-0.019,0.366-0.024,0.617-0.024c0.236,0,0.437,0.007,0.597,0.024c0.16,0.021,0.284,0.049,0.371,0.09
					c0.087,0.04,0.148,0.088,0.185,0.148c0.035,0.055,0.053,0.118,0.053,0.186L579.93,442.141L579.93,442.141z"/>
				<path stroke="#000000" d="M590.909,439.043c0,0.713-0.135,1.336-0.399,1.873c-0.265,0.538-0.621,0.988-1.077,1.348
					c-0.454,0.36-0.985,0.631-1.591,0.812c-0.606,0.179-1.256,0.271-1.948,0.271c-0.468,0-0.901-0.037-1.301-0.113
					c-0.402-0.079-0.76-0.172-1.064-0.278c-0.308-0.109-0.562-0.224-0.77-0.342c-0.205-0.118-0.354-0.224-0.443-0.312
					c-0.093-0.094-0.157-0.224-0.194-0.394c-0.038-0.171-0.057-0.419-0.057-0.738c0-0.215,0.004-0.397,0.02-0.545
					c0.015-0.146,0.037-0.264,0.068-0.356c0.03-0.089,0.073-0.153,0.126-0.191c0.051-0.038,0.111-0.061,0.183-0.061
					c0.099,0,0.236,0.061,0.414,0.175c0.18,0.115,0.405,0.241,0.688,0.383c0.278,0.141,0.611,0.267,0.999,0.382
					c0.387,0.114,0.835,0.174,1.345,0.174c0.335,0,0.634-0.04,0.899-0.123c0.266-0.076,0.491-0.19,0.676-0.341
					c0.186-0.145,0.326-0.327,0.424-0.541c0.099-0.219,0.146-0.457,0.146-0.723c0-0.311-0.082-0.572-0.251-0.79
					c-0.168-0.221-0.386-0.417-0.653-0.586c-0.271-0.173-0.576-0.331-0.916-0.483c-0.342-0.148-0.695-0.308-1.058-0.475
					c-0.364-0.166-0.717-0.36-1.059-0.572c-0.342-0.211-0.646-0.467-0.916-0.764c-0.27-0.298-0.486-0.648-0.655-1.054
					c-0.167-0.403-0.25-0.891-0.25-1.454c0-0.648,0.12-1.221,0.358-1.712c0.243-0.491,0.567-0.898,0.975-1.226
					c0.409-0.324,0.892-0.565,1.445-0.729c0.555-0.16,1.143-0.24,1.764-0.24c0.321,0,0.644,0.025,0.965,0.073
					c0.32,0.047,0.619,0.114,0.899,0.2c0.278,0.081,0.526,0.177,0.743,0.281c0.217,0.104,0.357,0.193,0.43,0.26
					c0.07,0.071,0.116,0.13,0.141,0.18c0.023,0.052,0.047,0.114,0.063,0.196c0.018,0.076,0.029,0.181,0.036,0.3
					c0.009,0.121,0.012,0.275,0.012,0.456c0,0.204-0.006,0.375-0.018,0.517c-0.011,0.138-0.028,0.253-0.052,0.345
					c-0.023,0.09-0.06,0.155-0.105,0.196c-0.045,0.044-0.104,0.062-0.182,0.062s-0.2-0.048-0.367-0.145
					c-0.166-0.102-0.374-0.204-0.617-0.32c-0.246-0.114-0.526-0.221-0.849-0.314c-0.322-0.093-0.673-0.142-1.058-0.142
					c-0.301,0-0.562,0.038-0.783,0.112c-0.226,0.069-0.413,0.176-0.561,0.3c-0.15,0.13-0.265,0.286-0.337,0.467
					c-0.073,0.184-0.107,0.376-0.107,0.576c0,0.301,0.08,0.561,0.242,0.78c0.166,0.222,0.386,0.415,0.662,0.586
					c0.275,0.174,0.586,0.332,0.938,0.479c0.348,0.152,0.703,0.309,1.066,0.479c0.362,0.169,0.719,0.356,1.067,0.567
					c0.35,0.216,0.66,0.472,0.932,0.765c0.273,0.298,0.491,0.646,0.659,1.05C590.825,438.026,590.909,438.499,590.909,439.043z"/>
				<path stroke="#000000" d="M601.818,430.689c0,0.204-0.009,0.375-0.026,0.519c-0.017,0.142-0.044,0.256-0.077,0.345
					c-0.035,0.087-0.078,0.154-0.133,0.194c-0.052,0.04-0.109,0.062-0.172,0.062h-3.392v10.917c0,0.07-0.023,0.135-0.069,0.189
					c-0.046,0.057-0.119,0.101-0.224,0.138c-0.105,0.033-0.246,0.063-0.425,0.081c-0.178,0.023-0.397,0.034-0.663,0.034
					c-0.267,0-0.487-0.011-0.667-0.034c-0.18-0.018-0.317-0.048-0.422-0.081c-0.106-0.037-0.182-0.081-0.229-0.138
					c-0.045-0.056-0.065-0.119-0.065-0.189V431.81h-3.394c-0.07,0-0.129-0.021-0.178-0.062c-0.048-0.04-0.09-0.107-0.126-0.194
					c-0.035-0.089-0.062-0.203-0.078-0.345c-0.02-0.144-0.026-0.313-0.026-0.519c0-0.207,0.008-0.388,0.026-0.534
					c0.018-0.146,0.043-0.264,0.078-0.349c0.036-0.09,0.078-0.152,0.126-0.188c0.049-0.041,0.106-0.061,0.178-0.061h9.548
					c0.062,0,0.12,0.02,0.172,0.061c0.055,0.036,0.098,0.1,0.133,0.188c0.033,0.085,0.062,0.203,0.077,0.349
					C601.81,430.303,601.818,430.482,601.818,430.689z"/>
				<path stroke="#000000" d="M612.83,442.077c0.084,0.253,0.136,0.453,0.156,0.599c0.021,0.149-0.008,0.255-0.082,0.329
					c-0.078,0.075-0.215,0.118-0.409,0.138s-0.464,0.026-0.808,0.026c-0.357,0-0.631-0.004-0.831-0.016s-0.351-0.033-0.456-0.063
					c-0.104-0.032-0.178-0.073-0.219-0.133c-0.043-0.055-0.078-0.126-0.105-0.219l-0.91-2.724h-5.088l-0.857,2.65
					c-0.027,0.098-0.065,0.179-0.109,0.246c-0.045,0.066-0.119,0.119-0.223,0.156c-0.099,0.038-0.242,0.062-0.429,0.078
					c-0.185,0.015-0.426,0.021-0.726,0.021c-0.322,0-0.574-0.011-0.757-0.034c-0.18-0.018-0.306-0.069-0.376-0.146
					c-0.067-0.082-0.094-0.198-0.072-0.342c0.021-0.149,0.072-0.343,0.155-0.589l4.178-12.018c0.041-0.12,0.093-0.215,0.146-0.291
					c0.056-0.069,0.146-0.125,0.268-0.166c0.122-0.036,0.291-0.062,0.507-0.071c0.218-0.01,0.505-0.018,0.859-0.018
					c0.412,0,0.74,0.008,0.984,0.018c0.242,0.008,0.436,0.035,0.57,0.071c0.136,0.041,0.232,0.097,0.291,0.175
					c0.062,0.077,0.111,0.183,0.153,0.315L612.83,442.077z M606.612,432.145h-0.011l-1.917,5.758h3.844L606.612,432.145z"/>
				<path stroke="#000000" d="M624.533,439.043c0,0.482-0.062,0.917-0.197,1.312c-0.132,0.39-0.315,0.733-0.55,1.034
					c-0.232,0.301-0.514,0.561-0.837,0.774c-0.324,0.215-0.683,0.394-1.072,0.534c-0.392,0.142-0.81,0.241-1.251,0.308
					c-0.443,0.067-0.938,0.103-1.481,0.103h-3.604c-0.229,0-0.424-0.067-0.579-0.204c-0.156-0.14-0.235-0.355-0.235-0.664v-11.812
					c0-0.305,0.079-0.526,0.235-0.664c0.155-0.134,0.352-0.204,0.579-0.204h3.403c0.83,0,1.532,0.07,2.11,0.21
					c0.574,0.14,1.06,0.351,1.454,0.633c0.396,0.285,0.696,0.642,0.904,1.075c0.21,0.431,0.314,0.942,0.314,1.528
					c0,0.326-0.042,0.634-0.126,0.925c-0.083,0.292-0.206,0.557-0.367,0.793c-0.16,0.236-0.354,0.444-0.59,0.626
					c-0.234,0.184-0.501,0.327-0.801,0.438c0.383,0.069,0.736,0.192,1.062,0.368c0.325,0.175,0.607,0.399,0.85,0.676
					c0.24,0.277,0.43,0.601,0.567,0.968C624.466,438.168,624.533,438.584,624.533,439.043z M620.977,433.338
					c0-0.27-0.042-0.516-0.125-0.733c-0.086-0.216-0.211-0.394-0.378-0.537c-0.167-0.143-0.379-0.254-0.634-0.33
					c-0.254-0.075-0.596-0.115-1.02-0.115h-1.394v3.516h1.539c0.396,0,0.715-0.044,0.951-0.14c0.237-0.093,0.436-0.224,0.592-0.386
					c0.159-0.164,0.273-0.356,0.352-0.576C620.939,433.814,620.977,433.584,620.977,433.338z M621.679,439.136
					c0-0.311-0.054-0.593-0.159-0.842c-0.104-0.245-0.256-0.452-0.459-0.623c-0.203-0.167-0.462-0.298-0.775-0.386
					c-0.312-0.09-0.724-0.138-1.226-0.138h-1.632v3.854h1.988c0.383,0,0.706-0.042,0.968-0.122c0.264-0.078,0.491-0.197,0.681-0.355
					c0.193-0.157,0.342-0.354,0.451-0.586C621.622,439.704,621.679,439.436,621.679,439.136z"/>
				<path stroke="#000000" d="M638.93,436.177c0,1.124-0.143,2.128-0.42,3.017c-0.278,0.886-0.695,1.635-1.245,2.255
					c-0.551,0.616-1.232,1.088-2.047,1.413c-0.813,0.322-1.753,0.485-2.82,0.485c-1.056,0-1.973-0.138-2.76-0.416
					c-0.784-0.273-1.44-0.691-1.963-1.261c-0.522-0.563-0.916-1.283-1.179-2.155c-0.261-0.872-0.392-1.907-0.392-3.098
					c0-1.098,0.139-2.081,0.417-2.961c0.28-0.875,0.696-1.616,1.246-2.232c0.553-0.615,1.234-1.087,2.047-1.411
					c0.812-0.328,1.759-0.494,2.831-0.494c1.028,0,1.932,0.137,2.72,0.406c0.784,0.274,1.44,0.694,1.968,1.26
					c0.525,0.562,0.923,1.277,1.191,2.14C638.796,433.988,638.93,435.004,638.93,436.177z M636.039,436.32
					c0-0.712-0.056-1.357-0.169-1.939c-0.11-0.582-0.299-1.084-0.567-1.498c-0.271-0.416-0.628-0.733-1.073-0.963
					c-0.448-0.227-1.005-0.34-1.677-0.34c-0.676,0-1.241,0.127-1.695,0.381c-0.454,0.257-0.819,0.595-1.1,1.021
					c-0.278,0.427-0.476,0.924-0.592,1.489c-0.115,0.572-0.174,1.174-0.174,1.808c0,0.737,0.057,1.405,0.169,1.996
					c0.111,0.591,0.3,1.094,0.564,1.511c0.267,0.418,0.621,0.738,1.067,0.96c0.448,0.219,1.01,0.331,1.687,0.331
					c0.676,0,1.242-0.126,1.695-0.379c0.455-0.253,0.819-0.594,1.101-1.027c0.278-0.431,0.479-0.935,0.591-1.511
					C635.982,437.582,636.039,436.971,636.039,436.32z"/>
				<path stroke="#000000" d="M650.161,442.07c0.125,0.24,0.209,0.438,0.246,0.586c0.038,0.146,0.018,0.256-0.066,0.335
					c-0.085,0.077-0.235,0.126-0.456,0.144c-0.22,0.023-0.526,0.034-0.916,0.034c-0.328,0-0.587-0.008-0.774-0.021
					c-0.188-0.016-0.337-0.038-0.445-0.066c-0.108-0.034-0.186-0.075-0.234-0.13c-0.049-0.057-0.09-0.125-0.127-0.212l-2.544-4.891
					l-2.531,4.891c-0.042,0.087-0.087,0.155-0.137,0.212c-0.05,0.055-0.127,0.096-0.236,0.13c-0.107,0.028-0.258,0.052-0.449,0.066
					c-0.19,0.014-0.443,0.021-0.76,0.021c-0.363,0-0.645-0.011-0.843-0.034c-0.198-0.018-0.334-0.065-0.402-0.144
					c-0.071-0.079-0.083-0.189-0.042-0.335c0.042-0.148,0.129-0.346,0.261-0.586l3.246-5.916l-3.015-5.559
					c-0.125-0.252-0.21-0.453-0.257-0.604c-0.043-0.149-0.028-0.261,0.052-0.335c0.083-0.074,0.229-0.119,0.443-0.139
					c0.219-0.015,0.523-0.024,0.924-0.024c0.328,0,0.588,0.008,0.778,0.021c0.192,0.016,0.345,0.036,0.455,0.066
					c0.111,0.034,0.189,0.078,0.235,0.134c0.045,0.057,0.09,0.123,0.131,0.209l2.379,4.479l2.312-4.479
					c0.043-0.086,0.086-0.152,0.134-0.209c0.044-0.056,0.115-0.1,0.219-0.134c0.104-0.03,0.24-0.052,0.419-0.066
					c0.178-0.015,0.422-0.021,0.738-0.021c0.35,0,0.623,0.011,0.826,0.024c0.201,0.02,0.342,0.067,0.418,0.143
					c0.077,0.078,0.096,0.188,0.058,0.337c-0.038,0.145-0.117,0.346-0.235,0.598l-3.015,5.526L650.161,442.07z"/>
			</g>
			<path stroke="#000000" d="M433.51,436.173c0,1.873-0.993,2.819-2.94,2.819c-2.1,0-3.144-0.946-3.144-2.819
				c0-1.877,1.044-2.804,3.144-2.804C432.518,433.369,433.51,434.296,433.51,436.173z"/>
			<path stroke="#000000" d="M554.516,436.173c0,1.873-0.966,2.819-2.917,2.819c-2.114,0-3.155-0.946-3.155-2.819
				c0-1.877,1.041-2.804,3.155-2.804C553.55,433.369,554.516,434.296,554.516,436.173z"/>
		</g>
	</g>
	<g>
		<g>
			<g>
				<path fill="#FFFFFF" d="M318.928,220.278c-6.952,4.255-12.049,9.833-15.308,16.749c-3.258,6.914-4.183,14.938-2.757,24.083
					c0.717,4.465,1.932,7.801,3.696,10.004c0.271,0.408,0.451,0.771,0.503,1.108c-9.028,1.407-15.105-0.607-18.209-6.034
					c-1.149-1.966-1.972-4.489-2.445-7.568c-0.893-5.688,0.006-11.418,2.756-17.236c2.727-5.82,6.577-11.21,11.555-16.154
					c11.422-11.051,24.144-17.673,38.195-19.874l6.776-1.061l-6.546,124.09c-0.823,14.219-4.053,25.393-9.697,33.498
					c-5.627,8.12-15.07,13.211-28.28,15.28c-8.167,1.261-14.727,0.043-19.711-3.688c-4.93-3.742-7.905-8.906-8.938-15.492
					c-1.025-6.579-0.059-12.41,2.914-17.512c2.997-5.086,7.286-8.072,12.867-8.947c5.579-0.867,9.453-0.998,11.586-0.375
					c4.53,1.218,7.16,4.168,7.905,8.912c0.32,2.049,0.337,4.347,0.082,6.938c-3.555-2.048-6.036-3.048-7.474-3.028
					c-1.417,0.032-2.558,0.105-3.376,0.235c-3.919,0.612-6.653,2.366-8.246,5.265c-1.564,2.911-2.145,5.697-1.72,8.4
					c0.698,4.512,2.375,7.55,5.025,9.111c2.64,1.551,5.171,2.147,7.592,1.771c4.578-0.715,7.836-2.625,9.786-5.726
					c1.927-3.09,3.235-9.004,3.907-17.74L318.928,220.278z"/>
				<path fill="#FFFFFF" d="M441.469,253.13c-5.717,8.217-14.974,14.486-27.792,18.749c1.106,15.622-1.406,28.653-7.502,39.096
					c-6.091,10.424-14.404,16.467-24.906,18.108c-13.009,2.041-22.118-1.438-27.38-10.44c-1.843-3.143-3.085-6.76-3.732-10.836
					c-0.622-4.08-0.914-8.266-0.901-12.6c0.013-4.312,0.438-8.817,1.212-13.521c1.797-10.599,5.388-19.542,10.783-26.824
					c6.434-8.676,14.984-13.849,25.657-15.524c14.5-2.27,23.15,5.591,25.968,23.592l0.038,0.171c0.563,0.03,1.512-0.052,2.822-0.257
					c3.03-0.492,6.779-2.055,11.24-4.743c4.462-2.66,8.548-5.791,12.286-9.368L441.469,253.13z M399.729,274.571
					c-3.159-0.308-5.067-2.57-5.748-6.807c-0.665-4.236,0.651-7.426,3.933-9.589c-0.793-3.535-1.75-5.987-2.886-7.33
					c-1.137-1.346-3.032-1.81-5.678-1.392c-5.169,0.813-9.237,7.286-12.177,19.461c-2.956,12.179-3.739,22.707-2.339,31.553
					c0.852,5.465,1.892,8.829,3.113,10.143c1.206,1.31,2.4,2.065,3.562,2.277c1.159,0.209,2.684,0.163,4.563-0.121
					c3.837-0.608,7.14-4.593,9.89-11.963C398.7,293.438,399.948,284.676,399.729,274.571z"/>
				<path fill="#FFFFFF" d="M450.36,294.218c0.781,4.964,2.84,7.187,6.193,6.651c5.952-0.938,9.695-6.631,11.212-17.079
					l2.978-56.063l24.543-3.844l-5.277,101.369c-0.458,11.117-3.579,19.637-9.394,25.512c-4.22,4.266-9.429,6.902-15.598,7.86
					c-6.167,0.964-11.516,0.056-16.085-2.728c-4.503-2.851-7.132-6.592-7.854-11.225c-0.708-4.615-0.533-8.406,0.556-11.342
					c1.083-2.93,3.072-5.779,5.986-8.539c2.825-2.818,9.018-6.503,18.58-11.047l0.56-7.704c-4.71,7.399-11.072,11.714-19.112,12.985
					c-5.082,0.795-9.625-0.133-13.631-2.771c-3.979-2.653-6.529-7.532-7.641-14.64c-0.494-3.186-0.626-6.955-0.408-11.28
					l2.983-56.059l24.351-3.828l-3.118,59.394C450.076,291.338,450.144,292.797,450.36,294.218z M465.883,319.302
					c-5.707,3.091-9.593,5.765-11.604,7.995c-3.648,4.12-5.142,8.309-4.474,12.557c0.204,1.246,1.07,2.412,2.608,3.429
					c1.541,1.036,3.202,1.405,4.997,1.122c1.796-0.273,3.505-1.526,5.132-3.762c1.623-2.232,2.568-5.9,2.834-11.031L465.883,319.302
					z"/>
				<path fill="#FFFFFF" d="M544.196,286.097c-5.095,12.346-12.578,19.301-22.502,20.856c-4.35,0.683-7.98,0.107-10.919-1.74
					c-2.942-1.85-4.827-5.355-5.63-10.531c-1.104-6.955-0.387-13.991,2.134-21.057c1.93-5.389,5.066-9.511,9.412-12.367
					c2.23-1.51,4.646-2.46,7.232-2.865c4.229-0.656,7.217-0.334,8.98,1.036c1.769,1.361,2.876,3.357,3.284,6.006
					c0.821,5.212-0.571,9.967-4.211,14.275c-3.624,4.302-8.22,7.081-13.79,8.321c0.116,1.736,0.242,2.963,0.349,3.674
					c0.476,3.129,1.364,5.105,2.618,5.938c1.267,0.816,2.877,1.084,4.881,0.764c3.518-0.547,6.348-1.799,8.482-3.73
					c2.171-1.93,4.336-4.635,6.54-8.099L544.196,286.097z M529.041,265.928c-0.354-2.222-1.28-3.198-2.799-2.96
					c-2.224,0.404-4.077,2.718-5.544,6.941c-1.463,4.199-2.306,8.74-2.48,13.625c3.473-0.795,6.307-2.905,8.491-6.37
					C528.894,273.715,529.668,269.96,529.041,265.928z"/>
				<path fill="#FFFFFF" d="M576.535,285.281c0.408,2.62,1.725,3.754,3.972,3.398c2.042-0.318,3.521-1.221,4.419-2.705
					c0.896-1.477,1.653-3.691,2.287-6.625l3.853-0.599c-1.933,10.831-5.862,17.146-11.754,18.998
					c-0.938,0.263-2.104,0.505-3.499,0.731c-1.402,0.211-2.818,0.127-4.305-0.25c-4.054-1.006-6.448-3.85-7.184-8.518
					c-0.383-2.504-0.334-6.614,0.179-12.306c0.517-5.667,0.611-9.562,0.275-11.644c-0.478-3.134-1.828-4.519-4.03-4.165
					c-2.199,0.333-3.904,2.391-5.076,6.138c-0.358,1.053-0.608,2.196-0.757,3.413l-1.6,30.301l-13.173,2.069l2.536-47.25
					l13.169-2.059l-0.253,4.892c2.441-3.856,5.733-6.104,9.869-6.765c2.926-0.456,5.479-0.029,7.646,1.277
					c2.213,1.309,3.543,3.531,4.035,6.684c0.496,3.164,0.541,6.804,0.177,10.955l-0.816,9.188
					C576.331,282.448,576.341,284.056,576.535,285.281z"/>
				<path fill="#FFFFFF" d="M599.148,301.777c-0.236,6.048-1.896,10.632-4.971,13.768c-2.271,2.303-5.045,3.717-8.33,4.23
					c-3.299,0.518-6.05,0.19-8.302-0.971c-2.222-1.15-3.598-3.217-4.038-6.199c-0.792-4.941,1.859-9.324,7.907-13.129
					c1.651-1.061,3.311-2,4.951-2.844l2.555-47.61l13.166-2.055l-2.407,43.828c2.68-1.387,4.746-3.171,6.251-5.319
					c1.493-2.156,2.579-5.342,3.268-9.568l3.831-0.609c-1.151,8.208-4.275,13.991-9.36,17.345c-1.416,0.957-2.8,1.721-4.166,2.301
					L599.148,301.777z M586.098,301.389c-5.651,3.019-8.232,6.084-7.751,9.178c0.196,1.224,0.898,2.039,2.174,2.455
					c0.396,0.115,0.981,0.115,1.732,0c0.741-0.114,1.495-0.904,2.281-2.399c0.771-1.47,1.232-3.64,1.397-6.507L586.098,301.389z
					 M602.541,234.364c0.31,2.028-0.146,3.838-1.357,5.454c-1.229,1.609-2.84,2.565-4.834,2.881
					c-1.994,0.315-3.805-0.116-5.41-1.297c-1.621-1.188-2.594-2.772-2.902-4.768c-0.322-1.989,0.102-3.817,1.268-5.468
					c1.148-1.665,2.73-2.656,4.76-2.979c2.028-0.32,3.86,0.136,5.519,1.335C601.238,230.728,602.227,232.345,602.541,234.364z"/>
				<path fill="#FFFFFF" d="M657.698,249.513c-3.094,4.447-8.087,7.824-15.003,10.12c0.572,8.447-0.773,15.495-4.063,21.134
					c-3.295,5.638-7.797,8.906-13.474,9.79c-7.023,1.098-11.953-0.779-14.786-5.635c-1.009-1.696-1.675-3.654-2.025-5.872
					c-0.329-2.197-0.497-4.466-0.493-6.789c0.03-2.348,0.24-4.781,0.665-7.312c0.971-5.73,2.896-10.568,5.826-14.513
					c3.474-4.682,8.084-7.475,13.884-8.383c7.827-1.231,12.488,3.023,14.029,12.761v0.089c0.307,0.011,0.822-0.041,1.548-0.141
					c1.617-0.267,3.646-1.116,6.065-2.57c2.392-1.439,4.615-3.117,6.636-5.064L657.698,249.513z M635.127,261.095
					c-1.7-0.167-2.732-1.391-3.077-3.676c-0.365-2.292,0.345-4.026,2.108-5.171c-0.427-1.921-0.942-3.242-1.562-3.981
					c-0.622-0.719-1.633-0.975-3.076-0.75c-2.783,0.45-4.989,3.952-6.569,10.528c-1.592,6.571-2.011,12.257-1.263,17.054
					c0.465,2.953,1.021,4.779,1.68,5.482c0.662,0.702,1.318,1.106,1.935,1.225c0.642,0.108,1.453,0.089,2.454-0.067
					c2.074-0.322,3.869-2.488,5.336-6.462C634.589,271.302,635.255,266.574,635.127,261.095z"/>
				<path fill="#FFFFFF" d="M662.506,271.719c0.412,2.683,1.53,3.869,3.347,3.582c3.226-0.495,5.24-3.56,6.061-9.217l1.612-30.3
					l13.255-2.086l-2.853,54.784c-0.246,6.016-1.94,10.621-5.064,13.795c-2.288,2.306-5.092,3.726-8.439,4.24
					c-3.322,0.518-6.224,0.033-8.689-1.476c-2.445-1.532-3.86-3.556-4.239-6.06c-0.405-2.494-0.29-4.539,0.309-6.131
					c0.58-1.58,1.666-3.117,3.213-4.611c1.525-1.521,4.883-3.517,10.04-5.976l0.335-4.158c-2.562,3.991-5.999,6.332-10.36,7.013
					c-2.72,0.432-5.191-0.074-7.354-1.494c-2.146-1.438-3.53-4.067-4.141-7.921c-0.252-1.721-0.315-3.743-0.211-6.086l1.614-30.296
					l13.166-2.07l-1.688,32.099C662.356,270.157,662.394,270.932,662.506,271.719z M670.884,285.274
					c-3.08,1.666-5.162,3.108-6.271,4.32c-1.959,2.234-2.758,4.496-2.403,6.773c0.099,0.691,0.566,1.307,1.404,1.869
					c0.836,0.551,1.75,0.754,2.702,0.602c0.969-0.146,1.899-0.827,2.765-2.031c0.893-1.215,1.405-3.193,1.543-5.97L670.884,285.274z
					"/>
			</g>
			<g>
				<path fill="#009D48" d="M607.916,349.779c0,2.574-1.346,3.854-4.009,3.854c-2.891,0-4.343-1.279-4.343-3.854
					c0-2.57,1.452-3.85,4.343-3.85C606.571,345.93,607.916,347.209,607.916,349.779z"/>
				<path fill="#009D48" d="M683.416,333.396c0,0.436-0.119,0.758-0.327,0.974c-2.687,3.743-5.684,7.226-9.018,10.424
					c-4.585,4.306-8.444,6.44-11.551,6.44c-5.027,0-7.537-5.575-7.537-16.715c0-1.703,0.043-3.637,0.131-5.769
					c-3.824,3.411-8.169,9.565-12.982,18.457c-1.611,3.001-3.367,4.5-5.317,4.5c-0.633,0-1.104-0.224-1.423-0.638
					c-0.327-1.191-0.498-2.68-0.498-4.504c0-3.109,0.696-8.782,2.097-17.021c0.747-4.181,1.12-6.848,1.12-8.03
					c0-0.865-0.148-1.281-0.483-1.281c-1.813,1.604-4.769,5.084-8.827,10.437c-4.39,5.772-9.102,12.583-14.13,20.399
					c-0.639,0.96-1.173,1.436-1.606,1.436c-0.865,0-1.284-0.969-1.284-2.902c0-0.506,0.041-0.949,0.159-1.268
					c2.475-5.779,4.979-13.93,7.558-24.416c0.203-1.503,0.63-3.645,1.264-6.406c0.221-0.769,0.947-1.519,2.171-2.257
					c1.229-0.757,2.272-1.127,3.146-1.127c0.746,0,1.114,0.326,1.114,0.956c0,1.071-2.503,9.216-7.552,24.413
					c3.867-5.13,7.812-10.44,11.891-15.899c1.271-1.703,3.216-4.287,5.77-7.711c1.616-1.926,3.286-2.878,5.002-2.878
					c1.711,0,2.562,0.952,2.562,2.878c0,1.396-0.389,4.15-1.127,8.275c-0.767,4.121-1.603,10.139-2.578,18.062
					c2.997-4.276,7.653-10.543,13.959-18.785c1.73-2.029,3.437-3.063,5.166-3.063c1.602,0,2.404,1.034,2.404,3.063
					c0,1.715-0.271,4.254-0.804,7.627c-0.525,3.367-0.805,5.92-0.805,7.619c0,5.582,1.443,8.371,4.339,8.371
					c4.07,0,9.263-4.502,15.581-13.498c0.652-1.07,1.175-1.608,1.609-1.608C683.141,331.952,683.416,332.434,683.416,333.396z"/>
				<path fill="#009D48" d="M715.369,333.715c0,0.21-0.114,0.541-0.335,0.969c-2.671,4.18-6.672,8.029-12.04,11.565
					c-5.671,3.745-10.858,5.614-15.588,5.614c-6.731,0-10.104-4.221-10.104-12.686c0-5.564,2.402-11.664,7.226-18.308
					c5.135-7.062,10.434-10.603,15.899-10.603c1.067,0,2.015,0.481,2.797,1.447c0.82,0.959,1.217,1.98,1.217,3.051
					c0,3.321-2.515,7.346-7.545,12.047c-4.505,4.17-8.626,6.959-12.368,8.347c-0.745,2.674-1.122,4.927-1.122,6.743
					c0,4.396,1.982,6.578,5.952,6.578c3.736,0,7.966-1.537,12.672-4.641c4.072-2.677,7.554-5.729,10.439-9.159
					c0.745-1.069,1.497-1.604,2.255-1.604C715.146,333.079,715.369,333.292,715.369,333.715z M699.622,316.702
					c0-1.291-0.642-1.935-1.933-1.935c-1.595,0-3.963,2.463-7.068,7.391c-2.681,4.162-4.319,7.447-4.974,9.794
					c2.79-1.17,5.685-3.265,8.674-6.252C697.854,322.258,699.622,319.261,699.622,316.702z"/>
			</g>
			<path fill="#121212" d="M662.633,165.48c0,21.715-17.607,39.318-39.318,39.318c-21.717,0-39.316-17.603-39.316-39.318
				c0-21.708,17.601-39.311,39.316-39.311C645.025,126.169,662.633,143.772,662.633,165.48z"/>
			<path fill="#121212" d="M677.922,131.348c0,5.584-6.236,10.108-13.927,10.108c-7.687,0-13.924-4.524-13.924-10.108
				c0-5.575,6.237-10.087,13.924-10.087C671.686,121.261,677.922,125.772,677.922,131.348z"/>
			<g>
				<g>
					<g>
						<path fill="#009D48" d="M688.527,181.231l-4.916-51.014c-0.722-7.401-7.015-13.018-14.473-12.869l-115.735,2.381
							c-5.592,0.108-10.109,4.581-10.309,10.172l-2.492,74.157c-0.126,4.315,1.703,8.456,4.962,11.271
							c3.247,2.819,7.635,4.002,11.871,3.215l46.813-8.602l19.677,24.39c0.52,0.631,1.325,0.991,2.17,0.964
							c0.818-0.058,1.583-0.496,2.036-1.193l21.203-32.44l27.577-5.061C684.191,195.268,689.229,188.595,688.527,181.231z
							 M654.002,173.629c-7.045,18.705-28.392,25.571-42.938,19.565c-12.17-5.023-21.368-22.232-16.095-37.526
							C608.315,116.984,669.574,132.186,654.002,173.629z M673.459,132.458c-1.466,3.805-6.694,5.089-10.117,3.864
							c-2.898-1.024-5.085-4.473-3.861-7.534c1.779-4.445,7.173-5.142,11.018-3.406c1.106,0.312,1.969,1.317,2.579,2.307
							C674.008,129.208,674.072,130.803,673.459,132.458z"/>
						<path fill="#009D48" d="M643.168,148.372c-2.686-2.613-6.146-4.958-9.904-4.809c-13.509-1.617-29.979,6.245-32.246,22.455
							c-1.565,11.166,8.001,20.054,17.887,20.377c11.836,0.374,27.354-9.148,29.06-22.993
							C648.734,157.356,647.247,152.297,643.168,148.372z M611.85,164.838c-2.273,1.881-5.085,2.49-5.493,0.609
							c-0.62-2.716,2.593-7.019,5.792-9.412c0.839-0.752,1.777-1.09,2.584-1.257c1.205-0.23,1.91,0.197,2.141,1.179
							C617.462,158.25,614.575,162.609,611.85,164.838z"/>
					</g>
				</g>
			</g>
		</g>
		<g>
			<g>
				<path fill="#FFFFFF" d="M343.714,430.689c0,0.208-0.009,0.386-0.026,0.53c-0.017,0.142-0.044,0.256-0.083,0.338
					c-0.04,0.085-0.082,0.148-0.13,0.188c-0.05,0.04-0.106,0.062-0.168,0.062h-4.428v3.644h4.155c0.062,0,0.119,0.02,0.167,0.053
					c0.048,0.037,0.094,0.097,0.13,0.178c0.039,0.086,0.067,0.197,0.085,0.334c0.018,0.143,0.027,0.314,0.027,0.526
					c0,0.208-0.01,0.382-0.027,0.523c-0.018,0.137-0.046,0.253-0.085,0.345c-0.036,0.09-0.082,0.156-0.13,0.192
					c-0.048,0.037-0.105,0.061-0.167,0.061h-4.155v5.046c0,0.073-0.021,0.14-0.062,0.196c-0.042,0.054-0.117,0.103-0.225,0.14
					c-0.109,0.041-0.251,0.071-0.426,0.089c-0.174,0.023-0.396,0.034-0.669,0.034c-0.265,0-0.486-0.011-0.666-0.034
					c-0.178-0.018-0.318-0.048-0.423-0.089c-0.104-0.037-0.179-0.086-0.224-0.14c-0.046-0.058-0.069-0.123-0.069-0.196v-12.283
					c0-0.305,0.078-0.526,0.236-0.664c0.156-0.134,0.351-0.204,0.581-0.204h6.375c0.062,0,0.119,0.02,0.168,0.061
					c0.049,0.036,0.091,0.1,0.13,0.188c0.039,0.085,0.066,0.203,0.083,0.349C343.705,430.303,343.714,430.482,343.714,430.689z"/>
				<path fill="#FFFFFF" d="M357.984,436.177c0,1.124-0.141,2.128-0.419,3.017c-0.28,0.886-0.696,1.635-1.246,2.255
					c-0.551,0.616-1.233,1.088-2.046,1.413c-0.812,0.322-1.754,0.485-2.82,0.485c-1.056,0-1.974-0.138-2.76-0.416
					c-0.785-0.273-1.439-0.691-1.963-1.261c-0.523-0.563-0.916-1.283-1.178-2.155c-0.263-0.872-0.393-1.907-0.393-3.098
					c0-1.098,0.14-2.081,0.417-2.961c0.28-0.875,0.696-1.616,1.246-2.232c0.551-0.615,1.234-1.087,2.046-1.411
					c0.814-0.328,1.759-0.494,2.832-0.494c1.026,0,1.932,0.137,2.718,0.406c0.784,0.274,1.44,0.694,1.968,1.26
					c0.525,0.562,0.923,1.277,1.192,2.14C357.849,433.988,357.984,435.004,357.984,436.177z M355.095,436.32
					c0-0.712-0.057-1.357-0.169-1.939c-0.111-0.582-0.301-1.084-0.57-1.498c-0.268-0.416-0.626-0.733-1.073-0.963
					c-0.444-0.227-1.004-0.34-1.675-0.34c-0.677,0-1.241,0.127-1.695,0.381c-0.455,0.257-0.819,0.595-1.101,1.021
					c-0.278,0.427-0.475,0.924-0.591,1.489c-0.115,0.572-0.173,1.174-0.173,1.808c0,0.737,0.056,1.405,0.169,1.996
					c0.11,0.591,0.298,1.094,0.562,1.511c0.266,0.418,0.621,0.738,1.069,0.96c0.447,0.219,1.009,0.331,1.686,0.331
					s1.24-0.126,1.695-0.379c0.454-0.253,0.82-0.594,1.1-1.027c0.278-0.431,0.477-0.935,0.592-1.511
					C355.037,437.582,355.095,436.971,355.095,436.32z"/>
				<path fill="#FFFFFF" d="M368.838,430.689c0,0.204-0.007,0.375-0.025,0.519c-0.017,0.142-0.043,0.256-0.078,0.345
					c-0.036,0.087-0.079,0.154-0.132,0.194c-0.051,0.04-0.109,0.062-0.172,0.062h-3.392v10.917c0,0.07-0.023,0.135-0.067,0.189
					c-0.047,0.057-0.121,0.101-0.224,0.138c-0.106,0.033-0.247,0.063-0.427,0.081c-0.177,0.023-0.397,0.034-0.664,0.034
					c-0.265,0-0.486-0.011-0.666-0.034c-0.178-0.018-0.317-0.048-0.423-0.081c-0.104-0.037-0.18-0.081-0.226-0.138
					c-0.044-0.056-0.066-0.119-0.066-0.189V431.81h-3.393c-0.071,0-0.13-0.021-0.179-0.062c-0.048-0.04-0.091-0.107-0.126-0.194
					c-0.035-0.089-0.062-0.203-0.078-0.345c-0.019-0.144-0.025-0.313-0.025-0.519c0-0.207,0.007-0.388,0.025-0.534
					c0.017-0.146,0.043-0.264,0.078-0.349c0.035-0.09,0.078-0.152,0.126-0.188c0.049-0.041,0.107-0.061,0.179-0.061h9.546
					c0.062,0,0.121,0.02,0.172,0.061c0.054,0.036,0.097,0.1,0.132,0.188c0.035,0.085,0.062,0.203,0.078,0.349
					C368.831,430.303,368.838,430.482,368.838,430.689z"/>
				<path fill="#FFFFFF" d="M382.05,436.177c0,1.124-0.142,2.128-0.419,3.017c-0.28,0.886-0.695,1.635-1.247,2.255
					c-0.55,0.616-1.233,1.088-2.045,1.413c-0.815,0.322-1.756,0.485-2.821,0.485c-1.056,0-1.975-0.138-2.76-0.416
					c-0.785-0.273-1.439-0.691-1.962-1.261c-0.523-0.563-0.917-1.283-1.179-2.155c-0.261-0.872-0.391-1.907-0.391-3.098
					c0-1.098,0.138-2.081,0.417-2.961c0.279-0.875,0.695-1.616,1.245-2.232c0.552-0.615,1.233-1.087,2.046-1.411
					c0.813-0.328,1.758-0.494,2.833-0.494c1.025,0,1.931,0.137,2.716,0.406c0.786,0.274,1.442,0.694,1.968,1.26
					c0.527,0.562,0.924,1.277,1.193,2.14C381.914,433.988,382.05,435.004,382.05,436.177z M379.16,436.32
					c0-0.712-0.056-1.357-0.169-1.939c-0.11-0.582-0.301-1.084-0.568-1.498c-0.27-0.416-0.627-0.733-1.074-0.963
					c-0.445-0.227-1.004-0.34-1.675-0.34c-0.678,0-1.24,0.127-1.695,0.381c-0.454,0.257-0.819,0.595-1.099,1.021
					c-0.278,0.427-0.477,0.924-0.593,1.489c-0.114,0.572-0.173,1.174-0.173,1.808c0,0.737,0.057,1.405,0.169,1.996
					s0.299,1.094,0.564,1.511c0.265,0.418,0.622,0.738,1.067,0.96c0.448,0.219,1.01,0.331,1.688,0.331
					c0.676,0,1.24-0.126,1.695-0.379c0.454-0.253,0.818-0.594,1.1-1.027c0.278-0.431,0.478-0.935,0.592-1.511
					C379.103,437.582,379.16,436.971,379.16,436.32z"/>
				<path fill="#FFFFFF" d="M394.173,439.043c0,0.482-0.064,0.917-0.198,1.312c-0.131,0.39-0.315,0.733-0.549,1.034
					s-0.515,0.561-0.838,0.774c-0.325,0.215-0.684,0.394-1.073,0.534c-0.392,0.142-0.81,0.241-1.251,0.308
					c-0.443,0.067-0.938,0.103-1.48,0.103h-3.602c-0.231,0-0.425-0.067-0.581-0.204c-0.157-0.14-0.235-0.355-0.235-0.664v-11.812
					c0-0.305,0.078-0.526,0.235-0.664c0.156-0.134,0.35-0.204,0.581-0.204h3.4c0.831,0,1.534,0.07,2.111,0.21
					c0.574,0.14,1.062,0.351,1.454,0.633c0.396,0.285,0.697,0.642,0.904,1.075c0.21,0.431,0.315,0.942,0.315,1.528
					c0,0.326-0.043,0.634-0.127,0.925c-0.083,0.292-0.205,0.557-0.367,0.793c-0.159,0.236-0.355,0.444-0.589,0.626
					c-0.235,0.184-0.501,0.327-0.801,0.438c0.383,0.069,0.737,0.192,1.062,0.368c0.324,0.175,0.605,0.399,0.848,0.676
					c0.241,0.277,0.43,0.601,0.569,0.968C394.104,438.168,394.173,438.584,394.173,439.043z M390.613,433.338
					c0-0.27-0.04-0.516-0.124-0.733c-0.085-0.216-0.21-0.394-0.378-0.537c-0.167-0.143-0.378-0.254-0.632-0.33
					c-0.254-0.075-0.596-0.115-1.02-0.115h-1.394v3.516h1.54c0.396,0,0.714-0.044,0.951-0.14c0.237-0.093,0.436-0.224,0.592-0.386
					c0.158-0.164,0.275-0.356,0.352-0.576C390.576,433.814,390.613,433.584,390.613,433.338z M391.317,439.136
					c0-0.311-0.054-0.593-0.158-0.842c-0.105-0.245-0.257-0.452-0.459-0.623c-0.205-0.167-0.462-0.298-0.774-0.386
					c-0.313-0.09-0.724-0.138-1.227-0.138h-1.632v3.854h1.988c0.384,0,0.706-0.042,0.968-0.122c0.264-0.078,0.49-0.197,0.681-0.355
					c0.193-0.157,0.344-0.354,0.451-0.586C391.262,439.704,391.317,439.436,391.317,439.136z"/>
				<path fill="#FFFFFF" d="M408.568,436.177c0,1.124-0.141,2.128-0.419,3.017c-0.279,0.886-0.695,1.635-1.246,2.255
					c-0.551,0.616-1.233,1.088-2.047,1.413c-0.812,0.322-1.754,0.485-2.82,0.485c-1.056,0-1.974-0.138-2.76-0.416
					c-0.785-0.273-1.438-0.691-1.963-1.261c-0.523-0.563-0.916-1.283-1.177-2.155c-0.262-0.872-0.393-1.907-0.393-3.098
					c0-1.098,0.14-2.081,0.418-2.961c0.279-0.875,0.695-1.616,1.247-2.232c0.55-0.615,1.233-1.087,2.045-1.411
					c0.814-0.328,1.759-0.494,2.832-0.494c1.027,0,1.932,0.137,2.719,0.406c0.784,0.274,1.44,0.694,1.968,1.26
					c0.525,0.562,0.923,1.277,1.191,2.14C408.433,433.988,408.568,435.004,408.568,436.177z M405.679,436.32
					c0-0.712-0.057-1.357-0.17-1.939c-0.111-0.582-0.3-1.084-0.569-1.498c-0.269-0.416-0.627-0.733-1.074-0.963
					c-0.444-0.227-1.003-0.34-1.675-0.34c-0.677,0-1.241,0.127-1.695,0.381c-0.455,0.257-0.818,0.595-1.1,1.021
					c-0.278,0.427-0.475,0.924-0.592,1.489c-0.115,0.572-0.172,1.174-0.172,1.808c0,0.737,0.055,1.405,0.169,1.996
					c0.109,0.591,0.297,1.094,0.562,1.511c0.267,0.418,0.621,0.738,1.068,0.96c0.448,0.219,1.01,0.331,1.687,0.331
					c0.678,0,1.241-0.126,1.695-0.379c0.456-0.253,0.82-0.594,1.101-1.027c0.278-0.431,0.477-0.935,0.592-1.511
					C405.62,437.582,405.679,436.971,405.679,436.32z"/>
				<path fill="#FFFFFF" d="M419.8,442.07c0.125,0.24,0.208,0.438,0.245,0.586c0.04,0.146,0.017,0.256-0.066,0.335
					c-0.085,0.077-0.235,0.126-0.457,0.144c-0.219,0.023-0.524,0.034-0.916,0.034c-0.329,0-0.586-0.008-0.773-0.021
					c-0.188-0.016-0.337-0.038-0.444-0.066c-0.11-0.034-0.188-0.075-0.236-0.13c-0.05-0.057-0.091-0.125-0.126-0.212l-2.544-4.891
					l-2.532,4.891c-0.042,0.087-0.087,0.155-0.137,0.212c-0.048,0.055-0.126,0.096-0.235,0.13c-0.106,0.028-0.258,0.052-0.448,0.066
					c-0.193,0.015-0.445,0.021-0.761,0.021c-0.361,0-0.644-0.011-0.842-0.034c-0.199-0.018-0.334-0.065-0.403-0.144
					c-0.069-0.079-0.083-0.189-0.042-0.335c0.042-0.148,0.131-0.346,0.263-0.586l3.246-5.916l-3.017-5.559
					c-0.125-0.252-0.209-0.453-0.256-0.604c-0.044-0.149-0.028-0.261,0.051-0.335c0.082-0.074,0.23-0.119,0.446-0.139
					c0.217-0.015,0.523-0.024,0.922-0.024c0.328,0,0.587,0.008,0.779,0.021c0.191,0.016,0.344,0.036,0.456,0.066
					c0.111,0.034,0.188,0.078,0.234,0.134c0.045,0.057,0.089,0.123,0.132,0.209l2.377,4.479l2.312-4.479
					c0.043-0.086,0.086-0.152,0.132-0.209c0.045-0.056,0.116-0.1,0.219-0.134c0.102-0.03,0.241-0.052,0.42-0.066
					c0.177-0.015,0.422-0.021,0.737-0.021c0.35,0,0.623,0.011,0.827,0.024c0.202,0.02,0.341,0.067,0.417,0.143
					c0.079,0.078,0.097,0.188,0.059,0.337c-0.037,0.145-0.117,0.346-0.236,0.598l-3.014,5.526L419.8,442.07z"/>
				<path fill="#FFFFFF" d="M451.152,439.043c0,0.482-0.063,0.917-0.198,1.312c-0.132,0.39-0.314,0.733-0.549,1.034
					c-0.233,0.301-0.514,0.561-0.838,0.774s-0.682,0.394-1.071,0.534c-0.392,0.142-0.809,0.241-1.252,0.308
					c-0.441,0.067-0.936,0.103-1.479,0.103h-3.603c-0.229,0-0.424-0.067-0.58-0.204c-0.157-0.14-0.234-0.355-0.234-0.664v-11.812
					c0-0.305,0.077-0.526,0.234-0.664c0.156-0.134,0.351-0.204,0.58-0.204h3.402c0.831,0,1.533,0.07,2.11,0.21
					c0.574,0.14,1.061,0.351,1.454,0.633c0.395,0.285,0.697,0.642,0.906,1.075c0.208,0.431,0.314,0.942,0.314,1.528
					c0,0.326-0.043,0.634-0.126,0.925c-0.084,0.292-0.207,0.557-0.368,0.793c-0.16,0.236-0.356,0.444-0.59,0.626
					c-0.235,0.184-0.5,0.327-0.801,0.438c0.384,0.069,0.738,0.192,1.062,0.368c0.324,0.175,0.606,0.399,0.847,0.676
					c0.242,0.277,0.432,0.601,0.57,0.968C451.084,438.168,451.152,438.584,451.152,439.043z M447.593,433.338
					c0-0.27-0.041-0.516-0.125-0.733c-0.084-0.216-0.208-0.394-0.377-0.537c-0.168-0.143-0.379-0.254-0.635-0.33
					c-0.254-0.075-0.595-0.115-1.02-0.115h-1.393v3.516h1.54c0.396,0,0.714-0.044,0.951-0.14c0.236-0.093,0.437-0.224,0.593-0.386
					c0.156-0.164,0.273-0.356,0.35-0.576C447.556,433.814,447.593,433.584,447.593,433.338z M448.296,439.136
					c0-0.311-0.055-0.593-0.158-0.842c-0.105-0.245-0.258-0.452-0.46-0.623c-0.203-0.167-0.461-0.298-0.774-0.386
					c-0.313-0.09-0.724-0.138-1.226-0.138h-1.633v3.854h1.987c0.385,0,0.707-0.042,0.97-0.122c0.263-0.078,0.488-0.197,0.68-0.355
					c0.193-0.157,0.343-0.354,0.451-0.586C448.24,439.704,448.296,439.436,448.296,439.136z"/>
				<path fill="#FFFFFF" d="M463.412,442.748c0,0.08-0.013,0.142-0.041,0.195c-0.027,0.051-0.096,0.096-0.199,0.132
					c-0.104,0.033-0.259,0.057-0.46,0.07c-0.203,0.016-0.479,0.022-0.828,0.022c-0.293,0-0.527-0.008-0.7-0.022
					c-0.175-0.015-0.312-0.039-0.415-0.077c-0.103-0.037-0.172-0.085-0.214-0.145c-0.042-0.061-0.077-0.135-0.104-0.215
					l-1.216-3.028c-0.146-0.341-0.289-0.646-0.428-0.907c-0.142-0.269-0.295-0.489-0.466-0.669
					c-0.172-0.179-0.369-0.312-0.593-0.399c-0.224-0.094-0.481-0.138-0.774-0.138h-0.858v5.158c0,0.07-0.021,0.135-0.065,0.189
					c-0.047,0.057-0.122,0.101-0.228,0.138c-0.104,0.033-0.245,0.063-0.419,0.081c-0.175,0.023-0.396,0.034-0.67,0.034
					c-0.265,0-0.486-0.011-0.664-0.034c-0.178-0.018-0.319-0.048-0.425-0.081c-0.104-0.037-0.178-0.081-0.22-0.138
					c-0.042-0.056-0.062-0.119-0.062-0.189v-12.3c0-0.305,0.078-0.526,0.236-0.664c0.155-0.134,0.35-0.204,0.58-0.204h3.507
					c0.355,0,0.648,0.008,0.879,0.022s0.44,0.029,0.628,0.052c0.544,0.078,1.034,0.208,1.472,0.396
					c0.437,0.19,0.806,0.436,1.109,0.738c0.304,0.305,0.536,0.664,0.695,1.08c0.161,0.414,0.24,0.89,0.24,1.427
					c0,0.454-0.057,0.869-0.173,1.243c-0.114,0.372-0.284,0.705-0.509,0.998c-0.222,0.293-0.498,0.549-0.826,0.765
					c-0.329,0.215-0.702,0.392-1.121,0.523c0.202,0.098,0.395,0.214,0.571,0.355c0.178,0.142,0.345,0.308,0.502,0.508
					c0.158,0.2,0.305,0.427,0.446,0.68c0.139,0.255,0.273,0.545,0.408,0.864l1.141,2.671c0.106,0.263,0.174,0.46,0.209,0.578
					C463.396,442.582,463.412,442.679,463.412,442.748z M459.864,433.558c0-0.445-0.102-0.823-0.304-1.129
					c-0.203-0.308-0.534-0.525-0.995-0.647c-0.139-0.038-0.298-0.063-0.476-0.087c-0.179-0.021-0.423-0.032-0.739-0.032h-1.235
					v3.844h1.404c0.389,0,0.732-0.049,1.025-0.141c0.293-0.095,0.536-0.229,0.732-0.398c0.194-0.171,0.341-0.374,0.439-0.61
					C459.814,434.118,459.864,433.85,459.864,433.558z"/>
				<path fill="#FFFFFF" d="M476.53,442.077c0.083,0.253,0.136,0.453,0.156,0.599c0.021,0.149-0.008,0.255-0.084,0.329
					c-0.076,0.075-0.213,0.118-0.408,0.138s-0.463,0.026-0.806,0.026c-0.356,0-0.633-0.004-0.831-0.016
					c-0.2-0.012-0.353-0.033-0.457-0.063c-0.104-0.032-0.179-0.073-0.219-0.133c-0.042-0.055-0.078-0.126-0.105-0.219l-0.91-2.724
					h-5.088l-0.857,2.65c-0.029,0.098-0.066,0.179-0.11,0.246c-0.044,0.066-0.119,0.119-0.221,0.156
					c-0.101,0.038-0.243,0.062-0.429,0.078c-0.185,0.015-0.427,0.021-0.727,0.021c-0.321,0-0.574-0.011-0.756-0.034
					c-0.181-0.018-0.306-0.069-0.376-0.146c-0.069-0.082-0.096-0.198-0.072-0.342c0.02-0.149,0.072-0.343,0.156-0.589l4.177-12.018
					c0.042-0.12,0.091-0.215,0.146-0.291c0.055-0.069,0.145-0.125,0.267-0.166c0.123-0.036,0.291-0.062,0.508-0.071
					c0.218-0.01,0.502-0.018,0.859-0.018c0.413,0,0.739,0.008,0.982,0.018c0.245,0.008,0.436,0.035,0.571,0.071
					c0.136,0.041,0.233,0.097,0.293,0.175c0.059,0.077,0.109,0.183,0.152,0.315L476.53,442.077z M470.31,432.145h-0.011
					l-1.915,5.758h3.843L470.31,432.145z"/>
				<path fill="#FFFFFF" d="M489.595,442.141c0,0.164-0.027,0.306-0.083,0.432c-0.057,0.126-0.132,0.229-0.226,0.314
					c-0.095,0.082-0.206,0.146-0.334,0.183c-0.131,0.038-0.261,0.06-0.395,0.06h-1.172c-0.245,0-0.454-0.023-0.631-0.074
					c-0.179-0.049-0.345-0.138-0.493-0.268c-0.151-0.13-0.296-0.303-0.436-0.522c-0.138-0.219-0.297-0.505-0.471-0.854l-3.371-6.336
					c-0.196-0.374-0.395-0.782-0.597-1.215c-0.202-0.438-0.384-0.861-0.544-1.273h-0.021c0.027,0.501,0.049,1.001,0.062,1.503
					c0.015,0.496,0.021,1.012,0.021,1.542v7.09c0,0.066-0.019,0.13-0.058,0.188c-0.037,0.054-0.104,0.103-0.198,0.14
					c-0.095,0.041-0.22,0.071-0.382,0.089c-0.16,0.023-0.365,0.034-0.618,0.034c-0.245,0-0.447-0.011-0.606-0.034
					c-0.162-0.018-0.288-0.048-0.377-0.089c-0.091-0.037-0.153-0.086-0.188-0.14c-0.035-0.058-0.052-0.12-0.052-0.188v-12.175
					c0-0.331,0.095-0.574,0.287-0.737c0.19-0.168,0.427-0.249,0.707-0.249h1.477c0.265,0,0.488,0.022,0.669,0.07
					c0.183,0.044,0.344,0.118,0.489,0.222c0.143,0.104,0.275,0.255,0.401,0.437c0.126,0.184,0.255,0.414,0.389,0.686l2.638,4.952
					c0.153,0.302,0.306,0.593,0.454,0.887c0.15,0.289,0.294,0.579,0.436,0.867c0.14,0.29,0.275,0.576,0.408,0.854
					c0.132,0.278,0.263,0.557,0.388,0.838h0.01c-0.021-0.49-0.036-0.997-0.047-1.527c-0.012-0.529-0.016-1.038-0.016-1.521v-6.354
					c0-0.066,0.022-0.131,0.062-0.186c0.043-0.062,0.111-0.108,0.209-0.148c0.099-0.041,0.227-0.069,0.389-0.09
					c0.161-0.019,0.367-0.024,0.618-0.024c0.237,0,0.436,0.007,0.598,0.024c0.159,0.021,0.282,0.049,0.37,0.09
					c0.087,0.04,0.147,0.088,0.185,0.148c0.035,0.055,0.052,0.118,0.052,0.186v12.17H489.595z"/>
				<path fill="#FFFFFF" d="M503.801,436.136c0,1.237-0.16,2.304-0.486,3.187c-0.324,0.883-0.79,1.603-1.396,2.164
					c-0.606,0.557-1.347,0.969-2.214,1.228c-0.87,0.263-1.904,0.395-3.105,0.395h-3.234c-0.229,0-0.424-0.067-0.581-0.204
					c-0.157-0.14-0.234-0.355-0.234-0.664v-11.812c0-0.305,0.078-0.526,0.234-0.664c0.157-0.134,0.352-0.204,0.581-0.204h3.478
					c1.206,0,2.23,0.142,3.07,0.428c0.843,0.281,1.55,0.7,2.125,1.254c0.576,0.556,1.015,1.242,1.314,2.058
					S503.801,435.06,503.801,436.136z M500.953,436.229c0-0.644-0.074-1.24-0.224-1.793c-0.151-0.549-0.392-1.026-0.724-1.432
					c-0.333-0.405-0.756-0.725-1.276-0.95c-0.521-0.227-1.204-0.338-2.047-0.338h-1.391v9.212h1.433
					c0.753,0,1.389-0.097,1.905-0.294c0.516-0.196,0.948-0.489,1.293-0.882c0.345-0.396,0.604-0.887,0.773-1.475
					C500.868,437.693,500.953,437.011,500.953,436.229z"/>
				<path fill="#FFFFFF" d="M515.869,439.043c0,0.482-0.063,0.917-0.198,1.312c-0.13,0.39-0.314,0.733-0.55,1.034
					c-0.23,0.301-0.513,0.561-0.839,0.774c-0.325,0.215-0.682,0.394-1.071,0.534c-0.392,0.142-0.81,0.241-1.251,0.308
					c-0.444,0.067-0.937,0.103-1.48,0.103h-3.602c-0.229,0-0.425-0.067-0.58-0.204c-0.159-0.14-0.235-0.355-0.235-0.664v-11.812
					c0-0.305,0.076-0.526,0.235-0.664c0.155-0.134,0.351-0.204,0.58-0.204h3.4c0.832,0,1.534,0.07,2.112,0.21
					c0.574,0.14,1.061,0.351,1.454,0.633c0.394,0.285,0.695,0.642,0.903,1.075c0.211,0.431,0.315,0.942,0.315,1.528
					c0,0.326-0.044,0.634-0.126,0.925c-0.084,0.292-0.206,0.557-0.367,0.793c-0.16,0.236-0.355,0.444-0.59,0.626
					c-0.236,0.184-0.501,0.327-0.802,0.438c0.384,0.069,0.737,0.192,1.062,0.368c0.326,0.175,0.607,0.399,0.849,0.676
					c0.24,0.277,0.431,0.601,0.568,0.968C515.802,438.168,515.869,438.584,515.869,439.043z M512.31,433.338
					c0-0.27-0.039-0.516-0.123-0.733c-0.086-0.216-0.21-0.394-0.378-0.537c-0.167-0.143-0.38-0.254-0.633-0.33
					c-0.255-0.075-0.596-0.115-1.021-0.115h-1.394v3.516h1.542c0.396,0,0.712-0.044,0.95-0.14c0.236-0.093,0.438-0.224,0.593-0.386
					c0.156-0.164,0.272-0.356,0.349-0.576C512.274,433.814,512.31,433.584,512.31,433.338z M513.014,439.136
					c0-0.311-0.055-0.593-0.157-0.842c-0.104-0.245-0.259-0.452-0.461-0.623c-0.203-0.167-0.462-0.298-0.774-0.386
					c-0.312-0.09-0.724-0.138-1.227-0.138h-1.634v3.854h1.99c0.385,0,0.706-0.042,0.969-0.122c0.263-0.078,0.49-0.197,0.681-0.355
					c0.193-0.157,0.343-0.354,0.45-0.586C512.956,439.704,513.014,439.436,513.014,439.136z"/>
				<path fill="#FFFFFF" d="M530.266,436.177c0,1.124-0.141,2.128-0.419,3.017c-0.28,0.886-0.696,1.635-1.247,2.255
					c-0.552,0.616-1.233,1.088-2.046,1.413c-0.813,0.322-1.755,0.485-2.821,0.485c-1.055,0-1.974-0.138-2.759-0.416
					c-0.786-0.273-1.44-0.691-1.964-1.261c-0.522-0.563-0.915-1.283-1.176-2.155c-0.265-0.872-0.394-1.907-0.394-3.098
					c0-1.098,0.14-2.081,0.418-2.961c0.28-0.875,0.695-1.616,1.245-2.232c0.55-0.615,1.233-1.087,2.047-1.411
					c0.813-0.328,1.758-0.494,2.832-0.494c1.024,0,1.93,0.137,2.716,0.406c0.786,0.274,1.441,0.694,1.97,1.26
					c0.526,0.562,0.924,1.277,1.192,2.14C530.129,433.988,530.266,435.004,530.266,436.177z M527.375,436.32
					c0-0.712-0.057-1.357-0.17-1.939c-0.11-0.582-0.301-1.084-0.567-1.498c-0.271-0.416-0.628-0.733-1.075-0.963
					c-0.444-0.227-1.003-0.34-1.675-0.34c-0.677,0-1.24,0.127-1.694,0.381c-0.455,0.257-0.82,0.595-1.101,1.021
					c-0.278,0.427-0.476,0.924-0.59,1.489c-0.116,0.572-0.175,1.174-0.175,1.808c0,0.737,0.057,1.405,0.17,1.996
					c0.109,0.591,0.298,1.094,0.563,1.511c0.264,0.418,0.62,0.738,1.068,0.96c0.444,0.219,1.008,0.331,1.686,0.331
					c0.676,0,1.24-0.126,1.695-0.379c0.453-0.253,0.817-0.594,1.1-1.027c0.278-0.431,0.479-0.935,0.592-1.511
					C527.318,437.582,527.375,436.971,527.375,436.32z"/>
				<path fill="#FFFFFF" d="M541.497,442.07c0.124,0.24,0.208,0.438,0.244,0.586c0.039,0.146,0.018,0.256-0.066,0.335
					c-0.085,0.077-0.235,0.126-0.455,0.144c-0.22,0.023-0.524,0.034-0.917,0.034c-0.328,0-0.586-0.008-0.773-0.021
					c-0.188-0.016-0.337-0.038-0.442-0.066c-0.11-0.034-0.189-0.075-0.237-0.13c-0.051-0.057-0.092-0.125-0.125-0.212l-2.546-4.891
					l-2.531,4.891c-0.043,0.087-0.088,0.155-0.138,0.212c-0.047,0.055-0.125,0.096-0.235,0.13c-0.106,0.028-0.258,0.052-0.45,0.066
					c-0.19,0.015-0.443,0.021-0.759,0.021c-0.362,0-0.643-0.011-0.843-0.034c-0.198-0.018-0.333-0.065-0.401-0.144
					c-0.069-0.079-0.084-0.189-0.043-0.335c0.043-0.148,0.13-0.346,0.261-0.586l3.246-5.916l-3.017-5.559
					c-0.124-0.252-0.21-0.453-0.255-0.604c-0.045-0.149-0.027-0.261,0.051-0.335c0.083-0.074,0.229-0.119,0.446-0.139
					c0.216-0.015,0.521-0.024,0.923-0.024c0.327,0,0.586,0.008,0.777,0.021c0.192,0.015,0.345,0.036,0.457,0.066
					c0.111,0.034,0.188,0.078,0.234,0.134c0.045,0.057,0.09,0.123,0.128,0.209l2.379,4.479l2.314-4.479
					c0.042-0.086,0.085-0.152,0.131-0.209c0.045-0.056,0.117-0.1,0.22-0.134c0.102-0.03,0.239-0.052,0.418-0.066
					c0.18-0.014,0.423-0.021,0.738-0.021c0.349,0,0.624,0.011,0.828,0.024c0.201,0.02,0.34,0.067,0.417,0.143
					c0.078,0.078,0.097,0.188,0.057,0.337c-0.035,0.145-0.116,0.346-0.233,0.598l-3.016,5.526L541.497,442.07z"/>
				<path fill="#FFFFFF" d="M565.807,442.727c0,0.07-0.021,0.135-0.068,0.189c-0.045,0.057-0.12,0.101-0.225,0.138
					c-0.105,0.033-0.246,0.063-0.42,0.081c-0.174,0.023-0.396,0.034-0.669,0.034c-0.266,0-0.489-0.011-0.666-0.034
					c-0.18-0.018-0.319-0.048-0.423-0.081c-0.107-0.037-0.181-0.081-0.226-0.138c-0.047-0.056-0.067-0.119-0.067-0.189v-12.79
					c0-0.07,0.021-0.134,0.067-0.188c0.045-0.055,0.121-0.099,0.23-0.137c0.107-0.033,0.248-0.062,0.422-0.082
					c0.176-0.022,0.396-0.033,0.661-0.033c0.272,0,0.495,0.011,0.669,0.033c0.174,0.02,0.313,0.049,0.42,0.082
					c0.104,0.038,0.18,0.082,0.225,0.137c0.047,0.056,0.068,0.118,0.068,0.188L565.807,442.727L565.807,442.727z"/>
				<path fill="#FFFFFF" d="M579.93,442.141c0,0.164-0.028,0.306-0.084,0.432c-0.057,0.126-0.131,0.229-0.226,0.314
					c-0.095,0.082-0.206,0.146-0.335,0.183c-0.13,0.038-0.261,0.06-0.395,0.06h-1.172c-0.245,0-0.454-0.023-0.633-0.074
					c-0.179-0.049-0.342-0.138-0.494-0.268c-0.147-0.13-0.293-0.303-0.434-0.522c-0.139-0.219-0.298-0.505-0.471-0.854l-3.369-6.336
					c-0.198-0.374-0.396-0.782-0.598-1.215c-0.203-0.438-0.385-0.861-0.546-1.273h-0.021c0.029,0.501,0.05,1.001,0.062,1.503
					c0.017,0.496,0.021,1.012,0.021,1.542v7.09c0,0.066-0.02,0.13-0.058,0.188c-0.036,0.054-0.104,0.103-0.199,0.14
					c-0.094,0.041-0.221,0.071-0.381,0.089c-0.16,0.023-0.365,0.034-0.617,0.034c-0.246,0-0.449-0.011-0.606-0.034
					c-0.16-0.018-0.288-0.048-0.378-0.089c-0.091-0.037-0.151-0.086-0.188-0.14c-0.034-0.058-0.052-0.12-0.052-0.188v-12.175
					c0-0.331,0.094-0.574,0.287-0.737c0.19-0.168,0.427-0.249,0.707-0.249h1.476c0.266,0,0.489,0.022,0.67,0.07
					c0.182,0.044,0.343,0.118,0.487,0.222c0.144,0.104,0.274,0.255,0.401,0.437c0.126,0.184,0.255,0.414,0.389,0.686l2.639,4.952
					c0.153,0.302,0.306,0.593,0.454,0.887c0.148,0.289,0.296,0.579,0.438,0.867c0.139,0.29,0.273,0.576,0.406,0.854
					s0.262,0.557,0.388,0.838h0.012c-0.021-0.49-0.037-0.997-0.048-1.527c-0.012-0.529-0.018-1.038-0.018-1.521v-6.354
					c0-0.066,0.022-0.131,0.064-0.186c0.041-0.062,0.109-0.108,0.208-0.148c0.098-0.041,0.226-0.069,0.389-0.09
					c0.16-0.019,0.366-0.024,0.617-0.024c0.236,0,0.437,0.007,0.597,0.024c0.16,0.021,0.284,0.049,0.371,0.09
					c0.087,0.04,0.148,0.088,0.185,0.148c0.035,0.055,0.053,0.118,0.053,0.186L579.93,442.141L579.93,442.141z"/>
				<path fill="#FFFFFF" d="M590.909,439.043c0,0.713-0.135,1.336-0.399,1.873c-0.265,0.538-0.621,0.988-1.077,1.348
					c-0.454,0.36-0.985,0.631-1.591,0.812c-0.606,0.179-1.256,0.271-1.948,0.271c-0.468,0-0.901-0.037-1.301-0.113
					c-0.402-0.079-0.76-0.172-1.064-0.278c-0.308-0.109-0.562-0.224-0.77-0.342c-0.205-0.118-0.354-0.224-0.443-0.312
					c-0.093-0.094-0.157-0.224-0.194-0.394c-0.038-0.171-0.057-0.419-0.057-0.738c0-0.215,0.004-0.397,0.02-0.545
					c0.015-0.146,0.037-0.264,0.068-0.356c0.03-0.089,0.073-0.153,0.126-0.191c0.051-0.038,0.111-0.061,0.183-0.061
					c0.099,0,0.236,0.061,0.414,0.175c0.18,0.115,0.405,0.241,0.688,0.383c0.278,0.141,0.611,0.267,0.999,0.382
					c0.387,0.114,0.835,0.174,1.345,0.174c0.335,0,0.634-0.04,0.899-0.123c0.266-0.076,0.491-0.19,0.676-0.341
					c0.186-0.145,0.326-0.327,0.424-0.541c0.099-0.219,0.146-0.457,0.146-0.723c0-0.311-0.082-0.572-0.251-0.79
					c-0.168-0.221-0.386-0.417-0.653-0.586c-0.271-0.173-0.576-0.331-0.916-0.483c-0.342-0.148-0.695-0.308-1.058-0.475
					c-0.364-0.166-0.717-0.36-1.059-0.572c-0.342-0.211-0.646-0.467-0.916-0.764c-0.27-0.298-0.486-0.648-0.655-1.054
					c-0.167-0.403-0.25-0.891-0.25-1.454c0-0.648,0.12-1.221,0.358-1.712c0.243-0.491,0.567-0.898,0.975-1.226
					c0.409-0.324,0.892-0.565,1.445-0.729c0.555-0.16,1.143-0.24,1.764-0.24c0.321,0,0.644,0.025,0.965,0.073
					c0.32,0.047,0.619,0.114,0.899,0.2c0.278,0.081,0.526,0.177,0.743,0.281c0.217,0.104,0.357,0.193,0.43,0.26
					c0.07,0.071,0.116,0.13,0.141,0.18c0.023,0.052,0.047,0.114,0.063,0.196c0.018,0.076,0.029,0.181,0.036,0.3
					c0.009,0.121,0.012,0.275,0.012,0.456c0,0.204-0.006,0.375-0.018,0.517c-0.011,0.138-0.028,0.253-0.052,0.345
					c-0.023,0.09-0.06,0.155-0.105,0.196c-0.045,0.044-0.104,0.062-0.182,0.062s-0.2-0.048-0.367-0.145
					c-0.166-0.102-0.374-0.204-0.617-0.32c-0.246-0.114-0.526-0.221-0.849-0.314c-0.322-0.093-0.673-0.142-1.058-0.142
					c-0.301,0-0.562,0.038-0.783,0.112c-0.226,0.069-0.413,0.176-0.561,0.3c-0.15,0.13-0.265,0.286-0.337,0.467
					c-0.073,0.184-0.107,0.376-0.107,0.576c0,0.301,0.08,0.561,0.242,0.78c0.166,0.222,0.386,0.415,0.662,0.586
					c0.275,0.174,0.586,0.332,0.938,0.479c0.348,0.152,0.703,0.309,1.066,0.479c0.362,0.169,0.719,0.356,1.067,0.567
					c0.35,0.216,0.66,0.472,0.932,0.765c0.273,0.298,0.491,0.646,0.659,1.05C590.825,438.026,590.909,438.499,590.909,439.043z"/>
				<path fill="#FFFFFF" d="M601.818,430.689c0,0.204-0.009,0.375-0.026,0.519c-0.017,0.142-0.044,0.256-0.077,0.345
					c-0.035,0.087-0.078,0.154-0.133,0.194c-0.052,0.04-0.109,0.062-0.172,0.062h-3.392v10.917c0,0.07-0.023,0.135-0.069,0.189
					c-0.046,0.057-0.119,0.101-0.224,0.138c-0.105,0.033-0.246,0.063-0.425,0.081c-0.178,0.023-0.397,0.034-0.663,0.034
					c-0.267,0-0.487-0.011-0.667-0.034c-0.18-0.018-0.317-0.048-0.422-0.081c-0.106-0.037-0.182-0.081-0.229-0.138
					c-0.045-0.056-0.065-0.119-0.065-0.189V431.81h-3.394c-0.07,0-0.129-0.021-0.178-0.062c-0.048-0.04-0.09-0.107-0.126-0.194
					c-0.035-0.089-0.062-0.203-0.078-0.345c-0.02-0.144-0.026-0.313-0.026-0.519c0-0.207,0.008-0.388,0.026-0.534
					c0.018-0.146,0.043-0.264,0.078-0.349c0.036-0.09,0.078-0.152,0.126-0.188c0.049-0.041,0.106-0.061,0.178-0.061h9.548
					c0.062,0,0.12,0.02,0.172,0.061c0.055,0.036,0.098,0.1,0.133,0.188c0.033,0.085,0.062,0.203,0.077,0.349
					C601.81,430.303,601.818,430.482,601.818,430.689z"/>
				<path fill="#FFFFFF" d="M612.83,442.077c0.084,0.253,0.136,0.453,0.156,0.599c0.021,0.149-0.008,0.255-0.082,0.329
					c-0.078,0.075-0.215,0.118-0.409,0.138s-0.464,0.026-0.808,0.026c-0.357,0-0.631-0.004-0.831-0.016s-0.351-0.033-0.456-0.063
					c-0.104-0.032-0.178-0.073-0.219-0.133c-0.043-0.055-0.078-0.126-0.105-0.219l-0.91-2.724h-5.088l-0.857,2.65
					c-0.027,0.098-0.065,0.179-0.109,0.246c-0.045,0.066-0.119,0.119-0.223,0.156c-0.099,0.038-0.242,0.062-0.429,0.078
					c-0.185,0.015-0.426,0.021-0.726,0.021c-0.322,0-0.574-0.011-0.757-0.034c-0.18-0.018-0.306-0.069-0.376-0.146
					c-0.067-0.082-0.094-0.198-0.072-0.342c0.021-0.149,0.072-0.343,0.155-0.589l4.178-12.018c0.041-0.12,0.093-0.215,0.146-0.291
					c0.056-0.069,0.146-0.125,0.268-0.166c0.122-0.036,0.291-0.062,0.507-0.071c0.218-0.01,0.505-0.018,0.859-0.018
					c0.412,0,0.74,0.008,0.984,0.018c0.242,0.008,0.436,0.035,0.57,0.071c0.136,0.041,0.232,0.097,0.291,0.175
					c0.062,0.077,0.111,0.183,0.153,0.315L612.83,442.077z M606.612,432.145h-0.011l-1.917,5.758h3.844L606.612,432.145z"/>
				<path fill="#FFFFFF" d="M624.533,439.043c0,0.482-0.062,0.917-0.197,1.312c-0.132,0.39-0.315,0.733-0.55,1.034
					c-0.232,0.301-0.514,0.561-0.837,0.774c-0.324,0.215-0.683,0.394-1.072,0.534c-0.392,0.142-0.81,0.241-1.251,0.308
					c-0.443,0.067-0.938,0.103-1.481,0.103h-3.604c-0.229,0-0.424-0.067-0.579-0.204c-0.156-0.14-0.235-0.355-0.235-0.664v-11.812
					c0-0.305,0.079-0.526,0.235-0.664c0.155-0.134,0.352-0.204,0.579-0.204h3.403c0.83,0,1.532,0.07,2.11,0.21
					c0.574,0.14,1.06,0.351,1.454,0.633c0.396,0.285,0.696,0.642,0.904,1.075c0.21,0.431,0.314,0.942,0.314,1.528
					c0,0.326-0.042,0.634-0.126,0.925c-0.083,0.292-0.206,0.557-0.367,0.793c-0.16,0.236-0.354,0.444-0.59,0.626
					c-0.234,0.184-0.501,0.327-0.801,0.438c0.383,0.069,0.736,0.192,1.062,0.368c0.325,0.175,0.607,0.399,0.85,0.676
					c0.24,0.277,0.43,0.601,0.567,0.968C624.466,438.168,624.533,438.584,624.533,439.043z M620.977,433.338
					c0-0.27-0.042-0.516-0.125-0.733c-0.086-0.216-0.211-0.394-0.378-0.537c-0.167-0.143-0.379-0.254-0.634-0.33
					c-0.254-0.075-0.596-0.115-1.02-0.115h-1.394v3.516h1.539c0.396,0,0.715-0.044,0.951-0.14c0.237-0.093,0.436-0.224,0.592-0.386
					c0.159-0.164,0.273-0.356,0.352-0.576C620.939,433.814,620.977,433.584,620.977,433.338z M621.679,439.136
					c0-0.311-0.054-0.593-0.159-0.842c-0.104-0.245-0.256-0.452-0.459-0.623c-0.203-0.167-0.462-0.298-0.775-0.386
					c-0.312-0.09-0.724-0.138-1.226-0.138h-1.632v3.854h1.988c0.383,0,0.706-0.042,0.968-0.122c0.264-0.078,0.491-0.197,0.681-0.355
					c0.193-0.157,0.342-0.354,0.451-0.586C621.622,439.704,621.679,439.436,621.679,439.136z"/>
				<path fill="#FFFFFF" d="M638.93,436.177c0,1.124-0.143,2.128-0.42,3.017c-0.278,0.886-0.695,1.635-1.245,2.255
					c-0.551,0.616-1.232,1.088-2.047,1.413c-0.813,0.322-1.753,0.485-2.82,0.485c-1.056,0-1.973-0.138-2.76-0.416
					c-0.784-0.273-1.44-0.691-1.963-1.261c-0.522-0.563-0.916-1.283-1.179-2.155c-0.261-0.872-0.392-1.907-0.392-3.098
					c0-1.098,0.139-2.081,0.417-2.961c0.28-0.875,0.696-1.616,1.246-2.232c0.553-0.615,1.234-1.087,2.047-1.411
					c0.812-0.328,1.759-0.494,2.831-0.494c1.028,0,1.932,0.137,2.72,0.406c0.784,0.274,1.44,0.694,1.968,1.26
					c0.525,0.562,0.923,1.277,1.191,2.14C638.796,433.988,638.93,435.004,638.93,436.177z M636.039,436.32
					c0-0.712-0.056-1.357-0.169-1.939c-0.11-0.582-0.299-1.084-0.567-1.498c-0.271-0.416-0.628-0.733-1.073-0.963
					c-0.448-0.227-1.005-0.34-1.677-0.34c-0.676,0-1.241,0.127-1.695,0.381c-0.454,0.257-0.819,0.595-1.1,1.021
					c-0.278,0.427-0.476,0.924-0.592,1.489c-0.115,0.572-0.174,1.174-0.174,1.808c0,0.737,0.057,1.405,0.169,1.996
					c0.111,0.591,0.3,1.094,0.564,1.511c0.267,0.418,0.621,0.738,1.067,0.96c0.448,0.219,1.01,0.331,1.687,0.331
					c0.676,0,1.242-0.126,1.695-0.379c0.455-0.253,0.819-0.594,1.101-1.027c0.278-0.431,0.479-0.935,0.591-1.511
					C635.982,437.582,636.039,436.971,636.039,436.32z"/>
				<path fill="#FFFFFF" d="M650.161,442.07c0.125,0.24,0.209,0.438,0.246,0.586c0.038,0.146,0.018,0.256-0.066,0.335
					c-0.085,0.077-0.235,0.126-0.456,0.144c-0.22,0.023-0.526,0.034-0.916,0.034c-0.328,0-0.587-0.008-0.774-0.021
					c-0.188-0.016-0.337-0.038-0.445-0.066c-0.108-0.034-0.186-0.075-0.234-0.13c-0.049-0.057-0.09-0.125-0.127-0.212l-2.544-4.891
					l-2.531,4.891c-0.042,0.087-0.087,0.155-0.137,0.212c-0.05,0.055-0.127,0.096-0.236,0.13c-0.107,0.028-0.258,0.052-0.449,0.066
					c-0.19,0.014-0.443,0.021-0.76,0.021c-0.363,0-0.645-0.011-0.843-0.034c-0.198-0.018-0.334-0.065-0.402-0.144
					c-0.071-0.079-0.083-0.189-0.042-0.335c0.042-0.148,0.129-0.346,0.261-0.586l3.246-5.916l-3.015-5.559
					c-0.125-0.252-0.21-0.453-0.257-0.604c-0.043-0.149-0.028-0.261,0.052-0.335c0.083-0.074,0.229-0.119,0.443-0.139
					c0.219-0.015,0.523-0.024,0.924-0.024c0.328,0,0.588,0.008,0.778,0.021c0.192,0.016,0.345,0.036,0.455,0.066
					c0.111,0.034,0.189,0.078,0.235,0.134c0.045,0.057,0.09,0.123,0.131,0.209l2.379,4.479l2.312-4.479
					c0.043-0.086,0.086-0.152,0.134-0.209c0.044-0.056,0.115-0.1,0.219-0.134c0.104-0.03,0.24-0.052,0.419-0.066
					c0.178-0.015,0.422-0.021,0.738-0.021c0.35,0,0.623,0.011,0.826,0.024c0.201,0.02,0.342,0.067,0.418,0.143
					c0.077,0.078,0.096,0.188,0.058,0.337c-0.038,0.145-0.117,0.346-0.235,0.598l-3.015,5.526L650.161,442.07z"/>
			</g>
			<path fill="#009D48" d="M433.51,436.173c0,1.873-0.993,2.819-2.94,2.819c-2.1,0-3.144-0.946-3.144-2.819
				c0-1.877,1.044-2.804,3.144-2.804C432.518,433.369,433.51,434.296,433.51,436.173z"/>
			<path fill="#009D48" d="M554.516,436.173c0,1.873-0.966,2.819-2.917,2.819c-2.114,0-3.155-0.946-3.155-2.819
				c0-1.877,1.041-2.804,3.155-2.804C553.55,433.369,554.516,434.296,554.516,436.173z"/>
		</g>
	</g>
</g>
<image overflow="visible" enable-background="new    " width="5000" height="3334" xlink:href="D7731E7A.jpg"  transform="matrix(0.202 0 0 0.202 -5.5652 -40.8916)">
</image>
</svg>
